<svg width="147" height="55" viewBox="0 0 147 55" fill="none" xmlns="http://www.w3.org/2000/svg">
<path d="M28.1375 54.9014C25.7972 54.9009 23.4666 54.6016 21.2024 54.0103C20.9013 53.9324 20.6003 53.8544 20.2993 53.7541C14.7046 52.0607 9.78798 48.6449 6.2507 43.9945C2.62115 39.243 0.661622 33.4278 0.675858 27.4504C0.675113 22.6758 1.92022 17.9838 4.28834 13.8367C6.59937 9.82655 9.87617 6.4563 13.8213 4.03254C15.1622 3.20946 16.5724 2.50531 18.0359 1.92733C18.0762 1.9116 18.1195 1.90548 18.1626 1.90938C18.2056 1.91327 18.2471 1.92694 18.2839 1.94963C18.3207 1.97232 18.3517 2.00322 18.3744 2.03993C18.3972 2.07664 18.411 2.11824 18.415 2.16124C18.5822 3.68752 18.8164 5.23622 19.0951 6.75136C19.9524 11.3706 21.3095 15.8826 23.1425 20.2089C23.9118 22.0137 24.7814 23.83 25.7291 25.6014C28.7056 31.1393 32.4603 36.2225 36.8788 40.6969L37.1353 40.9423C37.1679 40.9684 37.1942 41.0015 37.2122 41.0391C37.2303 41.0767 37.2396 41.1176 37.2396 41.1593C37.2396 41.201 37.2303 41.2425 37.2122 41.2801C37.1942 41.3177 37.1679 41.3503 37.1353 41.3764C36.9012 41.5323 36.6559 41.6776 36.4106 41.8224C35.4265 42.3829 34.388 42.842 33.311 43.1927C33.2601 43.2074 33.2062 43.2075 33.1551 43.1938C33.104 43.1801 33.0577 43.1526 33.0211 43.1144C28.2037 38.0955 24.1604 32.3887 21.024 26.1808C20.969 26.0759 20.8764 25.9959 20.7647 25.9566C20.653 25.9174 20.5305 25.9218 20.422 25.9692C18.1919 26.9545 16.2959 28.5653 14.964 30.6061C13.632 32.6469 12.9213 35.0298 12.9182 37.4662C12.9101 40.1689 13.7829 42.8008 15.4046 44.9639C16.9933 47.0688 19.1992 48.6265 21.7153 49.4202L22.4066 49.6095C27.4723 50.9342 32.8393 50.4858 37.6147 48.3393L38.2725 48.0385C39.2298 47.5716 40.1537 47.0396 41.0377 46.4457C41.5506 46.1004 42.0634 45.7216 42.5986 45.3316C44.464 43.8421 46.0821 42.0672 47.393 40.073C47.4579 39.9783 47.4847 39.8628 47.4682 39.7493C47.4516 39.6358 47.393 39.5327 47.3038 39.4605C45.9436 38.3464 44.6056 37.1655 43.3457 35.9289C38.8581 31.5548 35.1147 26.4783 32.2629 20.8998C29.6876 15.8815 27.8727 10.5086 26.8776 4.95731C26.61 3.46445 26.3982 1.91601 26.2421 0.356308C26.239 0.281293 26.2651 0.207886 26.315 0.151771C26.3649 0.0956562 26.4347 0.0611972 26.5096 0.0554862C27.1006 0.0554862 27.6247 0 28.2267 0C28.9849 0 29.7431 8.70391e-05 30.5236 0.089213C30.5879 0.0968045 30.6475 0.126228 30.6923 0.172986C30.737 0.219744 30.7641 0.280897 30.7688 0.345429C30.9472 2.03882 31.2037 3.68739 31.5382 5.36965C33.9191 16.9967 40.1338 27.4901 49.1881 35.1712C49.2451 35.2186 49.3126 35.2517 49.3851 35.268C49.4575 35.2842 49.5327 35.2832 49.6046 35.2647C49.6765 35.2462 49.7429 35.2111 49.7984 35.1619C49.8539 35.1127 49.897 35.0509 49.924 34.9818C50.6269 32.9402 51.0398 30.81 51.1505 28.6537C51.1505 28.2192 51.1505 27.8406 51.1505 27.4841C51.1532 23.4842 50.1034 19.5539 48.1066 16.0872C46.2225 12.8155 43.566 10.0538 40.3687 8.04332C40.3373 8.0261 40.31 8.00256 40.2889 7.97369C40.2677 7.94482 40.253 7.91143 40.2461 7.87631C39.7889 6.09379 39.3541 4.27774 39.0085 2.75146C38.9973 2.70073 39.0006 2.64811 39.018 2.59915C39.0353 2.55018 39.066 2.50702 39.1066 2.47457C39.1472 2.44213 39.196 2.42144 39.2477 2.41528C39.2993 2.40912 39.3516 2.41778 39.3987 2.43976C43.9553 4.4837 47.8707 7.72587 50.7268 11.8202C53.9435 16.4104 55.6645 21.8805 55.6549 27.4841C55.6541 29.2452 55.4861 31.0021 55.1532 32.7314C54.7917 34.5725 54.2425 36.3717 53.5142 38.101C52.8233 39.7499 51.9678 41.3252 50.9609 42.8027C49.6616 44.7217 48.1258 46.4696 46.3895 48.0053C44.9794 49.2717 43.444 50.3916 41.807 51.3475C37.6565 53.7258 32.9555 54.9776 28.1709 54.9792M14.3231 9.2243C11.5245 11.3275 9.23766 14.0351 7.63325 17.1452C5.98906 20.3592 5.13666 23.9193 5.14689 27.5288C5.06678 31.0085 5.85214 34.4536 7.43256 37.5554C7.48443 37.6419 7.5629 37.7091 7.65625 37.7475C7.7496 37.7858 7.85281 37.7932 7.95057 37.7681C8.04834 37.7431 8.13539 37.6872 8.19876 37.6087C8.26213 37.5302 8.29846 37.4332 8.30227 37.3324C8.31108 34.0281 9.31322 30.8026 11.1788 28.0744C12.9713 25.4026 15.4785 23.2873 18.415 21.9693C18.4708 21.9461 18.5216 21.912 18.5642 21.8692C18.6068 21.8263 18.6405 21.7755 18.6634 21.7196C18.6862 21.6636 18.6976 21.6037 18.6971 21.5433C18.6966 21.4829 18.6841 21.4232 18.6603 21.3676C17.0843 17.5294 15.853 13.5589 14.9809 9.50282C14.9677 9.42571 14.9343 9.35356 14.8843 9.29339C14.8342 9.23322 14.7692 9.18721 14.6958 9.16011C14.6223 9.13301 14.5431 9.12566 14.4659 9.1389C14.3887 9.15213 14.3164 9.1857 14.2562 9.23573L14.3231 9.2243Z" fill="#E4E4E4"/>
<path d="M70.9843 36.5307C69.9056 36.5307 68.9709 36.3403 68.1804 35.9596C67.3972 35.5714 66.8209 34.9965 66.4515 34.235C66.082 33.4735 65.9897 32.529 66.1744 31.4017C66.3369 30.4461 66.6436 29.6472 67.0943 29.0052C67.5523 28.3557 68.1102 27.8331 68.7677 27.4374C69.4253 27.0417 70.1531 26.7393 70.951 26.5303C71.7564 26.3212 72.5876 26.1794 73.4446 26.1047C74.4347 26.0002 75.2401 25.8994 75.8607 25.8024C76.4887 25.7053 76.9579 25.5672 77.2682 25.388C77.5785 25.2014 77.7669 24.9251 77.8334 24.5593V24.4921C77.9442 23.7903 77.8149 23.2453 77.4455 22.8571C77.0835 22.4614 76.5035 22.2636 75.7055 22.2636C74.8632 22.2636 74.1466 22.4502 73.5555 22.8235C72.9718 23.1968 72.5543 23.6709 72.3031 24.2457L68.003 23.8874C68.3872 22.8422 68.9672 21.9388 69.743 21.1773C70.5262 20.4083 71.4682 19.8185 72.5691 19.4079C73.67 18.9898 74.9039 18.7808 76.2707 18.7808C77.2165 18.7808 78.0994 18.8927 78.9195 19.1167C79.747 19.3407 80.46 19.6879 81.0585 20.1582C81.6643 20.6285 82.1003 21.2333 82.3662 21.9724C82.6396 22.704 82.695 23.5813 82.5325 24.6041L80.6152 36.206H76.1377L76.5367 33.8206H76.4037C76.0417 34.3582 75.5984 34.8322 75.0738 35.2429C74.5492 35.646 73.9471 35.9633 73.2673 36.1948C72.5876 36.4187 71.8266 36.5307 70.9843 36.5307ZM72.8794 33.2383C73.5666 33.2383 74.1983 33.1002 74.7746 32.8239C75.3583 32.5402 75.8385 32.1595 76.2153 31.6817C76.5995 31.2039 76.8433 30.6626 76.9468 30.0579L77.2349 28.2325C77.0872 28.3295 76.8729 28.4154 76.5921 28.49C76.3188 28.5647 76.0195 28.6356 75.6944 28.7028C75.3767 28.7625 75.0553 28.8185 74.7302 28.8708C74.4052 28.9156 74.1133 28.9604 73.8547 29.0052C73.2858 29.0873 72.776 29.218 72.3253 29.3971C71.8746 29.5763 71.5089 29.819 71.2281 30.1251C70.9473 30.4237 70.7737 30.797 70.7072 31.2449C70.6038 31.8944 70.7552 32.3909 71.1616 32.7344C71.5754 33.0703 72.148 33.2383 72.8794 33.2383Z" fill="white"/>
<path d="M92.7674 13.271L88.9992 36.206H84.278L88.0461 13.271H92.7674Z" fill="white"/>
<path d="M94.6542 42.6564C94.0483 42.6564 93.4942 42.6079 92.9918 42.5108C92.4894 42.4212 92.0756 42.3055 91.7505 42.1637L93.4129 38.6025C93.9375 38.7742 94.4141 38.8638 94.8426 38.8712C95.2785 38.8787 95.6775 38.7667 96.0395 38.5353C96.4016 38.3038 96.7341 37.9231 97.037 37.393L97.4581 36.6651L94.2663 19.0047H99.054L100.495 31.6593H100.672L106.313 19.0047H111.489L101.747 38.0649C101.267 38.9982 100.698 39.8082 100.04 40.4951C99.3902 41.1819 98.6181 41.712 97.7241 42.0853C96.8375 42.466 95.8142 42.6564 94.6542 42.6564Z" fill="white"/>
<path d="M123.192 28.882L124.821 19.0047H129.543L126.705 36.206H122.173L122.682 33.0815H122.505C121.98 34.0894 121.216 34.8994 120.211 35.5116C119.206 36.1238 118.065 36.4299 116.786 36.4299C115.649 36.4299 114.688 36.1686 113.905 35.646C113.129 35.1234 112.579 34.3806 112.254 33.4175C111.928 32.4544 111.873 31.3009 112.087 29.9571L113.905 19.0047H118.626L116.964 29.106C116.809 30.1213 116.949 30.9239 117.385 31.5137C117.821 32.1035 118.486 32.3984 119.38 32.3984C119.949 32.3984 120.499 32.2677 121.031 32.0064C121.57 31.7377 122.036 31.342 122.427 30.8194C122.819 30.2968 123.074 29.651 123.192 28.882Z" fill="white"/>
<path d="M146.652 23.9098L142.363 24.1785C142.34 23.7978 142.237 23.4581 142.052 23.1595C141.875 22.8534 141.613 22.6107 141.265 22.4315C140.925 22.2524 140.497 22.1628 139.98 22.1628C139.204 22.1628 138.513 22.342 137.907 22.7003C137.301 23.0587 136.958 23.5178 136.877 24.0778C136.81 24.4361 136.902 24.7385 137.154 24.9848C137.405 25.2312 137.911 25.4403 138.672 25.612L141.664 26.2391C143.26 26.5825 144.413 27.1537 145.122 27.9525C145.839 28.7513 146.094 29.7966 145.887 31.0881C145.702 32.1856 145.226 33.145 144.457 33.9662C143.689 34.78 142.713 35.4146 141.531 35.87C140.349 36.3179 139.038 36.5419 137.597 36.5419C135.284 36.5419 133.526 36.0641 132.322 35.1085C131.117 34.1529 130.537 32.8575 130.582 31.2225L135.192 30.9762C135.229 31.6779 135.473 32.208 135.923 32.5664C136.374 32.9173 136.991 33.0964 137.774 33.1039C138.654 33.1188 139.4 32.9359 140.013 32.5552C140.634 32.167 140.985 31.6966 141.066 31.1441C141.125 30.7559 141.014 30.4424 140.733 30.2034C140.46 29.9645 139.958 29.7667 139.226 29.6099L136.389 29.0164C134.778 28.6804 133.622 28.0794 132.92 27.2134C132.218 26.3474 131.978 25.2462 132.2 23.9098C132.377 22.8422 132.817 21.9276 133.519 21.1661C134.228 20.3971 135.14 19.8073 136.256 19.3967C137.379 18.9861 138.646 18.7808 140.057 18.7808C142.266 18.7808 143.929 19.2399 145.045 20.1582C146.168 21.0765 146.703 22.327 146.652 23.9098Z" fill="white"/>
</svg>
