<svg width="95" height="95" viewBox="0 0 95 95" fill="none" xmlns="http://www.w3.org/2000/svg">
<path d="M47.4519 94.8656C43.4081 94.8647 39.3809 94.3476 35.4685 93.3259C34.9483 93.1912 34.4281 93.0565 33.9079 92.8832C24.2407 89.9571 15.7452 84.0548 9.63305 76.0194C3.36146 67.8091 -0.0244665 57.7608 0.0001331 47.4323C-0.00115524 39.1821 2.15029 31.0747 6.24224 23.9089C10.2355 16.9796 15.8976 11.156 22.7145 6.96793C25.0314 5.54571 27.4682 4.32899 29.997 3.33028C30.0666 3.30311 30.1415 3.29254 30.2159 3.29926C30.2902 3.30599 30.362 3.32961 30.4255 3.36882C30.4891 3.40803 30.5426 3.46142 30.5819 3.52485C30.6212 3.58829 30.6452 3.66017 30.652 3.73447C30.941 6.37177 31.3457 9.0478 31.8273 11.6659C33.3086 19.6476 35.6535 27.4441 38.8208 34.9196C40.1502 38.0381 41.6528 41.1766 43.2904 44.2374C48.4335 53.8064 54.9213 62.5899 62.5562 70.3213L62.9994 70.7452C63.0557 70.7903 63.1011 70.8476 63.1323 70.9126C63.1635 70.9775 63.1797 71.0482 63.1797 71.1203C63.1797 71.1924 63.1635 71.264 63.1323 71.329C63.1011 71.3939 63.0557 71.4502 62.9994 71.4953C62.5948 71.7648 62.1709 72.0158 61.7471 72.2661C60.0466 73.2346 58.2522 74.0279 56.3913 74.6339C56.3034 74.6592 56.2103 74.6595 56.122 74.6357C56.0337 74.612 55.9536 74.5645 55.8903 74.4985C47.5662 65.8262 40.5797 55.9653 35.1603 45.2385C35.0653 45.0573 34.9052 44.9191 34.7121 44.8512C34.5191 44.7833 34.3075 44.791 34.12 44.8728C30.2666 46.5754 26.9904 49.3587 24.6889 52.885C22.3875 56.4114 21.1594 60.529 21.154 64.7389C21.1401 69.409 22.6482 73.9566 25.4503 77.6944C28.1955 81.3315 32.0071 84.0231 36.3547 85.3945L37.5492 85.7216C46.3025 88.0105 55.5762 87.2358 63.8278 83.5268L64.9645 83.007C66.6185 82.2003 68.215 81.2811 69.7425 80.2548C70.6287 79.6581 71.5148 79.0036 72.4396 78.3298C75.6628 75.756 78.4588 72.689 80.724 69.2432C80.8361 69.0796 80.8824 68.8801 80.8538 68.6839C80.8253 68.4877 80.7239 68.3097 80.5698 68.1848C78.2194 66.2598 75.9075 64.2194 73.7305 62.0826C65.9763 54.5244 59.5079 45.7525 54.5803 36.1133C50.1303 27.442 46.9942 18.1581 45.2748 8.56587C44.8125 5.98631 44.4464 3.31073 44.1767 0.615675C44.1713 0.486055 44.2165 0.359211 44.3027 0.262249C44.389 0.165287 44.5096 0.105744 44.639 0.095876C45.6601 0.095876 46.5657 0 47.606 0C48.9161 0 50.2262 0.000150397 51.5748 0.154154C51.6859 0.167271 51.789 0.218113 51.8663 0.298908C51.9436 0.379702 51.9904 0.48537 51.9986 0.596875C52.3068 3.52294 52.75 6.37155 53.3279 9.27836C57.442 29.3691 68.1805 47.5009 83.8258 60.7732C83.9243 60.8552 84.041 60.9124 84.1661 60.9405C84.2912 60.9686 84.4212 60.9668 84.5454 60.9349C84.6696 60.9029 84.7844 60.8422 84.8803 60.7572C84.9763 60.6722 85.0506 60.5654 85.0973 60.4461C86.312 56.9183 87.0254 53.2374 87.2166 49.5115C87.2166 48.7608 87.2166 48.1066 87.2166 47.4906C87.2213 40.579 85.4074 33.7877 81.9569 27.7975C78.7014 22.1442 74.1111 17.3722 68.5864 13.8983C68.5322 13.8685 68.4851 13.8278 68.4485 13.778C68.4119 13.7281 68.3866 13.6704 68.3745 13.6097C67.5846 10.5296 66.8333 7.39163 66.2361 4.75432C66.2169 4.66666 66.2226 4.57574 66.2525 4.49113C66.2825 4.40653 66.3355 4.33195 66.4056 4.27588C66.4758 4.21982 66.5602 4.18407 66.6494 4.17343C66.7386 4.16278 66.8289 4.17775 66.9103 4.21573C74.7838 7.7475 81.5494 13.3497 86.4845 20.4244C92.0427 28.3559 95.0164 37.808 94.9999 47.4906C94.9985 50.5335 94.7082 53.5693 94.1329 56.5575C93.5084 59.7388 92.5594 62.8476 91.3009 65.8358C90.107 68.6849 88.6289 71.4069 86.889 73.9599C84.644 77.2759 81.9901 80.2961 78.99 82.9497C76.5534 85.138 73.9003 87.073 71.0718 88.7248C63.9 92.8343 55.777 94.9974 47.5096 95M23.5815 15.9389C18.7458 19.5731 14.7943 24.2517 12.022 29.6257C9.18096 35.1792 7.70807 41.3308 7.72575 47.5677C7.58733 53.5804 8.94437 59.5334 11.6752 64.893C11.7648 65.0425 11.9004 65.1586 12.0617 65.2249C12.223 65.2911 12.4014 65.3038 12.5703 65.2606C12.7392 65.2173 12.8897 65.1208 12.9992 64.9852C13.1087 64.8495 13.1714 64.6818 13.178 64.5077C13.1932 58.7981 14.9249 53.2247 18.1485 48.5105C21.2458 43.8938 25.578 40.2387 30.652 37.9613C30.7485 37.9213 30.8362 37.8624 30.9099 37.7883C30.9835 37.7143 31.0418 37.6265 31.0812 37.5298C31.1206 37.4331 31.1404 37.3297 31.1395 37.2253C31.1386 37.1209 31.117 37.0177 31.0759 36.9217C28.3527 30.2896 26.2251 23.4289 24.7182 16.4202C24.6954 16.2869 24.6377 16.1623 24.5512 16.0583C24.4648 15.9543 24.3524 15.8748 24.2255 15.828C24.0986 15.7812 23.9617 15.7685 23.8283 15.7913C23.695 15.8142 23.5699 15.8722 23.4659 15.9587L23.5815 15.9389Z" fill="#E4E4E4"/>
</svg>
