<svg width="95" height="127" viewBox="0 0 95 127" fill="none" xmlns="http://www.w3.org/2000/svg">
<path d="M21.6154 121.723C20.8263 121.723 20.1426 121.584 19.5643 121.305C18.9914 121.021 18.5698 120.601 18.2995 120.044C18.0293 119.487 17.9617 118.796 18.0969 117.971C18.2158 117.272 18.4401 116.688 18.7698 116.218C19.1049 115.743 19.5129 115.361 19.994 115.071C20.475 114.782 21.0074 114.561 21.5911 114.408C22.1803 114.255 22.7883 114.151 23.4153 114.096C24.1395 114.02 24.7287 113.946 25.1827 113.875C25.6421 113.804 25.9853 113.703 26.2123 113.572C26.4393 113.435 26.5771 113.233 26.6258 112.966V112.917C26.7069 112.403 26.6123 112.005 26.342 111.721C26.0772 111.431 25.6529 111.286 25.0692 111.286C24.453 111.286 23.9287 111.423 23.4964 111.696C23.0694 111.969 22.764 112.316 22.5802 112.736L19.4346 112.474C19.7156 111.71 20.1399 111.049 20.7074 110.492C21.2803 109.929 21.9695 109.498 22.7748 109.197C23.5801 108.891 24.4827 108.739 25.4827 108.739C26.1745 108.739 26.8204 108.82 27.4203 108.984C28.0257 109.148 28.5472 109.402 28.985 109.746C29.4282 110.09 29.7471 110.533 29.9417 111.073C30.1417 111.609 30.1822 112.25 30.0633 112.999L28.6607 121.486H25.3854L25.6772 119.741H25.5799C25.3151 120.134 24.9908 120.481 24.6071 120.781C24.2233 121.076 23.7828 121.308 23.2856 121.477C22.7883 121.641 22.2316 121.723 21.6154 121.723ZM23.0018 119.315C23.5045 119.315 23.9666 119.214 24.3882 119.012C24.8152 118.804 25.1665 118.526 25.4421 118.176C25.7232 117.826 25.9015 117.431 25.9772 116.988L26.188 115.653C26.0799 115.724 25.9232 115.787 25.7178 115.841C25.5178 115.896 25.2989 115.948 25.0611 115.997C24.8287 116.041 24.5936 116.082 24.3557 116.12C24.1179 116.153 23.9044 116.185 23.7153 116.218C23.2991 116.278 22.9261 116.374 22.5964 116.505C22.2667 116.636 21.9992 116.813 21.7938 117.037C21.5884 117.256 21.4614 117.529 21.4128 117.856C21.3371 118.332 21.4479 118.695 21.7452 118.946C22.0478 119.192 22.4667 119.315 23.0018 119.315Z" fill="white"/>
<path d="M37.5505 104.708L34.794 121.486H31.3402L34.0967 104.708H37.5505Z" fill="white"/>
<path d="M38.9307 126.204C38.4875 126.204 38.0822 126.169 37.7146 126.098C37.3471 126.032 37.0444 125.948 36.8066 125.844L38.0227 123.239C38.4065 123.364 38.7551 123.43 39.0686 123.435C39.3874 123.441 39.6793 123.359 39.9441 123.19C40.209 123.02 40.4522 122.742 40.6738 122.354L40.9819 121.822L38.647 108.902H42.1493L43.2033 118.16H43.333L47.4597 108.902H51.2458L44.1194 122.846C43.7681 123.528 43.3519 124.121 42.8709 124.623C42.3953 125.126 41.8305 125.513 41.1765 125.787C40.5279 126.065 39.7793 126.204 38.9307 126.204Z" fill="white"/>
<path d="M59.8072 116.128L60.9989 108.902H64.4527L62.3772 121.486H59.0613L59.4342 119.2H59.3045C58.9208 119.937 58.3614 120.53 57.6263 120.978C56.8912 121.426 56.0562 121.649 55.1211 121.649C54.2888 121.649 53.5861 121.458 53.0132 121.076C52.4457 120.694 52.043 120.15 51.8052 119.446C51.5674 118.741 51.5269 117.897 51.6836 116.914L53.0132 108.902H56.4669L55.2508 116.292C55.1373 117.035 55.24 117.622 55.5589 118.053C55.8778 118.485 56.3642 118.7 57.0182 118.7C57.4344 118.7 57.8371 118.605 58.2262 118.414C58.6208 118.217 58.9613 117.927 59.2478 117.545C59.5342 117.163 59.7207 116.69 59.8072 116.128Z" fill="white"/>
<path d="M76.9684 112.491L73.8309 112.687C73.8146 112.409 73.739 112.16 73.6039 111.942C73.4741 111.718 73.2823 111.54 73.0282 111.409C72.7796 111.278 72.4661 111.213 72.0878 111.213C71.5203 111.213 71.0149 111.344 70.5717 111.606C70.1285 111.868 69.8772 112.204 69.8177 112.613C69.7691 112.876 69.8366 113.097 70.0204 113.277C70.2042 113.457 70.5744 113.61 71.1311 113.736L73.3201 114.195C74.4876 114.446 75.3307 114.864 75.8496 115.448C76.3739 116.032 76.5603 116.797 76.409 117.742C76.2739 118.545 75.9253 119.246 75.3631 119.847C74.801 120.443 74.0876 120.907 73.2228 121.24C72.358 121.568 71.3987 121.731 70.3447 121.731C68.653 121.731 67.3666 121.382 66.4856 120.683C65.6046 119.984 65.1803 119.036 65.2127 117.84L68.5854 117.66C68.6124 118.173 68.7908 118.561 69.1205 118.823C69.4502 119.08 69.9015 119.211 70.4744 119.216C71.1176 119.227 71.6635 119.094 72.1121 118.815C72.5661 118.531 72.8228 118.187 72.8823 117.783C72.9255 117.499 72.8445 117.269 72.6391 117.095C72.4391 116.92 72.0716 116.775 71.5365 116.66L69.461 116.226C68.2827 115.98 67.4369 115.541 66.9234 114.907C66.4099 114.274 66.2343 113.468 66.3964 112.491C66.5261 111.71 66.8477 111.041 67.3612 110.484C67.8801 109.921 68.5476 109.49 69.3637 109.189C70.1852 108.889 71.1122 108.739 72.1445 108.739C73.7606 108.739 74.9767 109.074 75.7928 109.746C76.6144 110.418 77.0062 111.333 76.9684 112.491Z" fill="white"/>
<path d="M47.4519 94.8656C43.4081 94.8647 39.3809 94.3476 35.4685 93.3259C34.9483 93.1912 34.4281 93.0565 33.9079 92.8832C24.2407 89.9571 15.7452 84.0548 9.63305 76.0194C3.36146 67.8091 -0.0244665 57.7608 0.0001331 47.4323C-0.00115524 39.1821 2.15029 31.0747 6.24224 23.9089C10.2355 16.9796 15.8976 11.156 22.7145 6.96793C25.0314 5.54571 27.4682 4.32899 29.997 3.33028C30.0666 3.30311 30.1415 3.29254 30.2159 3.29926C30.2902 3.30599 30.362 3.32961 30.4255 3.36882C30.4891 3.40803 30.5426 3.46142 30.5819 3.52485C30.6212 3.58829 30.6452 3.66017 30.652 3.73447C30.941 6.37177 31.3457 9.0478 31.8273 11.6659C33.3086 19.6476 35.6535 27.4441 38.8208 34.9196C40.1502 38.0381 41.6528 41.1766 43.2904 44.2374C48.4335 53.8064 54.9213 62.5899 62.5562 70.3213L62.9994 70.7452C63.0557 70.7903 63.1011 70.8476 63.1323 70.9126C63.1635 70.9775 63.1797 71.0482 63.1797 71.1203C63.1797 71.1924 63.1635 71.264 63.1323 71.329C63.1011 71.3939 63.0557 71.4502 62.9994 71.4953C62.5948 71.7648 62.1709 72.0158 61.7471 72.2661C60.0466 73.2346 58.2522 74.0279 56.3913 74.6339C56.3034 74.6592 56.2103 74.6595 56.122 74.6357C56.0337 74.612 55.9536 74.5645 55.8903 74.4985C47.5662 65.8262 40.5797 55.9653 35.1603 45.2385C35.0653 45.0573 34.9052 44.9191 34.7121 44.8512C34.5191 44.7833 34.3075 44.791 34.12 44.8728C30.2666 46.5754 26.9904 49.3587 24.6889 52.885C22.3875 56.4114 21.1594 60.529 21.154 64.7389C21.1401 69.409 22.6482 73.9566 25.4503 77.6944C28.1955 81.3315 32.0071 84.0231 36.3547 85.3945L37.5492 85.7216C46.3025 88.0105 55.5762 87.2358 63.8278 83.5268L64.9645 83.007C66.6185 82.2003 68.215 81.2811 69.7425 80.2548C70.6287 79.6581 71.5148 79.0036 72.4396 78.3298C75.6628 75.756 78.4588 72.689 80.724 69.2432C80.8361 69.0796 80.8824 68.8801 80.8538 68.6839C80.8253 68.4877 80.7239 68.3097 80.5698 68.1848C78.2194 66.2598 75.9075 64.2194 73.7305 62.0826C65.9763 54.5244 59.5079 45.7525 54.5803 36.1133C50.1303 27.442 46.9942 18.1581 45.2748 8.56587C44.8125 5.98631 44.4464 3.31073 44.1767 0.615675C44.1713 0.486055 44.2165 0.359211 44.3027 0.262249C44.389 0.165287 44.5096 0.105744 44.639 0.095876C45.6601 0.095876 46.5657 0 47.606 0C48.9161 0 50.2262 0.000150397 51.5748 0.154154C51.6859 0.167271 51.789 0.218113 51.8663 0.298908C51.9436 0.379702 51.9904 0.48537 51.9986 0.596875C52.3068 3.52294 52.75 6.37155 53.3279 9.27836C57.442 29.3691 68.1805 47.5009 83.8258 60.7732C83.9243 60.8552 84.041 60.9124 84.1661 60.9405C84.2912 60.9686 84.4212 60.9668 84.5454 60.9349C84.6696 60.9029 84.7844 60.8422 84.8803 60.7572C84.9763 60.6722 85.0506 60.5654 85.0973 60.4461C86.312 56.9183 87.0254 53.2374 87.2166 49.5115C87.2166 48.7608 87.2166 48.1066 87.2166 47.4906C87.2213 40.579 85.4074 33.7877 81.9569 27.7975C78.7014 22.1442 74.1111 17.3722 68.5864 13.8983C68.5322 13.8685 68.4851 13.8278 68.4485 13.778C68.4119 13.7281 68.3866 13.6704 68.3745 13.6097C67.5846 10.5296 66.8333 7.39163 66.2361 4.75432C66.2169 4.66666 66.2226 4.57574 66.2525 4.49113C66.2825 4.40653 66.3355 4.33195 66.4056 4.27588C66.4758 4.21982 66.5602 4.18407 66.6494 4.17343C66.7386 4.16278 66.8289 4.17775 66.9103 4.21573C74.7838 7.7475 81.5494 13.3497 86.4845 20.4244C92.0427 28.3559 95.0164 37.808 94.9999 47.4906C94.9985 50.5335 94.7082 53.5693 94.1329 56.5575C93.5084 59.7388 92.5594 62.8476 91.3009 65.8358C90.107 68.6849 88.6289 71.4069 86.889 73.9599C84.644 77.2759 81.9901 80.2961 78.99 82.9497C76.5534 85.138 73.9003 87.073 71.0718 88.7248C63.9 92.8343 55.777 94.9974 47.5096 95M23.5815 15.9389C18.7458 19.5731 14.7943 24.2517 12.022 29.6257C9.18096 35.1792 7.70807 41.3308 7.72575 47.5677C7.58733 53.5804 8.94437 59.5334 11.6752 64.893C11.7648 65.0425 11.9004 65.1586 12.0617 65.2249C12.223 65.2911 12.4014 65.3038 12.5703 65.2606C12.7392 65.2173 12.8897 65.1208 12.9992 64.9852C13.1087 64.8495 13.1714 64.6818 13.178 64.5077C13.1932 58.7981 14.9249 53.2247 18.1485 48.5105C21.2458 43.8938 25.578 40.2387 30.652 37.9613C30.7485 37.9213 30.8362 37.8624 30.9099 37.7883C30.9835 37.7143 31.0418 37.6265 31.0812 37.5298C31.1206 37.4331 31.1404 37.3297 31.1395 37.2253C31.1386 37.1209 31.117 37.0177 31.0759 36.9217C28.3527 30.2896 26.2251 23.4289 24.7182 16.4202C24.6954 16.2869 24.6377 16.1623 24.5512 16.0583C24.4648 15.9543 24.3524 15.8748 24.2255 15.828C24.0986 15.7812 23.9617 15.7685 23.8283 15.7913C23.695 15.8142 23.5699 15.8722 23.4659 15.9587L23.5815 15.9389Z" fill="#E4E4E4"/>
</svg>
