<svg width="909" height="705" viewBox="0 0 909 705" fill="none" xmlns="http://www.w3.org/2000/svg">
<path d="M97.93 434.84C93.7575 433.224 89.4222 432.063 85 431.38C80.5529 430.697 76.0592 430.363 71.56 430.38C64.3121 430.271 57.1088 431.533 50.33 434.1C44.2789 436.436 38.8163 440.076 34.33 444.76C29.8376 449.591 26.4283 455.326 24.33 461.58C19.7035 475.923 19.7035 491.357 24.33 505.7C26.4557 511.926 29.8815 517.629 34.38 522.43C38.8636 527.118 44.3269 530.758 50.38 533.09C57.1568 535.666 64.361 536.931 71.61 536.82C76.109 536.832 80.6023 536.498 85.05 535.82C89.4658 535.132 93.7943 533.969 97.96 532.35L99.35 538.59C95.1567 540.348 90.7588 541.571 86.26 542.23C81.2437 543.038 76.1708 543.442 71.09 543.44C62.7322 543.585 54.4277 542.083 46.65 539.02C39.7704 536.275 33.5629 532.08 28.45 526.72C23.3753 521.29 19.5042 514.849 17.09 507.82C14.4185 500.042 13.0995 491.864 13.19 483.64C13.0937 475.442 14.4131 467.289 17.09 459.54C19.5326 452.524 23.4004 446.089 28.45 440.64C33.5476 435.241 39.7575 431.013 46.65 428.25C54.4277 425.187 62.7322 423.686 71.09 423.83C76.1595 423.821 81.2219 424.213 86.23 425C90.7278 425.664 95.1251 426.887 99.32 428.64L97.93 434.84Z" fill="white"/>
<path d="M232.11 541.28H224.48L212.35 510.08H155L143 541.28H135.38L181 425.83H186.55L232.11 541.28ZM157.56 503.49H209.92L183.74 435.54L157.56 503.49Z" fill="white"/>
<path d="M340.63 456.51C340.63 464.83 337.857 471.737 332.31 477.23C326.763 482.723 319.43 486.623 310.31 488.93L352.61 541.28H343.61L302.7 490.49C299.419 490.847 296.12 491.021 292.82 491.01H282.82V541.28H275.1V425.83H300.58C305.642 425.814 310.684 426.456 315.58 427.74C320.145 428.91 324.48 430.844 328.4 433.46C332.072 435.906 335.128 439.167 337.33 442.99C339.61 447.124 340.749 451.79 340.63 456.51ZM333 457C333.115 453.05 332.125 449.147 330.14 445.73C328.27 442.652 325.717 440.045 322.68 438.11C319.459 436.078 315.915 434.61 312.2 433.77C308.22 432.845 304.146 432.381 300.06 432.39H282.73V484.39H293.47C298.701 484.442 303.918 483.841 309 482.6C313.449 481.534 317.695 479.751 321.57 477.32C325.006 475.153 327.886 472.211 329.98 468.73C332.041 465.17 333.086 461.113 333 457Z" fill="white"/>
<path d="M462.84 509.39C462.868 513.703 461.837 517.957 459.84 521.78C457.758 525.725 454.86 529.181 451.34 531.92C447.395 534.973 442.935 537.293 438.17 538.77C432.645 540.503 426.88 541.35 421.09 541.28H393.33V425.83H422.62C427.684 425.768 432.733 426.411 437.62 427.74C441.707 428.828 445.562 430.647 449 433.11C452.037 435.32 454.528 438.197 456.28 441.52C458.041 444.916 458.934 448.695 458.88 452.52C458.947 455.902 458.321 459.261 457.039 462.391C455.758 465.522 453.849 468.356 451.43 470.72C446.193 475.841 439.658 479.436 432.53 481.12C436.461 481.586 440.315 482.554 444 484C447.531 485.35 450.81 487.284 453.7 489.72C456.468 492.079 458.739 494.965 460.38 498.21C462.073 501.689 462.917 505.521 462.84 509.39ZM451.23 453.22C451.271 450.173 450.556 447.163 449.15 444.46C447.731 441.831 445.709 439.576 443.25 437.88C440.534 436.01 437.512 434.629 434.32 433.8C430.624 432.845 426.817 432.381 423 432.42H400.61V478.18H417.08C421.676 478.217 426.255 477.605 430.68 476.36C434.55 475.32 438.216 473.629 441.52 471.36C444.439 469.32 446.868 466.655 448.63 463.56C450.389 460.401 451.286 456.835 451.23 453.22ZM455.23 509.22C455.324 505.401 454.302 501.637 452.29 498.39C450.249 495.262 447.511 492.65 444.29 490.76C440.687 488.643 436.767 487.12 432.68 486.25C428.181 485.259 423.587 484.766 418.98 484.78H400.61V534.7H421.76C426.357 534.748 430.937 534.135 435.36 532.88C439.174 531.807 442.76 530.044 445.94 527.68C448.795 525.533 451.136 522.776 452.79 519.61C454.426 516.39 455.257 512.821 455.21 509.21L455.23 509.22Z" fill="white"/>
<path d="M609.85 483.56C609.874 491.248 608.645 498.888 606.21 506.18C603.916 513.163 600.296 519.638 595.55 525.25C590.824 530.769 585.009 535.253 578.47 538.42C571.28 541.676 563.478 543.36 555.585 543.36C547.692 543.36 539.89 541.676 532.7 538.42C526.162 535.255 520.35 530.771 515.63 525.25C510.891 519.638 507.281 513.162 505 506.18C500.146 491.487 500.146 475.623 505 460.93C507.293 453.947 510.912 447.471 515.66 441.86C520.383 436.342 526.194 431.858 532.73 428.69C539.92 425.434 547.722 423.75 555.615 423.75C563.508 423.75 571.31 425.434 578.5 428.69C585.037 431.861 590.851 436.344 595.58 441.86C600.324 447.474 603.943 453.948 606.24 460.93C608.664 468.227 609.883 475.871 609.85 483.56ZM602.22 483.56C602.265 476.578 601.178 469.634 599 463C596.995 456.836 593.85 451.104 589.73 446.1C585.69 441.261 580.67 437.335 575 434.58C568.909 431.786 562.286 430.34 555.585 430.34C548.884 430.34 542.261 431.786 536.17 434.58C530.497 437.334 525.476 441.265 521.44 446.11C517.313 451.111 514.165 456.844 512.16 463.01C507.88 476.372 507.88 490.738 512.16 504.1C514.162 510.267 517.311 516.001 521.44 521C525.471 525.851 530.493 529.782 536.17 532.53C542.259 535.33 548.883 536.78 555.585 536.78C562.287 536.78 568.911 535.33 575 532.53C580.678 529.78 585.704 525.849 589.74 521C593.859 515.997 597 510.264 599 504.1C601.177 497.473 602.264 490.536 602.22 483.56Z" fill="white"/>
<path d="M734.49 541.28L662.2 437.62V541.28H654.92V425.83H662.2L734.49 529.32V425.83H741.77V541.28H734.49Z" fill="white"/>
<path d="M895.36 483.56C895.389 491.248 894.16 498.889 891.72 506.18C889.429 513.165 885.81 519.64 881.06 525.25C876.343 530.77 870.534 535.254 864 538.42C856.81 541.676 849.008 543.36 841.115 543.36C833.222 543.36 825.42 541.676 818.23 538.42C811.689 535.255 805.874 530.771 801.15 525.25C796.404 519.638 792.784 513.163 790.49 506.18C785.636 491.487 785.636 475.623 790.49 460.93C792.787 453.948 796.406 447.474 801.15 441.86C805.876 436.342 811.691 431.858 818.23 428.69C825.42 425.434 833.222 423.75 841.115 423.75C849.008 423.75 856.81 425.434 864 428.69C870.536 431.858 876.347 436.342 881.07 441.86C885.817 447.471 889.437 453.947 891.73 460.93C894.165 468.225 895.392 475.869 895.36 483.56ZM887.74 483.56C887.788 476.578 886.704 469.635 884.53 463C882.525 456.834 879.377 451.101 875.25 446.1C871.214 441.255 866.193 437.324 860.52 434.57C854.429 431.776 847.806 430.33 841.105 430.33C834.403 430.33 827.781 431.776 821.69 434.57C816.033 437.336 811.026 441.269 807 446.11C802.876 451.111 799.731 456.845 797.73 463.01C793.45 476.372 793.45 490.738 797.73 504.1C799.729 510.267 802.874 516 807 521C811.036 525.849 816.062 529.78 821.74 532.53C827.829 535.33 834.452 536.78 841.155 536.78C847.857 536.78 854.48 535.33 860.57 532.53C866.229 529.776 871.234 525.845 875.25 521C879.379 516.001 882.527 510.267 884.53 504.1C886.703 497.472 887.787 490.535 887.74 483.56Z" fill="white"/>
<path d="M211.71 678.34C209.94 684.34 205.21 687.96 197.71 687.96C188 687.96 180.57 680.7 180.57 670.06C180.57 659.42 188.33 651.48 198.47 651.48C205.56 651.48 210.21 654.6 210.21 658.07C210.24 658.434 210.195 658.799 210.077 659.145C209.96 659.49 209.772 659.807 209.526 660.077C209.28 660.346 208.981 660.562 208.648 660.71C208.315 660.859 207.955 660.937 207.59 660.94C205.4 660.94 204.72 659.5 204.21 657.31C203.62 654.86 202.52 653.5 198.55 653.5C191.21 653.5 187.41 658.66 187.41 668.62C187.41 675.21 189.01 685.77 199.48 685.77C207.42 685.77 209.37 680.02 209.87 678.34H211.71Z" fill="white"/>
<path d="M264.32 651.48C266.72 651.436 269.104 651.879 271.328 652.782C273.552 653.685 275.57 655.029 277.26 656.734C278.95 658.439 280.277 660.469 281.16 662.701C282.043 664.933 282.465 667.32 282.4 669.72C282.4 681.72 273.4 687.96 264.32 687.96C255.79 687.96 246.32 682.14 246.32 669.64C246.262 667.253 246.686 664.879 247.568 662.659C248.45 660.44 249.771 658.422 251.452 656.726C253.133 655.031 255.14 653.692 257.351 652.79C259.562 651.889 261.932 651.443 264.32 651.48ZM264.32 685.94C274.37 685.94 275.56 677.07 275.56 669.94C275.56 660.82 273.36 653.47 264.32 653.47C255.46 653.47 253.18 660.65 253.18 669.86C253.18 676.73 254.19 685.94 264.32 685.94Z" fill="white"/>
<path d="M328.09 675C328.09 684.46 328.09 684.71 334.09 684.71V686.57H316V684.71H317.1C322.1 684.71 322.17 683.79 322.17 675V641.6C322.17 635.35 322.08 633.49 316.51 633.49V631.63C320.243 631.57 323.947 630.974 327.51 629.86H328.1L328.09 675Z" fill="white"/>
<path d="M375 664.32C374.91 665.5 374.83 666.85 374.83 668.32C374.83 672.63 375 685.81 385.89 685.81C388.152 685.89 390.385 685.282 392.293 684.066C394.202 682.85 395.697 681.084 396.58 679H398.52C398.27 680.18 394.98 688 384.76 688C377.32 688 367.95 682.35 367.95 670C367.95 659.53 374.87 651.51 384.42 651.51C393.2 651.51 398.27 658.01 398.52 664.35L375 664.32ZM391.3 662.63C391.409 662.073 391.466 661.507 391.47 660.94C391.47 655.36 387.47 653.34 384.12 653.34C376.6 653.34 375.51 660.43 375.17 662.63H391.3Z" fill="white"/>
<path d="M465.49 678.34C463.72 684.34 458.99 687.96 451.49 687.96C441.77 687.96 434.34 680.7 434.34 670.06C434.34 659.42 442.11 651.48 452.24 651.48C459.34 651.48 463.99 654.6 463.99 658.07C464.02 658.434 463.975 658.799 463.858 659.145C463.74 659.49 463.552 659.807 463.306 660.077C463.06 660.346 462.761 660.562 462.428 660.71C462.095 660.859 461.735 660.937 461.37 660.94C459.17 660.94 458.49 659.5 457.99 657.31C457.4 654.86 456.3 653.5 452.33 653.5C444.98 653.5 441.18 658.66 441.18 668.62C441.18 675.21 442.79 685.77 453.26 685.77C461.2 685.77 463.14 680.02 463.65 678.34H465.49Z" fill="white"/>
<path d="M531.12 678.34C529.34 684.34 524.61 687.96 517.12 687.96C507.4 687.96 499.97 680.7 499.97 670.06C499.97 659.42 507.74 651.48 517.88 651.48C524.97 651.48 529.62 654.6 529.62 658.07C529.65 658.434 529.605 658.799 529.488 659.145C529.37 659.49 529.182 659.807 528.936 660.077C528.69 660.346 528.391 660.562 528.058 660.71C527.725 660.859 527.365 660.937 527 660.94C524.8 660.94 524.13 659.5 523.62 657.31C523.03 654.86 521.93 653.5 517.96 653.5C510.61 653.5 506.81 658.66 506.81 668.62C506.81 675.21 508.42 685.77 518.89 685.77C526.83 685.77 528.77 680.02 529.28 678.34H531.12Z" fill="white"/>
<path d="M577.23 675C577.23 682.35 576.64 684.71 581.87 684.71H583.14V686.57H564.9V684.71H566.33C570.13 684.71 571.33 684.21 571.33 678.3V664.82C571.33 655.53 570.83 655.53 564.92 655.53V653.67C568.806 653.298 572.65 652.565 576.4 651.48H577.25L577.23 675ZM573.43 629.82C574.594 629.82 575.711 630.282 576.534 631.106C577.357 631.929 577.82 633.046 577.82 634.21C577.82 635.374 577.357 636.491 576.534 637.314C575.711 638.137 574.594 638.6 573.43 638.6C572.28 638.576 571.186 638.104 570.38 637.283C569.575 636.463 569.122 635.36 569.12 634.21C569.117 633.062 569.569 631.96 570.377 631.145C571.185 630.33 572.282 629.868 573.43 629.86V629.82Z" fill="white"/>
<path d="M634.4 651.48C636.8 651.436 639.184 651.879 641.408 652.782C643.632 653.685 645.65 655.029 647.34 656.734C649.03 658.439 650.357 660.469 651.24 662.701C652.123 664.933 652.545 667.32 652.48 669.72C652.48 681.72 643.48 687.96 634.4 687.96C625.87 687.96 616.4 682.14 616.4 669.64C616.342 667.253 616.766 664.879 617.648 662.659C618.53 660.44 619.851 658.422 621.532 656.726C623.213 655.03 625.22 653.692 627.431 652.79C629.642 651.889 632.012 651.443 634.4 651.48ZM634.4 685.94C644.45 685.94 645.64 677.07 645.64 669.94C645.64 660.82 643.44 653.47 634.4 653.47C625.53 653.47 623.25 660.65 623.25 669.86C623.25 676.73 624.27 685.94 634.4 685.94ZM628.15 646.75L632.88 638.64C634.99 635.09 636.18 633.74 638.12 633.74C638.791 633.721 639.443 633.968 639.934 634.426C640.424 634.885 640.714 635.519 640.74 636.19C640.74 637.54 639.56 638.64 637.87 640.08L629.76 646.75H628.15Z" fill="white"/>
<path d="M697.74 651.48C698.385 653.761 698.754 656.111 698.84 658.48C703.15 653.75 706.95 651.48 711.84 651.48C719.61 651.48 722.4 656.88 722.4 662.54V675C722.4 684.21 722.4 684.71 727.97 684.71V686.57H710.67V684.71C716.49 684.71 716.49 684.21 716.49 675V664.15C716.49 656.46 713.79 654.01 709.65 654.01C704.84 654.01 701.71 658.07 698.84 661.27V675C698.84 684.12 698.84 684.71 704.42 684.71V686.57H687.36V684.71C692.93 684.71 692.93 684.21 692.93 675V665C692.93 655.79 692.93 655.29 687.36 655.29V653.43C690.503 653.031 693.61 652.382 696.65 651.49L697.74 651.48Z" fill="white"/>
<path d="M392.23 284.51H384.15C383.725 284.55 383.301 284.431 382.959 284.176C382.617 283.921 382.382 283.549 382.3 283.13L380.57 277.28H364.44L362.71 283.13C362.63 283.548 362.397 283.92 362.057 284.176C361.716 284.431 361.293 284.55 360.87 284.51H352.78C351.6 284.51 351.01 283.85 351.4 282.67L365.34 239.87C365.448 239.454 365.698 239.089 366.047 238.837C366.395 238.585 366.821 238.462 367.25 238.49H377.77C378.198 238.463 378.622 238.586 378.969 238.838C379.316 239.09 379.564 239.455 379.67 239.87L393.61 282.67C394 283.85 393.42 284.51 392.23 284.51ZM377.66 267.42L372.51 250L367.36 267.43L377.66 267.42Z" fill="white"/>
<path d="M431 276V282.84C431.024 283.062 430.998 283.287 430.923 283.497C430.848 283.708 430.727 283.899 430.569 284.056C430.411 284.214 430.219 284.334 430.008 284.407C429.797 284.48 429.572 284.505 429.35 284.48H406.35C406.129 284.504 405.905 284.478 405.695 284.403C405.486 284.329 405.295 284.209 405.138 284.052C404.981 283.895 404.861 283.704 404.787 283.495C404.713 283.285 404.686 283.061 404.71 282.84V240.13C404.686 239.909 404.713 239.685 404.787 239.475C404.861 239.266 404.981 239.075 405.138 238.918C405.295 238.761 405.486 238.641 405.695 238.567C405.905 238.493 406.129 238.466 406.35 238.49H413.58C413.802 238.465 414.027 238.49 414.238 238.563C414.449 238.636 414.641 238.756 414.799 238.914C414.957 239.071 415.078 239.262 415.153 239.473C415.228 239.683 415.254 239.908 415.23 240.13V274.39H429.36C429.578 274.367 429.799 274.393 430.006 274.465C430.214 274.537 430.403 274.655 430.559 274.809C430.716 274.962 430.837 275.149 430.913 275.355C430.989 275.561 431.019 275.781 431 276Z" fill="white"/>
<path d="M471.33 240.46L457.66 264.36V282.87C457.684 283.092 457.658 283.317 457.583 283.527C457.508 283.738 457.387 283.929 457.229 284.086C457.07 284.244 456.879 284.364 456.668 284.437C456.457 284.51 456.232 284.535 456.01 284.51H448.78C448.559 284.534 448.335 284.508 448.125 284.433C447.916 284.359 447.725 284.239 447.568 284.082C447.411 283.925 447.291 283.734 447.216 283.525C447.142 283.315 447.116 283.091 447.14 282.87V264.36L433.46 240.46C432.8 239.27 433.33 238.46 434.58 238.46H443C443.4 238.435 443.798 238.535 444.138 238.747C444.479 238.958 444.745 239.27 444.9 239.64L452.4 254L459.89 239.65C460.054 239.285 460.323 238.977 460.664 238.767C461.004 238.556 461.4 238.453 461.8 238.47H470.22C471.47 238.49 472 239.27 471.33 240.46Z" fill="white"/>
<path d="M481.66 270.31V240.13C481.636 239.909 481.662 239.685 481.737 239.475C481.811 239.266 481.931 239.075 482.088 238.918C482.245 238.761 482.436 238.641 482.645 238.567C482.855 238.493 483.079 238.466 483.3 238.49H490.54C490.761 238.466 490.985 238.493 491.194 238.567C491.404 238.641 491.595 238.761 491.752 238.918C491.909 239.075 492.029 239.266 492.103 239.475C492.177 239.685 492.204 239.909 492.18 240.13V269.39C492.18 272.87 493.82 275.18 498.75 275.18C503.68 275.18 505.33 272.87 505.33 269.39V240.13C505.306 239.909 505.332 239.685 505.406 239.475C505.481 239.266 505.601 239.075 505.758 238.918C505.915 238.761 506.106 238.641 506.315 238.567C506.525 238.493 506.749 238.466 506.97 238.49H514.21C514.431 238.466 514.655 238.493 514.864 238.567C515.074 238.641 515.265 238.761 515.422 238.918C515.579 239.075 515.699 239.266 515.773 239.475C515.847 239.685 515.874 239.909 515.85 240.13V270.31C515.85 280.17 508.22 285.43 498.75 285.43C489.28 285.43 481.66 280.17 481.66 270.31Z" fill="white"/>
<path d="M526 271.76C525.963 271.533 525.978 271.301 526.047 271.081C526.115 270.861 526.233 270.661 526.392 270.495C526.551 270.329 526.747 270.202 526.963 270.125C527.18 270.048 527.412 270.022 527.64 270.05H534.88C535.88 270.05 536.39 270.57 536.59 271.62C537.11 273.99 539.08 275.18 542.96 275.18C547.24 275.18 548.62 273.53 548.62 271.62C548.62 268.93 545.33 267.74 541.32 266.36C534.81 264.13 526.59 261.43 526.59 251.36C526.59 242.16 534.09 237.56 541.91 237.56C549.73 237.56 556.97 241.7 557.76 251.23C557.797 251.457 557.781 251.689 557.713 251.909C557.645 252.129 557.527 252.329 557.368 252.495C557.209 252.661 557.013 252.788 556.796 252.865C556.58 252.942 556.348 252.968 556.12 252.94H548.88C547.88 252.94 547.37 252.41 547.17 251.36C546.65 248.93 544.94 247.81 541.91 247.81C538.62 247.81 537.11 249.46 537.11 251.36C537.11 254.12 539.81 255.44 543.62 256.82C550.2 259.12 559.14 261.49 559.14 271.61C559.14 280.82 551.78 285.42 542.96 285.42C534.35 285.43 526.79 281.29 526 271.76Z" fill="white"/>
<path d="M454.26 219.62C445.331 219.622 436.439 218.483 427.8 216.23C426.64 215.93 425.51 215.6 424.35 215.23C402.954 208.775 384.15 195.715 370.63 177.92C358.242 161.565 350.934 141.93 349.613 121.456C348.292 100.982 353.017 80.5712 363.2 62.76C375.031 42.0895 393.526 26.0449 415.66 17.25C415.811 17.1907 415.974 17.1671 416.137 17.1809C416.299 17.1947 416.455 17.2457 416.595 17.3298C416.734 17.4139 416.852 17.5289 416.939 17.666C417.027 17.803 417.082 17.9584 417.1 18.12C417.77 23.98 418.64 29.87 419.72 35.68C422.997 53.3268 428.173 70.5672 435.16 87.1C438.08 93.99 441.4 100.92 445.03 107.69C456.379 128.84 470.698 148.257 487.55 165.35L488.5 166.35C488.613 166.462 488.7 166.599 488.753 166.749C488.807 166.899 488.825 167.06 488.808 167.218C488.791 167.377 488.738 167.53 488.653 167.665C488.569 167.8 488.455 167.915 488.32 168C487.41 168.59 486.48 169.16 485.54 169.69C481.787 171.838 477.823 173.594 473.71 174.93C473.519 174.989 473.315 174.994 473.121 174.945C472.927 174.895 472.75 174.793 472.61 174.65C454.223 155.477 438.79 133.675 426.82 109.96C426.615 109.552 426.261 109.238 425.831 109.083C425.401 108.929 424.928 108.945 424.51 109.13C416.008 112.894 408.779 119.04 403.696 126.826C398.613 134.611 395.895 143.702 395.87 153C395.847 163.329 399.185 173.385 405.38 181.65C411.428 189.734 419.845 195.732 429.46 198.81C430.33 199.08 431.21 199.33 432.09 199.55C451.43 204.611 471.92 202.896 490.15 194.69L492.67 193.55L492.5 193.4C496.134 191.63 499.643 189.612 503 187.36L503.13 187.49C505.13 186.16 507.05 184.72 509.13 183.07C516.234 177.364 522.414 170.594 527.45 163C527.691 162.631 527.787 162.187 527.721 161.751C527.654 161.316 527.43 160.92 527.09 160.64C521.88 156.41 516.79 151.87 511.97 147.16C494.848 130.453 480.555 111.073 469.65 89.78C459.832 70.5956 452.911 50.0628 449.11 28.85C448.11 23.14 447.28 17.25 446.71 11.29C446.696 11.1471 446.711 11.0028 446.755 10.8658C446.798 10.7289 446.868 10.602 446.962 10.4928C447.055 10.3837 447.169 10.2944 447.298 10.2303C447.426 10.1663 447.567 10.1288 447.71 10.12C449.98 9.97002 452.15 9.90002 454.27 9.90002C457.15 9.90002 460.09 10.02 463.02 10.27C463.273 10.283 463.512 10.3859 463.696 10.5601C463.879 10.7343 463.994 10.9684 464.02 11.22C464.7 17.72 465.69 24.22 466.96 30.45C471.488 52.6788 479.748 73.98 491.39 93.45C502.821 112.612 517.32 129.767 534.31 144.23C534.525 144.414 534.781 144.543 535.057 144.607C535.332 144.671 535.619 144.668 535.893 144.599C536.168 144.529 536.421 144.395 536.633 144.207C536.845 144.02 537.008 143.784 537.11 143.52V143.45V143.4C539.817 135.604 541.403 127.462 541.82 119.22C541.91 117.56 541.95 116.09 541.95 114.74C541.95 99.4617 537.947 84.45 530.34 71.2C523.134 58.7089 512.982 48.1695 500.77 40.5C500.541 40.353 500.376 40.1241 500.31 39.86C498.56 33.03 496.9 26.1 495.61 20.27C495.566 20.0778 495.577 19.8772 495.642 19.6908C495.706 19.5044 495.821 19.3397 495.973 19.215C496.126 19.0904 496.311 19.0107 496.506 18.9851C496.702 18.9595 496.9 18.9889 497.08 19.07C518.714 28.7153 536.438 45.412 547.356 66.4324C558.274 87.4529 561.74 111.555 557.19 134.8C555.84 141.832 553.766 148.705 551 155.31C542.975 174.334 529.526 190.573 512.332 202.003C495.137 213.432 474.957 219.546 454.31 219.58L454.26 219.62ZM401.42 44.83C390.801 52.8853 382.136 63.2321 376.07 75.1C369.793 87.3718 366.539 100.966 366.58 114.75C366.58 128.11 369.05 141.19 375.33 152.91L375.41 153.06C375.595 153.403 375.89 153.675 376.248 153.832C376.605 153.988 377.005 154.021 377.383 153.924C377.761 153.828 378.096 153.608 378.335 153.299C378.573 152.99 378.702 152.61 378.7 152.22V152.16C378.733 139.536 382.566 127.215 389.7 116.8C396.536 106.585 406.111 98.5025 417.33 93.48C417.752 93.2912 418.084 92.9456 418.256 92.5163C418.427 92.087 418.425 91.6078 418.25 91.18C412.241 76.5247 407.555 61.3609 404.25 45.87C404.183 45.584 404.046 45.3193 403.85 45.1C403.655 44.8806 403.408 44.7137 403.132 44.6143C402.855 44.5148 402.559 44.4862 402.268 44.5308C401.978 44.5755 401.704 44.6921 401.47 44.87L401.42 44.83Z" fill="white"/>
</svg>
