<svg width="150" height="150" viewBox="0 0 150 150" fill="none" xmlns="http://www.w3.org/2000/svg">
<path d="M37.1583 121.119H33.4293L28 134.95H32.077L32.8427 132.703H37.7151L38.4808 134.95H42.6871L37.1583 121.119ZM33.7376 129.74L35.2491 125.454L36.7804 129.74H33.7376Z" fill="white"/>
<path d="M47.8966 131.46V121.119H44.0383V134.95H52.8188V131.46H47.8966Z" fill="white"/>
<path d="M69.9719 121.119H66.1634L62.8819 128.646L59.6303 121.119H55.8317L53.7336 134.95H57.6018L58.6558 126.995L62.3251 134.95H63.4487L67.118 126.995L68.1919 134.95H72.0402L69.9719 121.119Z" fill="white"/>
<path d="M81.7366 121.119H78.0077L72.5784 134.95H76.6653L77.431 132.703H82.3333L83.089 134.95H87.2853L81.7366 121.119ZM78.3557 129.72L79.8672 125.434L81.3985 129.72H78.3557Z" fill="white"/>
<path d="M92.4749 131.46V121.119H88.6167V134.95H97.3772V131.46H92.4749Z" fill="white"/>
<path d="M102.897 131.639V129.571H107.441V126.448H102.897V124.459H107.958V121.168H99.1082V135H108.117V131.689L102.897 131.639Z" fill="white"/>
<path d="M118.409 121.119L115.884 126.09L113.358 121.119H109.132L113.935 129.531V134.95H117.813V129.541L122.635 121.119H118.409Z" fill="white"/>
<path d="M121.045 50.1889L101.634 52.8737C99.2432 47.0236 94.9729 42.1359 89.4968 38.9811C84.0206 35.8263 77.6502 34.5841 71.3899 35.4502C65.1297 36.3164 59.3359 39.2416 54.922 43.7647C50.5082 48.2879 47.7255 54.1516 47.0126 60.4311L28 63.0562V61.9624C28.0849 50.5036 32.3256 39.465 39.9346 30.8967C47.5436 22.3285 58.0036 16.8129 69.3721 15.3744C80.7406 13.9359 92.2448 16.6721 101.748 23.0751C111.252 29.478 118.108 39.1124 121.045 50.1889Z" fill="white"/>
<path d="M28 67.4916L46.8535 64.8863V89.8354L28 92.4406V67.4916Z" fill="white"/>
<path d="M122.546 61.9524V79.374L103.652 81.9793V63.3943C103.653 61.2856 103.413 59.1837 102.936 57.1297L121.909 54.5045C122.323 56.9657 122.536 59.4566 122.546 61.9524Z" fill="white"/>
<path d="M122.546 83.8189V115.222H28V96.8851L46.8535 94.2898V98.3867H103.683V86.4242L122.546 83.8189Z" fill="white"/>
<path d="M98.4914 63.3945V93.226H52.0536V63.3945C52.0588 60.3547 52.6642 57.3459 53.8349 54.5406C55.0057 51.7354 56.7189 49.189 58.8761 47.0474C61.0334 44.9059 63.5923 43.2114 66.406 42.0612C69.2197 40.9109 72.2328 40.3275 75.2725 40.3446C79.6714 40.3393 83.9814 41.5832 87.701 43.9315C91.4206 46.2798 94.397 49.6359 96.2839 53.6096C96.932 54.9635 97.4417 56.3794 97.8053 57.8358C98.2608 59.6535 98.4913 61.5205 98.4914 63.3945Z" fill="#981E27"/>
</svg>
