<svg width="150" height="150" viewBox="0 0 150 150" fill="none" xmlns="http://www.w3.org/2000/svg">
<path d="M40.1602 121.68V135.2H36.5602L36.1602 134.2C35.0067 135.134 33.5639 135.636 32.0801 135.62C30.2183 135.551 28.4559 134.763 27.1633 133.421C25.8706 132.079 25.1484 130.288 25.1484 128.425C25.1484 126.562 25.8706 124.772 27.1633 123.43C28.4559 122.088 30.2183 121.3 32.0801 121.23C33.5843 121.214 35.0463 121.727 36.2101 122.68L36.6902 121.68H40.1602ZM35.7302 128.45C35.7144 127.861 35.5252 127.289 35.1862 126.806C34.8471 126.323 34.3732 125.951 33.8239 125.736C33.2745 125.521 32.6739 125.473 32.0974 125.598C31.5208 125.723 30.9937 126.015 30.5822 126.437C30.1706 126.86 29.8927 127.394 29.7833 127.974C29.6738 128.554 29.7378 129.153 29.967 129.696C30.1962 130.24 30.5806 130.704 31.0721 131.03C31.5635 131.356 32.1403 131.53 32.7302 131.53C33.131 131.53 33.5277 131.45 33.897 131.295C34.2663 131.139 34.6006 130.911 34.8802 130.624C35.1599 130.336 35.3792 129.996 35.5251 129.623C35.6711 129.25 35.7409 128.851 35.7302 128.45Z" fill="#FDFDFD"/>
<path d="M51.9001 121.63V125.89H50.1001C48.4501 125.89 47.7601 126.61 47.7601 128.34V135.21H43.1001V121.69H46.2201L46.9501 123.19C47.4065 122.659 47.9803 122.242 48.626 121.971C49.2717 121.7 49.9715 121.584 50.6701 121.63H51.9001Z" fill="#FDFDFD"/>
<path d="M74.4102 126.73V135.21H69.7502V127.31C69.7502 125.9 69.2302 125.21 68.2502 125.21C66.9602 125.21 66.3102 126.1 66.3102 127.8V135.21H61.7701V127.31C61.7701 125.94 61.2602 125.21 60.2802 125.21C59.0202 125.21 58.2802 126.12 58.2802 127.8V135.21H53.6602V121.69H56.9302L57.6002 123.14C58.0844 122.563 58.6888 122.099 59.371 121.779C60.0532 121.46 60.7969 121.293 61.5502 121.29C62.3127 121.272 63.0677 121.445 63.7457 121.795C64.4237 122.144 65.0029 122.659 65.4302 123.29C65.9258 122.665 66.5567 122.16 67.2755 121.814C67.9943 121.468 68.7822 121.289 69.5801 121.29C72.4901 121.29 74.4102 123.57 74.4102 126.73Z" fill="#FDFDFD"/>
<path d="M91.5801 121.68V135.2H87.9801L87.5801 134.2C86.4258 135.132 84.9836 135.634 83.5001 135.62C81.6383 135.551 79.8759 134.762 78.5833 133.421C77.2906 132.079 76.5684 130.288 76.5684 128.425C76.5684 126.562 77.2906 124.772 78.5833 123.43C79.8759 122.088 81.6383 121.3 83.5001 121.23C85.004 121.216 86.4653 121.729 87.6301 122.68L88.1101 121.68H91.5801ZM87.1501 128.45C87.1344 127.861 86.9451 127.289 86.6061 126.806C86.267 126.323 85.7932 125.951 85.2438 125.736C84.6944 125.521 84.0939 125.473 83.5173 125.598C82.9408 125.723 82.4137 126.014 82.0021 126.437C81.5905 126.86 81.3127 127.394 81.2032 127.974C81.0938 128.553 81.1577 129.152 81.3869 129.696C81.6161 130.24 82.0005 130.703 82.492 131.03C82.9835 131.356 83.5602 131.53 84.1501 131.53C84.5509 131.53 84.9477 131.45 85.317 131.294C85.6862 131.139 86.0206 130.911 86.3002 130.623C86.5799 130.336 86.7992 129.996 86.9451 129.623C87.0911 129.25 87.1608 128.851 87.1501 128.45Z" fill="#FDFDFD"/>
<path d="M107.88 126.97V135.21H103.22V127.57C103.22 126 102.63 125.22 101.46 125.22C100.01 125.22 99.1703 126.22 99.1703 127.95V135.17H94.5103V121.65H97.7803L98.4203 123.04C98.9633 122.457 99.6238 121.997 100.358 121.688C101.093 121.379 101.884 121.23 102.68 121.25C105.82 121.29 107.88 123.57 107.88 126.97Z" fill="#FDFDFD"/>
<path d="M109.88 128.45C109.88 124.26 113.05 121.25 117.46 121.25C121.87 121.25 125.05 124.25 125.05 128.45C125.05 132.65 121.86 135.66 117.46 135.66C113.06 135.66 109.88 132.63 109.88 128.45ZM117.46 131.45C118.057 131.468 118.645 131.307 119.15 130.989C119.655 130.67 120.054 130.208 120.295 129.662C120.536 129.115 120.608 128.509 120.503 127.922C120.397 127.334 120.119 126.791 119.703 126.363C119.288 125.934 118.753 125.639 118.169 125.516C117.585 125.393 116.977 125.447 116.424 125.671C115.87 125.895 115.396 126.279 115.062 126.774C114.729 127.269 114.55 127.853 114.55 128.45C114.529 128.842 114.59 129.234 114.727 129.601C114.865 129.968 115.077 130.303 115.35 130.585C115.623 130.867 115.952 131.089 116.315 131.238C116.678 131.387 117.068 131.459 117.46 131.45Z" fill="#FDFDFD"/>
<path d="M124.72 98.4402C124.49 96.8402 124.25 95.2002 124 93.5802L123.35 89.7601L123.24 89.1002C123.07 88.1002 122.89 86.9802 122.67 85.9302L121.92 82.1602L121.54 80.1602C121.54 79.9002 121.44 79.6202 121.39 79.3502C121.31 78.9202 121.23 78.5202 121.18 78.1202C120.78 75.3302 120.5 72.6101 120.34 70.0101C119.97 64.2501 119.99 58.7101 120.05 54.0101C120.13 49.1301 120.32 44.0102 120.65 38.1902C120.98 32.0402 121.42 25.5601 122.04 17.8901C122.993 18.8149 123.749 19.9219 124.265 21.1451C124.78 22.3684 125.044 23.6828 125.04 25.0101V100.57L124.72 98.4402Z" fill="#FDFDFD"/>
<path d="M35.0103 115.06C32.3581 115.06 29.8146 114.006 27.9392 112.131C26.0638 110.256 25.0103 107.712 25.0103 105.06V101.92C25.3234 102.301 25.6572 102.665 26.0103 103.01C26.1724 103.169 26.3426 103.319 26.5203 103.46C26.6147 103.531 26.7049 103.608 26.7903 103.69L27.9603 104.58C28.5103 105.01 29.1003 105.43 29.6803 105.84L30.3603 106.32C32.6003 107.91 34.9703 109.45 37.4703 111.09C38.5903 111.83 39.7302 112.57 40.8802 113.34C41.7602 113.93 42.5803 114.5 43.3503 115.04L35.0103 115.06Z" fill="#FDFDFD"/>
<path d="M59.33 112.93C57.6 111.76 55.74 110.63 53.66 109.47C50.2038 107.371 46.4756 105.755 42.58 104.67C41.96 104.47 41.08 104.21 40.15 103.93C39.04 103.61 37.89 103.27 37.15 103.03C36.25 102.73 33.63 101.74 33.35 101.63C32.1067 101.085 30.9066 100.447 29.7599 99.7203C28.4914 98.9059 27.3803 97.8693 26.48 96.6603C25.8691 95.8083 25.3716 94.8805 25 93.9003V64.9003C25.19 63.6203 25.39 62.4603 25.58 61.3503C25.99 59.1103 26.42 56.7103 26.95 54.2103C27.39 52.0303 27.95 49.6903 28.65 47.0503C29.19 45.0503 29.8 42.8303 30.65 40.0503C31.37 37.6803 32.14 35.3304 32.86 33.1204C34.07 29.3704 35.38 25.6103 36.66 21.9703L37.54 19.4403C37.99 18.1603 38.18 17.6003 38.37 17.0703C38.56 16.5403 38.7 16.0703 39.06 15.0703H50.06C49.06 17.9803 47.84 21.6003 46.52 25.2303L41.6299 38.7603C40.7399 41.2603 39.97 43.4603 39.28 45.5103C38.28 48.2203 37.64 50.2904 37.04 52.2404C36.69 53.2404 36.38 54.3703 36.04 55.4103L35.98 55.6104C35.66 56.6104 35.38 57.6703 35.1 58.6703L35.0099 58.9703C34.3599 61.2803 33.76 63.7103 33.23 65.8503C31.89 71.1603 30.96 75.5303 30.29 79.6003C29.9113 81.8181 29.6973 84.0609 29.65 86.3103C29.5127 88.3135 29.895 90.3183 30.7599 92.1304C31.2178 92.9808 31.8358 93.7346 32.58 94.3503C33.4683 95.087 34.411 95.7556 35.4 96.3503L41.85 100.35C43.85 101.64 45.98 102.98 48.19 104.45C50.19 105.81 52.2799 107.27 54.3199 108.83C55.9799 110.03 57.72 111.42 59.33 112.93Z" fill="#FDFDFD"/>
<path d="M67.12 115.06C66.6133 114.2 66.0833 113.38 65.53 112.6C64.1324 110.647 62.5664 108.82 60.85 107.14C58.9943 105.352 57.0484 103.66 55.02 102.07L53.29 100.66C52.89 100.34 52.5 99.9803 52.11 99.6603L51.5699 99.1703C50.4577 98.1385 49.406 97.0433 48.42 95.8903C47.4218 94.7352 46.4871 93.5268 45.62 92.2703C44.7755 91.0155 43.9977 89.7171 43.29 88.3804C41.9137 85.7363 40.882 82.9266 40.22 80.0203C39.8943 78.595 39.6738 77.1478 39.56 75.6903C39.56 75.1903 39.56 74.6904 39.5 74.1104C41.6293 78.1778 44.3789 81.8889 47.65 85.1104C49.4794 86.9442 51.4634 88.617 53.58 90.1104C54.49 90.7404 55.5 91.3904 56.77 92.1104L57.41 92.4703C57.75 92.6603 58.08 92.8503 58.41 93.0303L60.12 93.9403C62.7535 95.3279 65.2804 96.9089 67.68 98.6703C72.8302 102.489 77.0179 107.458 79.91 113.18C80.21 113.78 80.52 114.41 80.81 115.06H67.12Z" fill="#FDFDFD"/>
<path d="M86.6605 115.06C85.7205 111.86 84.6605 108.71 83.4105 105.69C81.7625 101.5 79.7094 97.4813 77.2805 93.6903L75.2805 90.4203C74.9505 89.9103 74.6405 89.4203 74.2805 88.7803L73.3405 87.0703C72.7805 86.0703 72.2705 85.0104 71.7805 83.9904L71.6205 83.6603L70.8105 81.9103L70.0605 80.1603C68.1007 75.4905 66.5515 70.659 65.4305 65.7203C64.8705 63.2003 64.4304 60.7203 64.1304 58.2803C63.9304 56.6403 63.7905 55.1703 63.7305 53.8003C65.4205 57.1003 67.3004 60.7003 69.2604 64.2203C71.9404 69.0603 74.2605 73.0004 76.6005 76.6104L77.5505 78.1003L78.5505 79.5803L79.1304 80.4203C79.5804 81.1103 80.0605 81.8104 80.5605 82.4904L81.3105 83.4904C81.7205 84.0804 82.1605 84.7003 82.6205 85.2803L83.6205 86.6503L84.6705 88.0603C87.881 92.2803 90.4986 96.9201 92.4504 101.85C94.1709 106.117 95.4835 110.536 96.3705 115.05L86.6605 115.06Z" fill="#FDFDFD"/>
<path d="M69.74 94.1302C69.49 93.9002 69.2199 93.6802 68.9499 93.4602L68.3 92.8901L67.5899 92.3502L67.17 92.0201C66.8501 91.7588 66.5163 91.5151 66.17 91.2902C64.3252 89.9707 62.4016 88.7651 60.4099 87.6802L58.93 86.8602C57.43 86.0302 55.9299 85.1802 54.3299 84.2402C52.1647 82.9781 50.1515 81.4716 48.3299 79.7502C47.9999 79.4502 47.7099 79.1202 47.3899 78.7502C47.2499 78.5902 47.1099 78.4302 46.9599 78.2802L46.87 78.1802L46.6599 77.9302L46.2799 77.4302L46.1699 77.2802L45.9499 76.9602L45.6399 76.4402C44.9174 75.1242 44.4557 73.6811 44.2799 72.1902C43.9868 69.5372 44.256 66.8522 45.0699 64.3102C45.7752 61.9407 46.7552 59.6619 47.99 57.5201C48.6035 56.4857 49.2711 55.4843 49.99 54.5201L50.5899 53.7202C50.5899 53.8302 50.5399 53.9502 50.5199 54.0602C50.2399 55.5002 49.98 56.8702 49.74 58.2502C49.31 60.5228 48.9963 62.8157 48.8 65.1202C48.5753 67.2194 48.6731 69.3405 49.0899 71.4102C49.2843 72.2644 49.6224 73.0793 50.0899 73.8202C50.1399 73.9002 50.1799 73.9501 50.2099 74.0101C50.2666 74.0983 50.3301 74.1819 50.3999 74.2601L50.5299 74.4402L50.74 74.6602L50.8299 74.7502L51.2199 75.1602C51.4471 75.4158 51.6874 75.6595 51.94 75.8901C53.5375 77.3849 55.2275 78.7777 57 80.0602L57.6399 80.5402C59.2699 81.7602 60.9699 83.0302 62.5799 84.4802C64.449 86.0867 66.1057 87.9248 67.5099 89.9502C68.4015 91.2592 69.1493 92.6607 69.74 94.1302Z" fill="#FDFDFD"/>
<path d="M64.23 80.5703C63.18 79.8503 62.23 79.1803 61.18 78.5703L60.28 78.0004L59.82 77.6903L59.29 77.3103L59.07 77.1503L58.72 76.8903L58.39 76.6003C57.9251 76.2108 57.4874 75.7898 57.08 75.3403L56.43 74.6304C56.27 74.4304 56.13 74.2303 55.98 74.0303L55.87 73.8804C55.5849 73.5008 55.3243 73.1032 55.09 72.6903L54.83 72.2603C54.7299 72.0923 54.6398 71.9188 54.56 71.7404L54.42 71.4403L54.26 71.1003C54.1737 70.9397 54.1001 70.7725 54.04 70.6003L53.95 70.3403C53.7391 69.8199 53.5654 69.2853 53.43 68.7404C53.43 68.6204 53.37 68.5004 53.33 68.3804C53.2746 68.1933 53.2312 68.0029 53.2 67.8103L53.02 66.8103C52.6757 64.3122 52.7772 61.7729 53.32 59.3103L53.39 59.0203C53.51 58.5103 53.62 58.0203 53.76 57.5503L55.15 52.7903C55.71 50.8903 56.37 48.6603 57.15 46.4103C58.2781 42.8877 59.6137 39.435 61.15 36.0703C61.24 37.5903 61.24 39.0703 61.23 40.4503C61.23 42.6103 61.06 44.8203 60.83 47.2303C60.6 49.6403 60.29 51.7603 59.89 53.9503C59.67 55.1703 59.44 56.2803 59.18 57.3203L58.77 58.9403C58.67 59.3403 58.58 59.7304 58.49 60.1204L58.43 60.4203C58.0043 62.3399 57.8195 64.305 57.88 66.2703C57.9497 68.1913 58.3735 70.0831 59.13 71.8503V71.9803C59.21 72.1503 59.28 72.3204 59.35 72.4904L59.6901 73.1603C59.8395 73.4566 60.0064 73.7438 60.1901 74.0203L60.46 74.4603C60.6225 74.7416 60.8029 75.0121 61 75.2703C61.1222 75.4203 61.2357 75.5774 61.34 75.7404C61.4696 75.9404 61.6133 76.1308 61.77 76.3103L62.4 77.1503C63.068 78.0812 63.6824 79.0494 64.24 80.0503L64.72 80.9503L64.23 80.5703Z" fill="#FDFDFD"/>
<path d="M41.4102 61.4503C43.6402 51.9603 46.2801 42.7303 49.2101 32.6603C49.4501 31.8403 49.6902 31.0203 49.9402 30.1903C50.4702 28.3803 51.0301 26.5003 51.5901 24.6703C52.0301 23.1403 52.5001 21.6104 52.9501 20.1204C53.3001 18.9804 53.6501 17.8303 53.9501 16.6803L54.4501 15.0503H63.3702L63.2202 15.4904C62.7302 16.9104 62.2202 18.2004 61.7802 19.4904C60.6402 22.4904 59.6602 25.0003 58.6902 27.3503L57.0602 31.2504L55.3602 35.1003C52.8702 40.5903 50.4402 45.5403 47.9302 50.2303C46.3802 53.0903 45.0602 55.4203 43.7802 57.5703C42.9502 59.0003 42.1602 60.2803 41.4102 61.4503Z" fill="#FDFDFD"/>
<path d="M99.8203 94.3303C97.9603 91.2203 96.0103 88.2703 94.0003 85.5103C92.4403 83.3703 90.7503 81.1903 89.0003 79.0603C87.2503 76.9303 85.4803 75.0603 83.5503 73.0603L82.1403 71.6204L80.6703 70.2203L79.9403 69.5004L79.1903 68.7404L78.4103 67.9703L77.6903 67.2103C75.7131 65.1187 73.9072 62.8715 72.2903 60.4904C72.1603 60.2904 72.0103 60.0904 71.8703 59.8804C71.5959 59.501 71.3422 59.107 71.1103 58.7003L69.9803 56.7703C69.7403 56.3603 69.5103 55.9003 69.2903 55.4603L68.9603 54.8203C68.6351 54.2056 68.3414 53.5748 68.0803 52.9303V52.8403C67.5881 51.7168 67.1542 50.5685 66.7803 49.4003C66.6903 49.1603 66.6103 48.9103 66.5303 48.6703L66.2903 47.8203C65.9558 46.6789 65.6821 45.5207 65.4703 44.3503C65.2437 43.2076 65.0868 42.052 65.0003 40.8903C65.0003 40.5603 64.9303 40.2403 64.9003 39.8903V37.6304C64.871 36.8932 64.891 36.1548 64.9603 35.4203L65.0303 34.2703C65.0303 33.9103 65.0303 33.5503 65.1403 33.2203L65.4703 30.9503L65.5503 30.4203L65.6703 29.9003L65.9203 28.7903L66.1803 27.7003L66.3203 27.1603L66.4403 26.6703C67.5003 22.7603 68.4403 18.8103 69.2403 15.0903H73.5103C73.2903 16.7003 73.0603 18.1904 72.8103 19.6304C72.4403 22.0704 71.9303 24.7103 71.2103 27.9503L71.1003 28.4803L71.0103 28.9703L70.8303 29.9003L70.5403 31.3303L70.2603 33.7003C70.2094 34.0313 70.1827 34.3655 70.1803 34.7003V35.7003C70.1253 36.6162 70.1253 37.5345 70.1803 38.4503C70.1803 38.8103 70.1803 39.1603 70.1803 39.5203V39.5903L70.3003 40.6503C70.3762 41.5645 70.5097 42.473 70.7003 43.3704C70.8642 44.3242 71.0778 45.2688 71.3403 46.2003C71.4203 46.5003 71.4903 46.8003 71.5703 47.1003V47.1603L71.8603 48.0303C72.1603 48.9403 72.4803 49.8803 72.8603 50.7903C73.0903 51.3603 73.3203 51.9503 73.6103 52.5303C73.7203 52.7503 73.8303 52.9703 73.9303 53.2003C74.0303 53.4303 74.2703 53.9203 74.4603 54.2703L75.4003 55.9803C75.5403 56.2603 75.7203 56.5403 75.8903 56.8103L76.4103 57.6703C77.8096 59.9225 79.3598 62.0775 81.0503 64.1204L81.6703 64.8903L83.6703 67.1703L85.0703 68.7803L86.4303 70.4103C86.8503 70.9203 87.2503 71.4103 87.7203 72.0603C88.1903 72.7103 88.5703 73.1704 88.9803 73.7504L89.3503 74.2603C89.6303 74.6603 89.9303 75.0703 90.2103 75.4803L91.4003 77.2404C92.8903 79.5404 94.3203 81.9903 95.6203 84.5103C97.2516 87.6797 98.6551 90.9614 99.8203 94.3303Z" fill="#FDFDFD"/>
<path d="M25.0201 25.0503C25.0138 22.5151 25.9708 20.0722 27.6973 18.2157C29.4238 16.3592 31.791 15.2278 34.32 15.0503C33.11 19.6703 31.95 23.8704 30.7701 27.8804C28.8601 34.4404 26.9701 40.5303 25.0201 46.3903V25.0503Z" fill="#FDFDFD"/>
<path d="M96.2803 76.4805C95.7903 75.4005 95.3403 74.3105 94.9103 73.2405L94.6603 72.5704C93.8103 70.4804 92.9603 68.4404 92.0003 66.5704C90.0817 62.8199 87.7034 59.323 84.9203 56.1604C83.6803 54.7104 82.2603 53.1604 80.5903 51.3904L79.9303 50.6604L79.5303 50.1504L79.3303 49.8904C78.9438 49.3797 78.5898 48.8454 78.2703 48.2904C77.6477 47.2125 77.1384 46.0731 76.7503 44.8904C75.9926 42.632 75.5812 40.2719 75.5303 37.8904C75.4962 36.7285 75.543 35.5658 75.6703 34.4104C75.6703 33.9904 75.7703 33.6005 75.8303 33.2305C76.4003 34.6905 76.9503 36.0904 77.5403 37.4604C78.3695 39.4381 79.3283 41.359 80.4103 43.2104C80.9286 44.0684 81.4997 44.8933 82.1203 45.6804C82.3903 46.0204 82.7003 46.3705 83.0503 46.7405L83.2403 46.9404L83.5203 47.2205L84.0303 47.6804C85.7416 49.2365 87.3453 50.907 88.8303 52.6804C90.3569 54.5053 91.697 56.4785 92.8303 58.5704C93.3951 59.6295 93.896 60.7215 94.3303 61.8405C94.7565 62.9629 95.1204 64.1079 95.4203 65.2704C95.9648 67.5425 96.2731 69.8649 96.3403 72.2004C96.3603 73.6704 96.3403 75.0805 96.2803 76.4805Z" fill="#FDFDFD"/>
<path d="M96.7303 54.3802C96.2903 53.0602 95.8703 51.8102 95.3703 50.6002C94.679 48.8283 93.7103 47.1777 92.5003 45.7102C91.269 44.3403 89.9315 43.0696 88.5003 41.9102H88.4502C86.7802 40.5102 85.2903 39.2302 83.8403 37.8102L82.7103 36.6802L82.1103 36.0302C81.9503 35.8602 81.7903 35.6902 81.6203 35.4902C80.8508 34.6184 80.1582 33.6815 79.5503 32.6902C78.3454 30.7166 77.518 28.5362 77.1103 26.2601C76.7002 24.0523 76.7002 21.788 77.1103 19.5802C77.3224 18.5233 77.6234 17.4863 78.0102 16.4802C78.1302 16.1802 78.2503 15.9001 78.3703 15.6401C78.5103 17.0001 78.7103 18.3301 78.9703 19.6401C79.3506 21.5526 79.9408 23.4173 80.7303 25.2002C81.4694 26.8716 82.4097 28.4465 83.5303 29.8901C84.0897 30.5892 84.6873 31.2569 85.3202 31.8901C85.4602 32.0301 85.6103 32.2002 85.7803 32.3502L86.2903 32.8702L87.3503 33.8702L88.4703 34.9602C89.4703 35.9602 90.6103 37.0502 91.6903 38.2002C93.2909 39.7935 94.6396 41.6211 95.6903 43.6202C96.1998 44.6632 96.5792 45.7647 96.8202 46.9001C97.0549 47.9946 97.1723 49.1109 97.1703 50.2302C97.1641 51.3098 97.067 52.3869 96.8802 53.4502C96.8502 53.7802 96.8003 54.0802 96.7303 54.3802Z" fill="#FDFDFD"/>
<path d="M91.45 31.0903C89.8541 29.2793 88.4062 27.343 87.1201 25.3003C86.3101 24.0303 85.51 22.6303 84.67 21.0203C84.33 20.3503 83.97 19.6203 83.59 18.7903L83.34 18.2203L83.11 17.6104C83.06 17.4904 83.01 17.3503 82.95 17.2103C82.84 16.9203 82.73 16.6503 82.66 16.3903C82.53 15.9603 82.4 15.5103 82.29 15.0503H85.72L85.79 15.3003C85.86 15.5503 85.95 15.7903 86.03 16.0203C86.076 16.1314 86.1161 16.245 86.15 16.3604L86.35 16.9203L86.57 17.4603L87.45 19.7003L87.7 20.3403C88.19 21.6103 88.7 22.9103 89.17 24.2203C89.96 26.3803 90.77 28.6603 91.45 31.0903Z" fill="#FDFDFD"/>
<path d="M96.5302 25.5703C94.8059 23.3197 93.258 20.9393 91.9002 18.4503C91.3902 17.5103 90.7602 16.2603 90.2002 15.0703H94.8702C95.0602 16.3303 95.2702 17.5904 95.4702 18.8604C95.8302 21.0304 96.1902 23.2703 96.5302 25.5703Z" fill="#FDFDFD"/>
<path d="M109.66 115.06C109.03 112.95 108.36 110.81 107.66 108.73C107.14 107.08 106.6 105.36 106.09 103.67C104.83 99.5802 103.65 95.3802 102.58 91.1802C102.09 89.2402 101.58 87.1802 101.16 84.7402C100.74 82.3002 100.43 80.2002 100.22 78.1002C100.04 75.8002 99.9602 73.5302 100 71.3702C100.04 69.2102 100.14 66.9302 100.24 64.8802C100.34 62.6302 100.4 60.5501 100.44 58.5201C100.44 57.6101 100.44 56.6902 100.44 55.7902V55.3302C100.44 54.2602 100.44 53.2202 100.44 52.1802C100.364 47.9798 99.9227 43.7939 99.1202 39.6702C98.7118 37.5722 98.1978 35.4963 97.5801 33.4502C97.3701 32.7802 97.1502 32.0901 96.9102 31.3901C97.3102 31.9501 97.7102 32.5402 98.1002 33.1802C99.2515 35.0418 100.255 36.9911 101.1 39.0101C102.812 43.1068 103.994 47.4047 104.62 51.8002C104.76 52.8002 104.89 53.8802 105.02 55.1002C105.15 56.3202 105.23 57.4802 105.29 58.3802C105.48 60.6502 105.53 62.9602 105.57 64.9502C105.57 66.0602 105.57 67.1702 105.57 68.2502C105.57 69.3302 105.57 70.3501 105.57 71.3901C105.57 73.7601 105.7 75.7302 105.87 77.5702C106.05 79.5702 106.32 81.6602 106.66 83.7402C106.75 84.3802 106.86 85.0302 106.97 85.6702C107.04 86.0502 107.11 86.4402 107.17 86.8302C107.23 87.2202 107.35 87.8301 107.44 88.2701C107.53 88.7101 107.65 89.3902 107.75 89.9502L108.23 92.4702C108.86 95.7902 109.52 99.2301 110.11 102.64C110.85 106.98 111.49 110.94 111.83 115.06H109.66Z" fill="#FDFDFD"/>
<path d="M106.27 42.3103C103.49 32.7303 101.27 23.3103 99.3901 15.0503H106.11C106.32 18.9803 106.46 22.6303 106.52 26.1703C106.58 29.7103 106.52 33.0303 106.52 36.1703C106.45 38.4503 106.37 40.4603 106.27 42.3103Z" fill="#FDFDFD"/>
<path d="M116.86 114.89C116.46 111.89 116.04 108.75 115.6 105.72C115.45 104.79 115.31 103.88 115.17 102.96C114.89 101.21 114.61 99.4 114.31 97.62L113.43 92.8199C113.24 91.7499 113.04 90.65 112.8 89.58L111.96 85.58L111.54 83.46L111.39 82.71C111.29 82.23 111.19 81.7699 111.13 81.3199C110.67 78.3199 110.33 75.4999 110.13 72.7899C109.82 68.7899 109.65 64.5099 109.61 59.3199C109.61 58.1999 109.61 57.09 109.61 55.98C109.61 50.79 109.76 45.3399 110.03 39.3099C110.32 32.1399 110.76 24.41 111.42 15H115.08C115.613 15.0027 116.144 15.0462 116.67 15.13C116.2 20.41 114.94 34.8199 114.96 39.4099C114.96 45.7199 115.04 52.4899 115.35 59.3099C115.56 63.9199 115.87 68.1299 116.3 72.1899C116.55 74.7399 116.95 77.41 117.46 80.1C117.53 80.53 117.63 80.95 117.73 81.36L117.88 81.99L118.33 83.9299L119.33 88.0499C119.62 89.1999 119.86 90.37 120.09 91.5L120.23 92.1499L121.09 96.2599C121.45 98.1499 121.8 100.09 122.09 101.96C122.24 102.8 122.4 103.65 122.55 104.49C122.86 106.24 123.17 108.12 123.5 110.22C122.782 111.419 121.819 112.455 120.676 113.259C119.532 114.063 118.232 114.619 116.86 114.89Z" fill="#FDFDFD"/>
<path d="M50.1601 115.061C48.5701 113.321 46.9001 111.621 45.3301 110.061C45.9801 110.301 46.6801 110.581 47.4401 110.911C48.2001 111.241 48.8801 111.581 49.5801 111.911L49.8101 112.021L50.0201 112.131C50.7001 112.501 51.4201 112.881 52.1001 113.281C53.1001 113.841 54.0001 114.431 54.9101 115.051L50.1601 115.061Z" fill="#FDFDFD"/>
<path d="M42.92 95.9703C42.45 95.7903 41.9199 95.5903 41.3799 95.3303C40.3139 94.8306 39.2847 94.2558 38.3 93.6104L37.5699 93.1104L37.3799 92.9603C37.1982 92.8275 37.0246 92.6838 36.86 92.5303C35.8586 91.662 35.0423 90.6009 34.4599 89.4103C34.1668 88.811 33.9324 88.1847 33.7599 87.5403C33.4457 86.2793 33.3476 84.9741 33.47 83.6803C33.52 83.0803 33.62 82.5403 33.73 81.9003C33.84 81.2603 33.99 80.7103 34.12 80.1903C34.4188 79.0602 34.7827 77.9484 35.2099 76.8604C35.3899 76.3804 35.61 75.8603 35.86 75.3403C36.126 77.0289 36.2896 78.732 36.35 80.4403C36.35 80.9503 36.35 81.4403 36.35 81.9503V82.9503C36.35 83.0903 36.35 83.2103 36.35 83.3303C36.35 83.4503 36.35 83.6303 36.35 83.7703C36.3925 84.7624 36.5366 85.7476 36.78 86.7103C36.9027 87.1722 37.053 87.6263 37.23 88.0703C37.4157 88.515 37.626 88.949 37.86 89.3704L37.91 89.4603C38.1443 89.8646 38.4014 90.2553 38.68 90.6304C38.77 90.7704 38.87 90.9003 38.97 91.0303L39.1399 91.2303L39.81 92.0603C40.93 93.3103 41.96 94.5703 42.92 95.9703Z" fill="#FDFDFD"/>
<path d="M99.8603 115.06C99.7103 114.34 99.5503 113.61 99.4003 112.89C99.1403 111.69 98.8802 110.48 98.6302 109.27C98.4302 108.39 98.2403 107.51 98.0403 106.63C97.9669 106.272 97.8734 105.918 97.7603 105.57C96.9903 103.04 94.0303 94.2801 88.4303 87.5701C86.2829 85.0042 84.3968 82.2305 82.8003 79.29C85.3303 82.19 88.7403 86.04 90.5903 87.9C94.4048 92.0083 97.7581 96.5219 100.59 101.36C100.74 101.63 100.88 101.89 101.03 102.14C102.17 104.14 103.16 105.89 106.28 115.14L99.8603 115.06Z" fill="#FDFDFD"/>
</svg>
