<svg width="150" height="150" viewBox="0 0 150 150" fill="none" xmlns="http://www.w3.org/2000/svg">
<path d="M115.93 54.1278C116.019 60.0252 118.471 63.4405 120.159 65.1183C119.13 63.6255 118.596 61.8477 118.63 60.0351C118.63 55.339 120.199 54.4653 120.229 48.4586C120.229 48.4586 122.909 52.2315 122.889 59.082C123.504 58.5339 123.989 57.8555 124.309 57.0963C124.536 57.5524 124.722 58.0274 124.865 58.516C125.155 59.4974 125.235 60.5289 125.1 61.5433C124.965 62.5577 124.618 63.5323 124.081 64.4035C131.865 56.58 125.818 45.1029 125.818 45.1029C125.808 46.6213 125.283 48.0914 124.329 49.2728C125.103 36.0285 120.278 31.0445 120 30.7864C120.109 31.0246 121.36 33.7648 120.467 38.8084C119.573 43.8519 115.791 46.4532 115.93 54.1278Z" fill="white"/>
<path d="M129.521 90.3756L130.841 83.4258L125.57 83.8825V68.3745H118.411V83.8825L113.11 83.4258L114.46 90.3756H108.026V91.1996C108.026 91.1996 110.012 91.3287 114.092 94.2972C115.681 95.4596 117.482 96.2995 119.394 96.7693C115.919 105.784 109.631 112.592 100.53 117.192C87.3258 123.877 73.8763 124.502 60.1819 119.068C47.8311 113.932 38.7665 105.658 32.9883 94.2475C28.0274 84.4037 25.5431 73.4982 25.7506 62.477C26.1477 47.9155 31.4428 38.0667 41.6358 32.9304C46.9905 30.2167 51.8785 29.3298 56.2999 30.2697C60.7213 31.2096 64.0572 33.8968 66.3076 38.3315C67.6777 41.0452 68.0385 47.2173 67.3898 56.8478C67.0504 61.768 67.2368 66.7105 67.9458 71.5912C67.9458 71.7501 68.0053 71.9188 68.0252 72.0678C68.1991 73.1688 68.4716 74.2521 68.8393 75.3044C68.8393 75.3044 68.8393 75.3043 68.8393 75.3639C69.0566 76.0467 69.3288 76.7108 69.6534 77.3496C69.9314 77.8857 70.2194 78.402 70.5371 78.8885L70.7257 79.1765C70.9143 79.4942 71.1328 79.8119 71.3611 80.1693C71.5527 80.4475 71.7582 80.7158 71.9767 80.9734C72.172 81.2229 72.3808 81.4616 72.6022 81.6883C72.792 81.9114 72.9978 82.1203 73.2177 82.3137C74.8623 84.0292 76.9102 85.3058 79.1747 86.027C81.2445 86.6551 83.4094 86.9104 85.5685 86.7814C85.8167 86.7814 86.0847 86.7814 86.3329 86.7814L87.157 86.702L87.9116 86.5829C88.13 86.5829 88.3385 86.5234 88.5668 86.4737C95.318 85.1235 101.126 80.0501 101.126 71.8295C101.126 66.6767 98.932 63.4897 96.162 61.9012C90.3043 58.6944 81.7064 62.5962 84.4267 70.6977L84.3672 70.4097C83.8707 66.2795 87.1074 64.3039 90.3738 64.5521C92.0777 64.6244 93.6855 65.3612 94.8528 66.6045C96.02 67.8479 96.654 69.4989 96.6187 71.204C96.6378 71.6318 96.6179 72.0606 96.5591 72.4848C95.2585 83.2074 81.3589 83.0981 76.0076 75.2547C75.1651 74.0407 74.5216 72.7001 74.1013 71.2834C72.3638 65.932 71.659 60.1141 73.6546 50.2057C73.9833 48.4973 74.4009 46.8072 74.9055 45.1423C76.1601 40.7347 77.665 36.4023 79.413 32.166C81.7612 26.4097 84.6955 20.9102 88.1697 15.7546C88.3286 15.5064 88.5073 15.2482 88.6761 15C88.4974 15.0894 88.3285 15.1787 88.1399 15.2581C85.4407 16.5742 82.6382 17.6666 79.7604 18.5245C75.3701 19.8063 70.9079 20.8275 66.397 21.5825C59.3157 22.7202 52.3175 24.3254 45.4483 26.3877C30.8835 31.5901 19.8035 44.1792 15.5642 61.5438C11.5928 77.4291 15.7428 92.5796 21.7495 104.434C27.8454 116.467 38.1841 125.303 52.7654 130.943C68.4322 136.9 83.3445 136.297 97.5023 129.136C110.177 122.709 118.451 114.352 122.323 104.067C123.29 101.792 123.897 99.3801 124.12 96.9183C126.198 96.4807 128.158 95.604 129.869 94.3469C133.959 91.3684 135.935 91.2492 135.935 91.2492V90.4252L129.521 90.3756Z" fill="white"/>
</svg>
