<svg width="150" height="150" viewBox="0 0 150 150" fill="none" xmlns="http://www.w3.org/2000/svg">
<path d="M33.1818 33.9067V115.997C33.1818 116.638 33.4364 117.252 33.8895 117.705C34.3427 118.158 34.9572 118.413 35.598 118.413H58.6485C59.2893 118.413 59.9038 118.667 60.3569 119.121C60.8101 119.574 61.0647 120.188 61.0647 120.829V132.584C61.0647 133.225 60.8101 133.839 60.3569 134.292C59.9038 134.745 59.2893 135 58.6485 135H17.4162C16.7754 135 16.1608 134.745 15.7077 134.292C15.2546 133.839 15 133.225 15 132.584V17.4162C15 16.7754 15.2546 16.1608 15.7077 15.7077C16.1608 15.2546 16.7754 15 17.4162 15H58.6485C59.2893 15 59.9038 15.2546 60.3569 15.7077C60.8101 16.1608 61.0647 16.7754 61.0647 17.4162V29.183C61.0489 29.8133 60.7874 30.4124 60.336 30.8526C59.8846 31.2927 59.2789 31.5389 58.6485 31.5387H35.5376C34.9156 31.5542 34.3235 31.8091 33.8847 32.2502C33.4458 32.6912 33.1941 33.2846 33.1818 33.9067Z" fill="white"/>
<path d="M111.696 120.66V132.415C111.696 133.055 111.441 133.67 110.988 134.123C110.535 134.576 109.92 134.831 109.28 134.831H68.1078C67.467 134.831 66.8524 134.576 66.3993 134.123C65.9461 133.67 65.6916 133.055 65.6916 132.415V17.4162C65.6916 16.7754 65.9461 16.1608 66.3993 15.7077C66.8524 15.2546 67.467 15 68.1078 15H81.5055C82.1463 15 82.7609 15.2546 83.2141 15.7077C83.6672 16.1608 83.9217 16.7754 83.9217 17.4162V115.997C83.9217 116.638 84.1763 117.252 84.6294 117.705C85.0826 118.158 85.6971 118.413 86.3379 118.413H109.388C109.982 118.438 110.545 118.681 110.971 119.096C111.397 119.51 111.655 120.067 111.696 120.66Z" fill="white"/>
<path d="M134.528 40.0443V17.2717C134.528 16.9804 134.471 16.6919 134.359 16.4228C134.247 16.1538 134.083 15.9095 133.876 15.7041C133.67 15.4986 133.425 15.3361 133.155 15.2257C132.886 15.1153 132.597 15.0592 132.305 15.0608H90.9281C90.3418 15.0608 89.7795 15.2937 89.3649 15.7083C88.9502 16.123 88.7174 16.6854 88.7174 17.2717V69.3043C88.7174 69.8906 88.9502 70.453 89.3649 70.8676C89.7795 71.2822 90.3418 71.5152 90.9281 71.5152H109.472C109.764 71.5168 110.053 71.4607 110.322 71.3503C110.592 71.2399 110.837 71.0774 111.044 70.8719C111.25 70.6665 111.414 70.4221 111.526 70.1531C111.638 69.8841 111.695 69.5956 111.695 69.3043V58.5161C111.695 57.9297 111.928 57.3673 112.343 56.9527C112.757 56.5381 113.32 56.3052 113.906 56.3052H114.22C114.511 56.3052 114.798 56.3623 115.066 56.4734C115.335 56.5845 115.578 56.7474 115.784 56.9527C115.989 57.158 116.152 57.4018 116.263 57.67C116.374 57.9383 116.431 58.2257 116.431 58.5161V132.572C116.431 133.159 116.664 133.721 117.079 134.136C117.493 134.55 118.055 134.783 118.642 134.783H132.342C132.633 134.785 132.922 134.729 133.191 134.618C133.461 134.508 133.706 134.345 133.913 134.14C134.119 133.934 134.283 133.69 134.395 133.421C134.507 133.152 134.565 132.864 134.565 132.572V48.8995C134.565 48.6082 134.507 48.3197 134.395 48.0507C134.283 47.7817 134.119 47.5375 133.913 47.3321C133.706 47.1266 133.461 46.964 133.191 46.8536C132.922 46.7433 132.633 46.6872 132.342 46.6888H124.731C124.439 46.6904 124.151 46.6343 123.881 46.5239C123.611 46.4135 123.366 46.251 123.16 46.0455C122.953 45.84 122.789 45.5959 122.677 45.3269C122.565 45.0578 122.508 44.7694 122.508 44.478C122.508 43.8885 122.742 43.323 123.159 42.9061C123.576 42.4892 124.141 42.255 124.731 42.255H132.342C132.924 42.2487 133.48 42.013 133.889 41.5991C134.299 41.1851 134.528 40.6264 134.528 40.0443ZM119.234 31.5031H113.906C113.32 31.5031 112.757 31.2701 112.343 30.8555C111.928 30.4409 111.695 29.8785 111.695 29.2922V28.8815C111.695 28.2951 111.928 27.7327 112.343 27.3181C112.757 26.9035 113.32 26.6707 113.906 26.6707H119.234C119.82 26.6707 120.383 26.9035 120.797 27.3181C121.212 27.7327 121.445 28.2951 121.445 28.8815V29.2922C121.445 29.8785 121.212 30.4409 120.797 30.8555C120.383 31.2701 119.82 31.5031 119.234 31.5031Z" fill="white"/>
<path d="M60.9925 105.788V44.1152C60.9925 39.4447 57.2064 35.6585 52.5359 35.6585H46.4712C41.8007 35.6585 38.0146 39.4447 38.0146 44.1152V105.788C38.0146 110.459 41.8007 114.245 46.4712 114.245H52.5359C57.2064 114.245 60.9925 110.459 60.9925 105.788Z" fill="white"/>
<path d="M111.696 105.788V84.0307C111.696 79.3602 107.91 75.574 103.239 75.574H97.1746C92.5041 75.574 88.718 79.3602 88.718 84.0307V105.788C88.718 110.459 92.5041 114.245 97.1746 114.245H103.239C107.91 114.245 111.696 110.459 111.696 105.788Z" fill="#981E27"/>
</svg>
