<svg width="150" height="150" viewBox="0 0 150 150" fill="none" xmlns="http://www.w3.org/2000/svg">
<path d="M26.0813 72.4232L20.8645 86.1015L15.1157 68.5523C15.0692 68.4092 14.9785 68.2847 14.8566 68.1966C14.7347 68.1084 14.5879 68.0612 14.4375 68.062H8.70955C8.61599 68.0606 8.5231 68.078 8.43639 68.1132C8.34968 68.1483 8.27088 68.2005 8.20472 68.2666C8.13855 68.3328 8.08637 68.4116 8.05122 68.4983C8.01606 68.585 7.99867 68.6779 8.00008 68.7715V108.617C7.99867 108.71 8.01606 108.803 8.05122 108.89C8.08637 108.977 8.13855 109.056 8.20472 109.122C8.27088 109.188 8.34968 109.24 8.43639 109.275C8.5231 109.31 8.61599 109.328 8.70955 109.326H14.2289C14.417 109.326 14.5975 109.252 14.7305 109.119C14.8636 108.985 14.9383 108.805 14.9383 108.617V90.3583L16.9728 96.6183C17.022 96.7597 17.1134 96.8827 17.2347 96.9704C17.356 97.0581 17.5014 97.1064 17.651 97.1088H23.5459C23.6898 97.1054 23.8296 97.0602 23.9481 96.9787C24.0667 96.8971 24.159 96.7828 24.2137 96.6497L26.3004 91.3704V108.648C26.2989 108.742 26.3163 108.835 26.3515 108.921C26.3866 109.008 26.4389 109.087 26.505 109.153C26.5712 109.219 26.6499 109.271 26.7367 109.306C26.8234 109.342 26.9163 109.359 27.0098 109.358H32.5291C32.6223 109.358 32.7146 109.339 32.8006 109.304C32.8867 109.268 32.9649 109.216 33.0308 109.15C33.0967 109.084 33.1489 109.006 33.1846 108.92C33.2203 108.834 33.2386 108.741 33.2386 108.648V72.7049C33.2359 72.5176 33.1603 72.3387 33.0278 72.2062C32.8954 72.0737 32.7165 71.9981 32.5291 71.9954H26.7803C26.6372 71.9967 26.4979 72.0412 26.3806 72.1231C26.2633 72.2051 26.1735 72.3207 26.123 72.4545" fill="white"/>
<path d="M115.58 57.3152H81.6917C81.5976 57.3151 81.5045 57.3337 81.4178 57.37C81.331 57.4063 81.2523 57.4596 81.1863 57.5266C81.1203 57.5936 81.0682 57.673 81.0332 57.7603C80.9982 57.8476 80.9808 57.941 80.9822 58.035V63.5439C80.9808 63.6379 80.9982 63.7313 81.0332 63.8186C81.0682 63.9059 81.1203 63.9853 81.1863 64.0523C81.2523 64.1193 81.331 64.1725 81.4178 64.2089C81.5045 64.2452 81.5976 64.2638 81.6917 64.2637H84.1018C84.1954 64.2623 84.2883 64.2798 84.375 64.3149C84.4617 64.3501 84.5405 64.4023 84.6066 64.4684C84.6728 64.5346 84.725 64.6134 84.7602 64.7001C84.7953 64.7868 84.8127 64.8797 84.8113 64.9733V108.616C84.8113 108.805 84.8861 108.985 85.0191 109.118C85.1522 109.251 85.3326 109.326 85.5208 109.326H91.0296C91.1232 109.327 91.2161 109.31 91.3028 109.275C91.3895 109.24 91.4683 109.187 91.5344 109.121C91.6006 109.055 91.6528 108.976 91.688 108.89C91.7231 108.803 91.7405 108.71 91.7391 108.616V64.9733C91.7391 64.8792 91.7578 64.7861 91.7941 64.6993C91.8304 64.6126 91.8836 64.5339 91.9506 64.4679C92.0176 64.4019 92.097 64.3499 92.1843 64.3148C92.2716 64.2798 92.365 64.2624 92.459 64.2637H115.569C115.663 64.2638 115.756 64.2452 115.843 64.2089C115.93 64.1725 116.009 64.1193 116.075 64.0523C116.141 63.9853 116.193 63.9059 116.228 63.8186C116.263 63.7313 116.28 63.6379 116.279 63.5439V58.035C116.28 57.941 116.263 57.8476 116.228 57.7603C116.193 57.673 116.141 57.5936 116.075 57.5266C116.009 57.4596 115.93 57.4063 115.843 57.37C115.756 57.3337 115.663 57.3151 115.569 57.3152" fill="white"/>
<path d="M120.15 23.7509V63.5441C120.149 63.6382 120.166 63.7315 120.201 63.8188C120.236 63.9061 120.288 63.9855 120.354 64.0525C120.42 64.1195 120.499 64.1728 120.585 64.2091C120.672 64.2454 120.765 64.264 120.859 64.264H126.379C126.568 64.2612 126.748 64.1842 126.881 64.0495C127.014 63.9148 127.088 63.7332 127.088 63.5441V54.154C127.088 53.9658 127.163 53.7854 127.296 53.6523C127.429 53.5193 127.609 53.4445 127.798 53.4445H133.317C133.505 53.4445 133.686 53.5193 133.819 53.6523C133.952 53.7854 134.026 53.9658 134.026 54.154V63.5441C134.026 63.7332 134.101 63.9148 134.234 64.0495C134.366 64.1842 134.547 64.2612 134.736 64.264H140.255C140.349 64.264 140.442 64.2454 140.529 64.2091C140.616 64.1728 140.695 64.1195 140.761 64.0525C140.827 63.9855 140.879 63.9061 140.914 63.8188C140.949 63.7315 140.966 63.6382 140.965 63.5441V23.7509C140.965 23.5627 140.89 23.3822 140.757 23.2492C140.624 23.1161 140.443 23.0413 140.255 23.0413H120.859C120.671 23.0413 120.491 23.1161 120.358 23.2492C120.225 23.3822 120.15 23.5627 120.15 23.7509ZM127.088 45.8177V30.6891C127.088 30.596 127.107 30.5037 127.142 30.4176C127.178 30.3315 127.23 30.2533 127.296 30.1875C127.362 30.1216 127.44 30.0693 127.526 30.0336C127.612 29.998 127.704 29.9796 127.798 29.9796H133.317C133.41 29.9796 133.502 29.998 133.588 30.0336C133.675 30.0693 133.753 30.1216 133.819 30.1875C133.885 30.2533 133.937 30.3315 133.972 30.4176C134.008 30.5037 134.026 30.596 134.026 30.6891V45.8177C134.026 46.0058 133.952 46.1863 133.819 46.3193C133.686 46.4524 133.505 46.5271 133.317 46.5271H127.798C127.609 46.5271 127.429 46.4524 127.296 46.3193C127.163 46.1863 127.088 46.0058 127.088 45.8177Z" fill="white"/>
<path d="M113.524 68.1139H96.5281C96.4345 68.1125 96.3416 68.1298 96.2549 68.165C96.1682 68.2002 96.0894 68.2524 96.0233 68.3186C95.9571 68.3848 95.9049 68.4636 95.8698 68.5503C95.8346 68.637 95.8172 68.7298 95.8186 68.8233V108.617C95.8172 108.71 95.8346 108.803 95.8698 108.89C95.9049 108.976 95.9571 109.055 96.0233 109.121C96.0894 109.188 96.1682 109.24 96.2549 109.275C96.3416 109.31 96.4345 109.328 96.5281 109.326H115.924C116.017 109.328 116.11 109.31 116.197 109.275C116.284 109.24 116.363 109.188 116.429 109.121C116.495 109.055 116.547 108.976 116.582 108.89C116.617 108.803 116.635 108.71 116.633 108.617V68.8755C116.635 68.782 116.617 68.6891 116.582 68.6024C116.547 68.5156 116.495 68.4369 116.429 68.3707C116.363 68.3045 116.284 68.2524 116.197 68.2172C116.11 68.1821 116.017 68.1646 115.924 68.166L113.524 68.1139ZM102.757 101.678V75.7616C102.757 75.5734 102.832 75.393 102.965 75.2599C103.098 75.1269 103.278 75.0522 103.466 75.0522H108.986C109.174 75.0522 109.354 75.1269 109.487 75.2599C109.62 75.393 109.695 75.5734 109.695 75.7616V101.678C109.697 101.772 109.679 101.865 109.644 101.951C109.609 102.038 109.557 102.117 109.49 102.183C109.424 102.249 109.346 102.302 109.259 102.337C109.172 102.372 109.079 102.389 108.986 102.388H103.466C103.373 102.389 103.28 102.372 103.193 102.337C103.106 102.302 103.028 102.249 102.962 102.183C102.895 102.117 102.843 102.038 102.808 101.951C102.773 101.865 102.755 101.772 102.757 101.678Z" fill="white"/>
<path d="M127.088 78.7878V75.7621C127.088 75.5739 127.163 75.3934 127.296 75.2604C127.429 75.1273 127.61 75.0527 127.798 75.0527H133.317C133.505 75.0527 133.686 75.1273 133.819 75.2604C133.952 75.3934 134.027 75.5739 134.027 75.7621V78.9652C134.029 79.1525 134.105 79.3314 134.237 79.4638C134.37 79.5963 134.549 79.6719 134.736 79.6746H140.255C140.444 79.6746 140.624 79.5999 140.757 79.4669C140.89 79.3338 140.965 79.1534 140.965 78.9652V68.876C140.966 68.7825 140.949 68.6895 140.914 68.6028C140.879 68.5161 140.826 68.4373 140.76 68.3711C140.694 68.305 140.615 68.2528 140.529 68.2177C140.442 68.1825 140.349 68.1651 140.255 68.1665H120.86C120.766 68.1651 120.673 68.1825 120.586 68.2177C120.5 68.2528 120.421 68.305 120.355 68.3711C120.289 68.4373 120.236 68.5161 120.201 68.6028C120.166 68.6895 120.149 68.7825 120.15 68.876V82.4395C120.147 82.5546 120.173 82.6686 120.226 82.7708C120.279 82.873 120.357 82.9601 120.453 83.0238L134.089 92.6017C134.182 92.6686 134.257 92.7563 134.31 92.8578C134.363 92.9593 134.391 93.0718 134.392 93.186V101.731C134.392 101.919 134.317 102.1 134.184 102.233C134.051 102.366 133.87 102.441 133.682 102.441H127.798C127.704 102.442 127.611 102.424 127.525 102.389C127.438 102.354 127.359 102.302 127.293 102.236C127.227 102.17 127.175 102.091 127.14 102.004C127.104 101.917 127.087 101.825 127.088 101.731V95.2205C127.086 95.0332 127.01 94.8542 126.878 94.7218C126.745 94.5893 126.566 94.5137 126.379 94.511H120.86C120.671 94.511 120.491 94.5858 120.358 94.7188C120.225 94.8519 120.15 95.0323 120.15 95.2205V108.669C120.149 108.763 120.166 108.856 120.201 108.942C120.236 109.029 120.289 109.108 120.355 109.174C120.421 109.24 120.5 109.292 120.586 109.328C120.673 109.363 120.766 109.38 120.86 109.379H140.621C140.714 109.38 140.807 109.363 140.894 109.328C140.98 109.292 141.059 109.24 141.125 109.174C141.192 109.108 141.244 109.029 141.279 108.942C141.314 108.856 141.331 108.763 141.33 108.669V90.9324C141.333 90.3999 141.206 89.8748 140.96 89.4022C140.715 88.9297 140.358 88.5239 139.922 88.2197L127.401 79.4242C127.308 79.3608 127.231 79.2753 127.178 79.1752C127.126 79.0751 127.098 78.9636 127.099 78.8505" fill="white"/>
<path d="M77.1127 108.617V23.7509C77.1127 23.5627 77.0379 23.3822 76.9049 23.2492C76.7718 23.1161 76.5914 23.0413 76.4032 23.0413H70.8839C70.6966 23.044 70.5177 23.1196 70.3852 23.2521C70.2528 23.3846 70.1771 23.5635 70.1744 23.7509V69.3764L61.9737 23.6257C61.9403 23.4618 61.8515 23.3143 61.7224 23.2079C61.5933 23.1016 61.4315 23.0427 61.2643 23.0413H55.6302C55.4429 23.044 55.2639 23.1196 55.1315 23.2521C54.999 23.3846 54.9234 23.5635 54.9207 23.7509V108.617C54.9207 108.805 54.9955 108.985 55.1285 109.118C55.2616 109.251 55.442 109.326 55.6302 109.326H61.1495C61.243 109.328 61.3359 109.31 61.4227 109.275C61.5094 109.24 61.5881 109.188 61.6543 109.121C61.7205 109.055 61.7727 108.977 61.8078 108.89C61.843 108.803 61.8604 108.71 61.859 108.617V62.6155L70.0701 108.711C70.0995 108.875 70.1856 109.023 70.3135 109.13C70.4413 109.237 70.6025 109.295 70.7691 109.295H76.4241C76.5176 109.296 76.6105 109.279 76.6972 109.244C76.7839 109.209 76.8627 109.156 76.9289 109.09C76.995 109.024 77.0472 108.945 77.0824 108.858C77.1176 108.772 77.1349 108.679 77.1335 108.585" fill="white"/>
<path d="M40.2708 29.2287V23.7094C40.2708 23.5212 40.196 23.3408 40.063 23.2077C39.9299 23.0747 39.7495 23 39.5613 23H8.70954C8.52138 23 8.34092 23.0747 8.20787 23.2077C8.07481 23.3408 8.00008 23.5212 8.00008 23.7094V63.5026C7.99869 63.5967 8.01602 63.6901 8.05105 63.7774C8.08609 63.8647 8.13812 63.9441 8.20414 64.0111C8.27016 64.0781 8.34883 64.1313 8.43559 64.1676C8.52235 64.2039 8.61549 64.2226 8.70954 64.2226H14.2289C14.418 64.2199 14.5984 64.1427 14.7312 64.008C14.8639 63.8733 14.9383 63.6918 14.9383 63.5026V50.92C14.9369 50.8264 14.9543 50.7335 14.9895 50.6468C15.0246 50.5601 15.0768 50.4813 15.143 50.4151C15.2092 50.3489 15.2879 50.2968 15.3746 50.2616C15.4613 50.2265 15.5542 50.209 15.6478 50.2104H21.6888C21.7828 50.2104 21.8759 50.1917 21.9627 50.1554C22.0495 50.1191 22.1282 50.066 22.1942 49.999C22.2602 49.932 22.3122 49.8526 22.3473 49.7653C22.3823 49.678 22.3996 49.5846 22.3982 49.4906V43.9817C22.3996 43.8876 22.3823 43.7942 22.3473 43.707C22.3122 43.6197 22.2602 43.5402 22.1942 43.4733C22.1282 43.4063 22.0495 43.353 21.9627 43.3167C21.8759 43.2804 21.7828 43.2617 21.6888 43.2617H15.6478C15.5542 43.2631 15.4613 43.2458 15.3746 43.2106C15.2879 43.1755 15.2092 43.1232 15.143 43.057C15.0768 42.9909 15.0246 42.9122 14.9895 42.8255C14.9543 42.7388 14.9369 42.6459 14.9383 42.5523V30.6895C14.9383 30.5963 14.9567 30.504 14.9923 30.4179C15.028 30.3318 15.0802 30.2537 15.1461 30.1878C15.212 30.1219 15.2902 30.0696 15.3763 30.0339C15.4624 29.9983 15.5546 29.9799 15.6478 29.9799H39.5613C39.6549 29.9813 39.7478 29.964 39.8345 29.9289C39.9212 29.8937 39.9999 29.8414 40.0661 29.7753C40.1323 29.7091 40.1845 29.6303 40.2196 29.5436C40.2548 29.4569 40.2722 29.3641 40.2708 29.2705" fill="white"/>
<path d="M44.1314 23.7512V60.404C44.1314 60.5931 44.057 60.7746 43.9242 60.9093C43.7915 61.044 43.611 61.1211 43.4219 61.1238H33.9066C33.8126 61.1238 33.7195 61.1052 33.6327 61.0689C33.5459 61.0326 33.4672 60.9794 33.4012 60.9124C33.3352 60.8454 33.2832 60.766 33.2481 60.6787C33.2131 60.5914 33.1958 60.498 33.1971 60.404V34.5498C33.1971 34.3616 33.1224 34.1812 32.9893 34.0481C32.8563 33.9151 32.6758 33.8404 32.4877 33.8404H26.9684C26.8748 33.839 26.7819 33.8563 26.6952 33.8915C26.6085 33.9266 26.5297 33.9789 26.4635 34.0451C26.3974 34.1112 26.3452 34.1899 26.31 34.2766C26.2749 34.3633 26.2575 34.4562 26.2589 34.5498V67.4048C26.2589 67.5929 26.3336 67.7734 26.4667 67.9064C26.5997 68.0395 26.7802 68.1143 26.9684 68.1143H50.3602C50.5483 68.1143 50.7288 68.0395 50.8619 67.9064C50.9949 67.7734 51.0697 67.5929 51.0697 67.4048V23.8034C51.067 23.6161 50.9914 23.4371 50.8589 23.3047C50.7264 23.1722 50.5475 23.0966 50.3602 23.0939H44.8409C44.6527 23.0939 44.4723 23.1687 44.3392 23.3017C44.2062 23.4348 44.1314 23.6153 44.1314 23.8034" fill="white"/>
<path d="M51.0705 78.1926V72.6733C51.0678 72.486 50.9922 72.307 50.8597 72.1746C50.7272 72.0421 50.5483 71.9665 50.361 71.9638H37.3714C37.184 71.9665 37.0051 72.0421 36.8726 72.1746C36.7402 72.307 36.6646 72.486 36.6619 72.6733V108.617C36.6619 108.805 36.7366 108.985 36.8697 109.118C37.0027 109.251 37.1832 109.326 37.3714 109.326H50.3401C50.5283 109.326 50.7088 109.251 50.8418 109.118C50.9749 108.985 51.0496 108.805 51.0496 108.617V103.097C51.0469 102.91 50.9713 102.731 50.8388 102.599C50.7064 102.466 50.5275 102.39 50.3401 102.388H44.2992C44.2056 102.389 44.1127 102.372 44.026 102.337C43.9393 102.302 43.8605 102.249 43.7944 102.183C43.7282 102.117 43.676 102.038 43.6408 101.951C43.6057 101.865 43.5883 101.772 43.5897 101.678V97.7866C43.5883 97.693 43.6057 97.6003 43.6408 97.5135C43.676 97.4268 43.7282 97.348 43.7944 97.2819C43.8605 97.2157 43.9393 97.1634 44.026 97.1283C44.1127 97.0931 44.2056 97.0758 44.2992 97.0772H47.4292C47.6201 97.0772 47.8033 97.0013 47.9383 96.8663C48.0733 96.7313 48.1491 96.5481 48.1491 96.3572V90.8484C48.1491 90.6575 48.0733 90.4744 47.9383 90.3394C47.8033 90.2044 47.6201 90.1285 47.4292 90.1285H44.2992C44.2056 90.1299 44.1127 90.1126 44.026 90.0774C43.9393 90.0422 43.8605 89.99 43.7944 89.9238C43.7282 89.8576 43.676 89.7788 43.6408 89.6921C43.6057 89.6054 43.5883 89.5125 43.5897 89.4189V79.6116C43.5897 79.4234 43.6644 79.243 43.7975 79.1099C43.9305 78.9769 44.111 78.9021 44.2992 78.9021H50.3401C50.5283 78.9021 50.7088 78.8274 50.8418 78.6943C50.9749 78.5613 51.0496 78.3808 51.0496 78.1926" fill="white"/>
<path d="M101.077 53.4653H81.6917C81.5981 53.4668 81.5052 53.4494 81.4185 53.4143C81.3318 53.3791 81.2531 53.3268 81.1869 53.2607C81.1207 53.1945 81.0685 53.1157 81.0334 53.029C80.9982 52.9423 80.9808 52.8495 80.9822 52.7559V23.7509C80.9822 23.5627 81.057 23.3822 81.19 23.2492C81.3231 23.1161 81.5035 23.0413 81.6917 23.0413H101.077C105.112 23.0413 108.981 24.644 111.834 27.4968C114.686 30.3496 116.289 34.2189 116.289 38.2534C116.289 42.2879 114.686 46.1571 111.834 49.0099C108.981 51.8627 105.112 53.4653 101.077 53.4653Z" fill="white"/>
<path d="M106.794 38.2537C106.794 39.4918 106.427 40.7021 105.739 41.7315C105.051 42.761 104.073 43.5634 102.93 44.0372C101.786 44.511 100.527 44.6349 99.3126 44.3934C98.0983 44.1519 96.9829 43.5557 96.1074 42.6803C95.2319 41.8048 94.6357 40.6893 94.3941 39.4749C94.1526 38.2606 94.2766 37.0019 94.7504 35.858C95.2242 34.7141 96.0266 33.7364 97.056 33.0485C98.0855 32.3607 99.2958 31.9936 100.534 31.9936C102.194 31.9936 103.786 32.6531 104.96 33.8271C106.134 35.0011 106.794 36.5934 106.794 38.2537Z" fill="#981E27"/>
<path d="M8 116.108C9.14206 115.927 10.2973 115.844 11.4535 115.857C13.0215 115.724 14.5916 116.089 15.9398 116.901C16.5923 117.374 17.1144 118.005 17.4573 118.735C17.8003 119.465 17.953 120.27 17.9013 121.074C17.959 121.919 17.8171 122.765 17.4872 123.544C17.1574 124.323 16.6487 125.014 16.0024 125.56C14.4855 126.542 12.6933 127.01 10.8901 126.896C9.92366 126.908 8.95772 126.848 8 126.719V116.108ZM10.9005 124.653C11.1053 124.67 11.3112 124.67 11.5161 124.653C13.4045 124.653 14.8026 123.609 14.8026 121.189C14.8519 120.776 14.8088 120.357 14.6764 119.963C14.544 119.569 14.3256 119.209 14.0371 118.909C13.7485 118.609 13.397 118.378 13.0079 118.231C12.6188 118.084 12.2019 118.025 11.7873 118.059C11.4904 118.052 11.1935 118.073 10.9005 118.121V124.653Z" fill="white"/>
<path d="M29.5666 122.431H25.6645V124.434H30.0361V126.823H22.7431V115.941H29.8066V118.33H25.6645V120.073H29.5666V122.431Z" fill="white"/>
<path d="M36.7233 115.941H39.6447V124.382H43.8181V126.823H36.7233V115.941Z" fill="white"/>
<path d="M54.9207 116.108C56.0628 115.928 57.2181 115.845 58.3742 115.858C59.9423 115.723 61.5129 116.088 62.8606 116.901C63.5164 117.372 64.0416 118.003 64.3866 118.733C64.7315 119.463 64.885 120.269 64.8325 121.075C64.8914 121.92 64.7491 122.768 64.4172 123.547C64.0853 124.327 63.5733 125.017 62.9232 125.561C61.4068 126.544 59.6141 127.012 57.8108 126.896C56.8444 126.908 55.8785 126.849 54.9207 126.719V116.108ZM57.8316 124.653C58.033 124.67 58.2354 124.67 58.4368 124.653C60.3252 124.653 61.7338 123.61 61.7338 121.189C61.7831 120.776 61.74 120.358 61.6076 119.963C61.4752 119.569 61.2568 119.209 60.9682 118.91C60.6797 118.61 60.3281 118.378 59.939 118.231C59.5499 118.084 59.133 118.026 58.7185 118.059C58.4215 118.052 58.1245 118.073 57.8316 118.122V124.653Z" fill="white"/>
<path d="M75.4313 115.941H72.5099V126.823H75.4313V115.941Z" fill="white"/>
<path d="M83.6634 123.912C84.5428 124.348 85.5093 124.58 86.4908 124.59C87.5342 124.59 87.9724 124.256 87.9724 123.703C87.9724 123.15 87.4925 122.869 86.2613 122.441C84.425 121.804 83.1939 120.782 83.1939 119.175C83.1939 117.245 84.8319 115.763 87.5759 115.763C88.5825 115.736 89.5828 115.929 90.5077 116.327L89.8922 118.653C89.1517 118.317 88.3477 118.142 87.5342 118.142C86.6474 118.142 86.1674 118.455 86.1674 118.946C86.1674 119.436 86.7517 119.718 88.1185 120.218C90.0695 120.949 90.946 121.992 90.946 123.515C90.946 125.383 89.4957 126.979 86.3135 126.979C85.2145 126.992 84.1257 126.767 83.1209 126.322L83.6634 123.912Z" fill="white"/>
<path d="M105.449 122.431H101.547V124.434H105.919V126.823H98.6257V115.941H105.7V118.33H101.547V120.073H105.449V122.431Z" fill="white"/>
<path d="M113.609 126.823V115.941H117.041L118.773 119.28C119.421 120.513 119.993 121.784 120.484 123.088C120.328 121.566 120.255 120.037 120.265 118.508V115.941H122.926V126.823H119.858L118.001 123.203C117.406 122.055 116.697 120.594 116.175 119.28H116.113C116.196 120.751 116.227 122.41 116.227 124.152V126.823H113.609ZM115.925 115.346C115.925 113.813 116.426 113.103 117.239 113.103C117.61 113.116 117.97 113.228 118.283 113.427C118.483 113.589 118.719 113.7 118.971 113.75C119.253 113.75 119.347 113.593 119.41 113.041H120.672C120.672 114.668 120.202 115.232 119.316 115.232C118.95 115.226 118.591 115.129 118.272 114.95C118.083 114.795 117.856 114.694 117.615 114.658C117.438 114.658 117.271 114.866 117.239 115.346H115.925Z" fill="white"/>
<path d="M141.329 121.272C141.329 124.767 139.242 127 135.872 127C132.502 127 130.656 124.464 130.656 121.449C130.656 118.267 132.742 115.753 136.06 115.753C139.566 115.753 141.34 118.35 141.34 121.272M133.744 121.376C133.744 123.463 134.631 124.684 136.029 124.684C137.427 124.684 138.262 123.317 138.262 121.345C138.262 119.373 137.417 118.058 135.998 118.058C134.579 118.058 133.744 119.383 133.744 121.376Z" fill="white"/>
</svg>
