<svg width="150" height="150" viewBox="0 0 150 150" fill="none" xmlns="http://www.w3.org/2000/svg">
<path d="M52.3029 86.9446C55.4738 82.379 59.043 78.1035 62.9687 74.1682C62.632 77.2376 62.1395 80.288 61.4933 83.3074C60.7044 87.4516 59.3855 91.477 57.5692 95.2846C56.1543 98.2333 54.1654 100.87 51.7189 103.041C49.9464 104.475 48.43 105.182 47.3235 105.09C46.9546 105.09 46.4936 104.987 46.1555 103.778C46.0227 103.25 45.9708 102.704 46.0018 102.159C46.0675 101.065 46.2113 99.9758 46.4321 98.9014C46.8233 97.1551 47.4326 95.4649 48.2456 93.8707C49.411 91.4574 50.7678 89.1413 52.3029 86.9446Z" fill="white"/>
<path d="M87.261 103.83C90.4398 99.2677 94.0121 94.9925 97.937 91.0536C97.6054 94.1271 97.1129 97.1812 96.4617 100.203C95.9851 102.476 95.39 104.723 94.6789 106.935C94.1096 108.737 93.397 110.491 92.5478 112.18C91.1298 115.13 89.1374 117.767 86.6872 119.936C84.9147 121.371 83.3983 122.068 82.302 121.986C81.9229 121.986 81.4619 121.883 81.1237 120.674C80.9944 120.141 80.9461 119.592 80.9804 119.045C81.0417 117.954 81.1821 116.868 81.4004 115.797C81.7961 114.049 82.4052 112.356 83.2139 110.756C84.3789 108.345 85.7322 106.029 87.261 103.83Z" fill="white"/>
<path d="M96.2976 63.0106C96.4237 63.1623 96.5272 63.3314 96.605 63.5126C96.8501 64.03 96.9594 64.6012 96.9226 65.1724C96.9226 67.6827 94.9759 70.8999 92.23 73.1744C88.3571 76.3814 83.2343 77.3649 81.4925 75.2236C79.7507 73.0822 81.6769 68.2564 85.5908 65.0598C87.7578 63.1775 90.4825 62.0581 93.3468 61.8733C93.8912 61.8427 94.4358 61.9283 94.9446 62.1244C95.4534 62.3205 95.9146 62.6225 96.2976 63.0106Z" fill="white"/>
<path d="M115.735 66.4532C112.179 69.1068 108.768 71.7912 105.489 74.4756C105.489 74.4756 105.489 74.4142 105.489 74.322C105.386 72.9183 105.079 62.2832 101.585 58.523C101.369 58.2596 101.136 58.0099 100.889 57.7751C99.1562 56.1624 96.927 55.1868 94.5669 55.0087C94.3296 54.6029 93.9999 54.2589 93.6047 54.0043C93.2095 53.7498 92.7599 53.5919 92.2924 53.5436C89.677 53.1718 87.0204 53.1994 84.4134 53.6255C79.4384 54.4987 74.6832 56.3402 70.4177 59.0455C70.3255 57.0989 70.1616 55.0907 69.9054 53.0723C69.6543 50.6832 69.2228 48.3165 68.6145 45.9925C68.2769 44.7409 67.8241 43.5232 67.262 42.3552C76.837 40.8388 86.6465 42.3437 95.3265 46.6607C104.006 50.9778 111.126 57.8924 115.694 66.4429L115.735 66.4532Z" fill="white"/>
<path d="M121.216 88.3999C121.214 96.9963 118.835 105.425 114.342 112.754C109.849 120.082 103.416 126.025 95.7557 129.926C88.0951 133.826 79.505 135.532 70.9353 134.855C62.3656 134.178 54.1501 131.143 47.1975 126.088C40.2448 121.032 34.8258 114.152 31.5397 106.208C28.2536 98.2649 27.2285 89.5673 28.5776 81.0774C29.9267 72.5875 33.5976 64.636 39.1843 58.1024C44.771 51.5688 52.0558 46.7076 60.2332 44.0563C60.8235 44.8279 61.2933 45.6846 61.6266 46.5972C62.2574 48.4286 62.6768 50.3262 62.8765 52.2529V52.4066C62.9687 53.1648 63.0405 53.9025 63.1019 54.5889L63.1634 55.1524C63.4093 57.6728 63.5323 59.9781 63.5425 62.1809V63.7896C57.1315 69.52 51.382 75.9499 46.4014 82.9593C44.9945 85.0439 43.7116 87.2096 42.5592 89.445C41.6353 91.2108 40.8442 93.043 40.1925 94.9264C39.6938 96.3824 39.3303 97.8812 39.1064 99.4038C38.9223 100.586 38.8536 101.784 38.9015 102.98C38.9489 103.867 39.0932 104.746 39.3318 105.602C40.2847 109.199 42.5592 111.422 45.9403 112.047C46.1943 112.089 46.4514 112.109 46.7088 112.109C47.0571 112.109 47.385 112.109 47.7333 112.109C50.8522 111.967 53.8222 110.734 56.1246 108.625C59.3793 105.812 62.0255 102.364 63.9011 98.4919C66.1755 93.776 67.7924 88.7704 68.7063 83.6151C69.7967 78.2111 70.4613 72.7299 70.694 67.2219C73.0019 65.4795 75.4763 63.9694 78.0812 62.7137C73.4194 68.3182 72.4461 75.2341 76.1141 79.6808C77.1576 80.8843 78.4577 81.8385 79.9187 82.4733C81.3798 83.1081 82.9646 83.4072 84.5565 83.3487C89.035 83.1726 93.3203 81.4781 96.708 78.5435C97.3607 78.0044 97.9832 77.4297 98.5727 76.8222C98.5727 77.9902 98.5727 79.2197 98.5727 80.5414C92.1415 86.3258 86.3844 92.8184 81.4111 99.8956C79.9951 101.976 78.7085 104.142 77.5587 106.381C76.639 108.149 75.8481 109.981 75.1919 111.863C74.6969 113.32 74.3335 114.818 74.1059 116.34C73.9217 117.522 73.8531 118.72 73.9009 119.916C73.9473 120.801 74.0951 121.677 74.3415 122.528C75.2841 126.135 77.5689 128.358 80.9398 128.983C81.1975 129.023 81.4577 129.043 81.7184 129.045C82.0668 129.045 82.3844 129.045 82.743 129.045C85.5094 129.045 88.3372 127.867 91.1445 125.561C94.3984 122.746 97.0414 119.294 98.9108 115.418C101.185 110.706 102.802 105.703 103.716 100.551C104.85 95.0318 105.535 89.4296 105.765 83.7996C109.741 80.2238 114.115 76.6275 118.798 73.1337C120.452 78.0513 121.269 83.2117 121.216 88.3999Z" fill="white"/>
<path d="M97.0465 15.2042C96.9737 21.2077 94.5376 26.9405 90.2664 31.1599C85.9952 35.3794 80.2331 37.7453 74.2292 37.7449C72.6908 37.7484 71.1562 37.5939 69.6493 37.2839C69.8988 33.9975 70.8193 30.7972 72.3542 27.8806C73.8892 24.964 76.0058 22.3932 78.5734 20.3269C81.141 18.2605 84.105 16.7425 87.2823 15.8667C90.4596 14.991 93.7828 14.7759 97.0465 15.235V15.2042Z" fill="white"/>
<path d="M60.3461 39.7529C63.8827 39.7529 66.7497 36.8859 66.7497 33.3493C66.7497 29.8127 63.8827 26.9457 60.3461 26.9457C56.8095 26.9457 53.9425 29.8127 53.9425 33.3493C53.9425 36.8859 56.8095 39.7529 60.3461 39.7529Z" fill="white"/>
</svg>
