<svg width="150" height="150" viewBox="0 0 150 150" fill="none" xmlns="http://www.w3.org/2000/svg">
<path d="M46.29 59.2172V72.9971L46.8701 73.5371V59.7372L46.29 59.2172ZM46.29 78.0471V79.5371L46.8701 79.6471V78.3071L46.29 78.0471ZM96.08 36.0471C95.97 36.2171 95.86 36.3871 95.76 36.5671C96.622 37.5364 97.414 38.5656 98.1301 39.6471L98.5601 39.2471C97.8128 38.1211 96.9839 37.0516 96.08 36.0471ZM101.99 46.3071L101.57 46.8971C101.977 48.2252 102.281 49.5825 102.48 50.9572H103.07C102.845 49.379 102.483 47.8232 101.99 46.3071ZM74.83 26.5171C69.16 26.5293 63.6217 28.2273 58.9191 31.395C54.2164 34.5627 50.5619 39.0572 48.42 44.3071L48.84 44.8171C50.5226 40.5624 53.2246 36.7861 56.7086 33.8203C60.1925 30.8545 64.3517 28.7901 68.8205 27.8085C73.2893 26.8268 77.9308 26.958 82.337 28.1906C86.7432 29.4231 90.7792 31.7192 94.09 34.8771C94.2 34.7071 94.3 34.5371 94.41 34.3771C89.1283 29.3525 82.1199 26.5463 74.83 26.5371V26.5171ZM46.29 81.8971V87.6172L46.8701 87.7172V82.0071L46.29 81.8971ZM47.29 47.7471C46.9193 49.1349 46.6552 50.5491 46.5001 51.9772L47.0701 52.1471C47.2094 50.7599 47.4568 49.3858 47.8101 48.0371L47.29 47.7471Z" fill="white"/>
<path d="M74.8301 43.2369C73.6434 43.2369 72.4834 42.8849 71.4967 42.2256C70.51 41.5664 69.7409 40.6293 69.2868 39.5329C68.8327 38.4365 68.7139 37.2301 68.9454 36.0662C69.1769 34.9023 69.7483 33.8333 70.5875 32.9942C71.4266 32.1551 72.4957 31.5836 73.6595 31.3521C74.8234 31.1206 76.0299 31.2394 77.1262 31.6935C78.2226 32.1477 79.1596 32.9167 79.8189 33.9034C80.4782 34.8901 80.8301 36.0502 80.8301 37.2369C80.8301 38.8282 80.198 40.3542 79.0728 41.4794C77.9475 42.6046 76.4214 43.2369 74.8301 43.2369ZM74.8301 31.9168C73.768 31.9168 72.7298 32.2318 71.8467 32.8218C70.9636 33.4119 70.2753 34.2506 69.8689 35.2319C69.4625 36.2131 69.3561 37.2927 69.5633 38.3344C69.7705 39.3761 70.282 40.333 71.033 41.084C71.784 41.835 72.7408 42.3464 73.7825 42.5536C74.8241 42.7608 75.9039 42.6545 76.8851 42.2481C77.8664 41.8417 78.705 41.1533 79.2951 40.2702C79.8852 39.3871 80.2001 38.3489 80.2001 37.2868C80.1974 35.8634 79.6308 34.4991 78.6243 33.4926C77.6178 32.4861 76.2535 31.9194 74.8301 31.9168Z" fill="white"/>
<path d="M103.37 72.0669V80.3868L102.79 80.6368V72.0769L103.37 72.0669Z" fill="white"/>
<path d="M105.69 71.8574V80.1774C105.87 79.9374 106.06 79.6974 106.27 79.4574V71.7573L105.69 71.8574Z" fill="white"/>
<path d="M100.77 37.3071C99.8484 35.9612 98.8254 34.6875 97.7101 33.4971L97.3701 33.9971C98.4465 35.1497 99.4328 36.3834 100.32 37.6871L100.77 37.3071Z" fill="white"/>
<path d="M105.51 51.7469C105.745 51.9002 105.96 52.0816 106.15 52.287C105.875 49.2425 105.158 46.2544 104.02 43.417L103.62 43.9871C104.587 46.48 105.222 49.0888 105.51 51.7469Z" fill="white"/>
<path d="M105.69 119.307H43.9702V101.457C43.8995 101.488 43.8258 101.511 43.7502 101.527L43.3901 101.617V119.887H106.29V96.7871C106.093 96.714 105.899 96.6306 105.71 96.5371L105.69 119.307Z" fill="white"/>
<path d="M43.9702 56.657C43.7602 56.387 43.5601 56.127 43.3901 55.877V69.9969C43.5701 70.2169 43.7702 70.437 43.9702 70.647V56.657Z" fill="white"/>
<path d="M45.1999 46.717L44.6699 46.4771C44.2085 48.0748 43.8741 49.7066 43.6699 51.3571L44.2399 51.457C44.4414 49.8553 44.7622 48.2709 45.1999 46.717Z" fill="white"/>
<path d="M43.9702 76.947L43.3901 76.687V79.2469H43.9702V76.947Z" fill="white"/>
<path d="M68.8602 24.8071L69.5801 24.6771H69.8401L70.3702 24.5972H70.6202L71.1702 24.5271H71.3901L71.9702 24.4672H75.3301C76.8788 24.494 78.4232 24.6377 79.9501 24.8971L80.7701 25.0371C86.3221 26.135 91.4619 28.7482 95.6202 32.5872L95.9501 32.0972C91.7913 28.2831 86.6768 25.667 81.1501 24.5271L82.6102 18.0771L82.3401 18.0171C80.6247 17.5868 78.8746 17.3091 77.1102 17.1871C77.0713 16.5943 76.8084 16.0384 76.3748 15.6322C75.9412 15.226 75.3693 15 74.7751 15C74.181 15 73.6091 15.226 73.1755 15.6322C72.7418 16.0384 72.479 16.5943 72.4402 17.1871C70.6768 17.3231 68.9275 17.604 67.2101 18.0271L66.9302 18.0972L68.3901 24.5371C63.735 25.5302 59.3646 27.5625 55.6052 30.4821C51.8459 33.4016 48.7949 37.1328 46.6802 41.3971C46.7702 41.6971 46.8602 41.9672 46.9302 42.2072C48.9645 37.79 52.0096 33.9134 55.8192 30.8907C59.6288 27.8681 64.0962 25.784 68.8602 24.8071ZM80.6501 24.1771L80.0602 24.0771L79.4501 23.9772L78.7101 23.8871L78.1102 23.8071L77.2601 23.7372H76.7601C76.3101 23.7372 75.8501 23.6871 75.4001 23.6771H75.1302V19.5171C75.2386 19.5077 75.3457 19.4877 75.4501 19.4572C75.5566 19.4258 75.6603 19.3857 75.7601 19.3372H75.8202C75.9177 19.2914 76.0113 19.2379 76.1002 19.1771C76.1913 19.1092 76.2781 19.0358 76.3602 18.9572C76.4411 18.8808 76.5147 18.7971 76.5801 18.7072C76.6401 18.6172 76.7002 18.5271 76.7502 18.4371V18.3771C76.8037 18.2783 76.8473 18.1745 76.8802 18.0671C76.8802 17.9571 76.9401 17.8571 76.9601 17.7471C78.5876 17.8675 80.2028 18.1183 81.7902 18.4971L80.6501 24.1771ZM74.8401 15.3871C75.3061 15.3871 75.7533 15.5708 76.0847 15.8984C76.4161 16.2261 76.6049 16.6711 76.6102 17.1371V17.2072C76.5997 17.6661 76.4093 18.1024 76.0801 18.4222C75.7509 18.7421 75.3092 18.9199 74.8502 18.9171H74.6802C74.2799 18.8768 73.9052 18.7013 73.618 18.4196C73.3308 18.1378 73.1481 17.7667 73.1002 17.3672C73.1002 17.3672 73.1002 17.2672 73.1002 17.2172V17.1471C73.1027 16.6845 73.2862 16.2414 73.6115 15.9125C73.9367 15.5835 74.3777 15.3949 74.8401 15.3871ZM72.5302 17.5271C72.5474 17.6392 72.5742 17.7496 72.6102 17.8572C72.6465 17.9649 72.6934 18.0686 72.7502 18.1671C72.8043 18.2641 72.8644 18.3576 72.9302 18.4471C72.9981 18.5351 73.0716 18.6186 73.1501 18.6971L73.4001 18.9171H73.4501L73.7302 19.0771H73.7902C73.8892 19.1274 73.9931 19.1676 74.1002 19.1971C74.2082 19.2268 74.3186 19.2468 74.4302 19.2571V23.4171H72.9802L71.9802 23.4971H71.6002C71.2402 23.4971 70.8801 23.5771 70.5201 23.6271H70.3901C70.0001 23.6271 69.6202 23.7471 69.2402 23.8171H69.0801L67.7502 17.9171C69.3304 17.6582 70.9289 17.5278 72.5302 17.5271Z" fill="white"/>
<path d="M43.4902 86.8868L43.9702 87.0369V81.6069H43.3901V86.7869H43.5101L43.4902 86.8868Z" fill="white"/>
<path d="M32.6398 58.737C32.7419 58.5591 32.7699 58.3479 32.7175 58.1495C32.6651 57.9511 32.5365 57.7813 32.3598 57.677C32.2718 57.627 32.1749 57.595 32.0745 57.5825C31.9741 57.5701 31.8722 57.5775 31.7747 57.6045C31.6772 57.6314 31.5859 57.6773 31.5062 57.7395C31.4264 57.8017 31.3597 57.879 31.3098 57.967C31.224 58.2202 31.2152 58.4931 31.2846 58.7512C31.354 59.0093 31.4985 59.2411 31.6998 59.417C32.0598 59.627 32.4298 59.097 32.6398 58.737Z" fill="white"/>
<path d="M33.8698 60.5271C33.9703 60.5146 34.0673 60.4825 34.1553 60.4325C34.2434 60.3825 34.3207 60.3157 34.3829 60.2358C34.4451 60.156 34.491 60.0647 34.5179 59.9672C34.5449 59.8696 34.5523 59.7676 34.5398 59.6671C34.5273 59.5666 34.4952 59.4696 34.4452 59.3816C34.3952 59.2935 34.3284 59.2163 34.2485 59.154C34.1687 59.0918 34.0774 59.046 33.9798 59.019C33.8822 58.9921 33.7803 58.9846 33.6798 58.9971C33.4257 59.0818 33.2025 59.2402 33.0387 59.4521C32.8749 59.6641 32.7778 59.9199 32.7598 60.1871C32.8098 60.6071 33.4398 60.5771 33.8698 60.5271Z" fill="white"/>
<path d="M30.4201 59.9869C30.8101 59.8169 30.6201 59.2169 30.4201 58.8169C30.3419 58.6272 30.1915 58.4764 30.0021 58.3977C29.8127 58.3189 29.5997 58.3186 29.4101 58.3968C29.2205 58.4751 29.0697 58.6255 28.9909 58.8149C28.9122 59.0043 28.9119 59.2172 28.9901 59.4068C29.1426 59.636 29.3606 59.8139 29.6157 59.9173C29.8707 60.0208 30.1511 60.0451 30.4201 59.9869Z" fill="white"/>
<path d="M28.78 61.977C28.7851 62.0782 28.8102 62.1773 28.8537 62.2688C28.8972 62.3602 28.9583 62.4423 29.0336 62.5101C29.1088 62.5779 29.1967 62.6301 29.2922 62.6639C29.3877 62.6977 29.4889 62.7124 29.59 62.707C29.8482 62.6391 30.0808 62.4966 30.2586 62.2974C30.4364 62.0983 30.5517 61.8512 30.59 61.587C30.59 61.157 29.9301 61.137 29.5001 61.167C29.3993 61.172 29.3005 61.1972 29.2096 61.2408C29.1186 61.2844 29.0373 61.3457 28.9703 61.4211C28.9033 61.4965 28.8519 61.5845 28.8193 61.6799C28.7866 61.7753 28.7733 61.8764 28.78 61.977Z" fill="white"/>
<path d="M32.6401 63.1771C32.6243 62.9109 32.5306 62.6552 32.3705 62.4418C32.2105 62.2284 31.9913 62.0669 31.7402 61.9772C31.3202 61.9172 31.1802 62.5372 31.1202 62.9772C31.0973 63.0806 31.0961 63.1875 31.1165 63.2914C31.1368 63.3953 31.1785 63.4939 31.2387 63.581C31.2989 63.668 31.3764 63.7418 31.4664 63.7976C31.5564 63.8534 31.657 63.89 31.7618 63.9052C31.8666 63.9203 31.9733 63.9137 32.0754 63.8858C32.1776 63.8578 32.2728 63.809 32.3553 63.7426C32.4377 63.6761 32.5055 63.5934 32.5546 63.4995C32.6036 63.4057 32.6327 63.3028 32.6401 63.1972V63.1771Z" fill="white"/>
<path d="M24.7601 61.547C25.1401 61.737 25.4701 61.197 25.6601 60.817C25.7384 60.6369 25.7458 60.4338 25.681 60.2484C25.6161 60.0631 25.4837 59.909 25.3102 59.817C25.1304 59.7363 24.9264 59.7276 24.7404 59.7928C24.5544 59.8579 24.4004 59.9918 24.3102 60.167C24.2447 60.416 24.2523 60.6785 24.3321 60.9232C24.4119 61.168 24.5605 61.3845 24.7601 61.547Z" fill="white"/>
<path d="M26.9904 62.5271C27.0957 62.5156 27.1974 62.4825 27.2894 62.4298C27.3813 62.3772 27.4614 62.3061 27.5246 62.2211C27.5878 62.1361 27.6327 62.0389 27.6567 61.9357C27.6806 61.8325 27.683 61.7255 27.6637 61.6214C27.6444 61.5172 27.6038 61.4181 27.5444 61.3304C27.4851 61.2426 27.4083 61.1681 27.3188 61.1114C27.2293 61.0546 27.1291 61.017 27.0244 61.0008C26.9197 60.9846 26.8128 60.9901 26.7103 61.0171C26.464 61.1167 26.2522 61.2863 26.1011 61.5049C25.9501 61.7235 25.8664 61.9815 25.8604 62.2471C25.9404 62.6671 26.5704 62.6071 26.9904 62.5271Z" fill="white"/>
<path d="M23.5202 62.197C23.9002 62.007 23.6702 61.417 23.5202 61.027C23.4785 60.9317 23.4179 60.8459 23.3421 60.7747C23.2662 60.7035 23.1767 60.6484 23.079 60.6127C22.9813 60.577 22.8774 60.5614 22.7735 60.567C22.6696 60.5726 22.5679 60.5993 22.4746 60.6453C22.3813 60.6913 22.2982 60.7556 22.2305 60.8346C22.1628 60.9136 22.1117 61.0054 22.0805 61.1046C22.0492 61.2039 22.0384 61.3085 22.0487 61.412C22.059 61.5155 22.0901 61.6159 22.1402 61.707C22.2987 61.9128 22.5133 62.0685 22.758 62.1554C23.0028 62.2423 23.2675 62.2568 23.5202 62.197Z" fill="white"/>
<path d="M23.7903 63.7871C23.7903 63.3571 23.1003 63.3771 22.6803 63.4271C22.5798 63.4389 22.4827 63.4704 22.3944 63.5197C22.3061 63.5691 22.2284 63.6354 22.1657 63.7148C22.103 63.7942 22.0566 63.8852 22.029 63.9825C22.0015 64.0799 21.9935 64.1816 22.0053 64.2821C22.0171 64.3825 22.0486 64.4797 22.0979 64.568C22.1473 64.6563 22.2136 64.734 22.2929 64.7967C22.3723 64.8594 22.4633 64.9058 22.5606 64.9333C22.658 64.9608 22.7598 64.9689 22.8603 64.9571C23.1126 64.8742 23.3351 64.7192 23.5004 64.5113C23.6657 64.3034 23.7664 64.0516 23.7903 63.7871Z" fill="white"/>
<path d="M25.9299 65.2468C25.8966 64.9785 25.7834 64.7264 25.6051 64.5232C25.4268 64.3199 25.1916 64.175 24.9299 64.1069C24.4999 64.1069 24.3999 64.6969 24.3599 65.1069C24.3517 65.2081 24.3636 65.3098 24.3949 65.4064C24.4262 65.5029 24.4763 65.5924 24.5423 65.6696C24.6083 65.7467 24.6889 65.8101 24.7794 65.856C24.87 65.9018 24.9687 65.9293 25.07 65.9369C25.1722 65.9508 25.2761 65.9438 25.3755 65.9163C25.4749 65.8887 25.5677 65.8412 25.6481 65.7766C25.7286 65.7121 25.7951 65.6318 25.8435 65.5408C25.892 65.4497 25.9214 65.3496 25.9299 65.2468Z" fill="white"/>
<path d="M28.9899 69.307C29.4099 69.387 29.5799 68.777 29.6699 68.307C29.7097 68.1054 29.6678 67.8964 29.5534 67.7257C29.439 67.5551 29.2615 67.4368 29.0599 67.397C28.8584 67.3572 28.6492 67.3992 28.4786 67.5136C28.3079 67.628 28.1897 67.8054 28.1499 68.007C28.1425 68.2831 28.2189 68.555 28.3688 68.787C28.5187 69.019 28.7352 69.2003 28.9899 69.307Z" fill="white"/>
<path d="M31.4 69.6971C31.4999 69.659 31.5907 69.6006 31.6667 69.5256C31.7427 69.4505 31.8023 69.3606 31.8417 69.2613C31.8811 69.162 31.8993 69.0555 31.8953 68.9488C31.8914 68.842 31.8652 68.7373 31.8186 68.6412C31.7719 68.5451 31.7058 68.4598 31.6243 68.3907C31.5429 68.3215 31.448 68.27 31.3457 68.2396C31.2433 68.2091 31.1357 68.2002 31.0297 68.2136C30.9237 68.2269 30.8217 68.2622 30.7301 68.3171C30.5177 68.477 30.3578 68.6965 30.2705 68.9476C30.1833 69.1986 30.1727 69.47 30.2401 69.7271C30.4301 70.1171 31.02 69.8871 31.4 69.6971Z" fill="white"/>
<path d="M26.5402 69.1168C26.4637 69.1836 26.4012 69.2648 26.3563 69.3558C26.3114 69.4469 26.2849 69.5459 26.2784 69.6472C26.2719 69.7485 26.2855 69.8501 26.3184 69.9462C26.3513 70.0422 26.4029 70.1308 26.4701 70.2068C26.6847 70.3651 26.9406 70.4579 27.2068 70.4739C27.4731 70.4898 27.7382 70.4283 27.9701 70.2968C28.2901 70.0168 27.9102 69.5068 27.6202 69.1868C27.5543 69.1106 27.4739 69.0483 27.3837 69.0035C27.2935 68.9588 27.1953 68.9324 27.0948 68.9259C26.9943 68.9194 26.8936 68.9329 26.7983 68.9657C26.7031 68.9985 26.6154 69.0498 26.5402 69.1168Z" fill="white"/>
<path d="M27.0601 72.7171C27.1377 72.9049 27.2863 73.0543 27.4737 73.133C27.661 73.2117 27.8718 73.2131 28.0601 73.137C28.284 72.9912 28.4595 72.7822 28.5645 72.5365C28.6696 72.2909 28.6994 72.0196 28.6501 71.757C28.4801 71.357 27.8801 71.547 27.4801 71.757C27.3034 71.8363 27.1626 71.9786 27.0849 72.1561C27.0073 72.3335 26.9985 72.5335 27.0601 72.7171Z" fill="white"/>
<path d="M29.8599 71.7573C29.4399 71.8373 29.5099 72.4673 29.5899 72.8873C29.6038 72.9911 29.6389 73.091 29.6928 73.1808C29.7467 73.2706 29.8183 73.3485 29.9033 73.4097C29.9884 73.4708 30.085 73.5141 30.1873 73.5366C30.2896 73.5592 30.3953 73.5605 30.4982 73.5408C30.601 73.521 30.6988 73.4805 30.7855 73.4216C30.8721 73.3628 30.9459 73.2869 31.0022 73.1986C31.0585 73.1103 31.0962 73.0115 31.113 72.9081C31.1298 72.8047 31.1253 72.699 31.0999 72.5974C30.9992 72.3506 30.8277 72.1391 30.6071 71.9896C30.3864 71.8401 30.1264 71.7593 29.8599 71.7573Z" fill="white"/>
<path d="M28.8597 74.6768C28.7877 74.9331 28.7918 75.2048 28.8718 75.4587C28.9517 75.7127 29.1039 75.938 29.3097 76.1068C29.6897 76.3068 30.0297 75.7667 30.2297 75.3867C30.2763 75.2968 30.3048 75.1986 30.3134 75.0977C30.3221 74.9967 30.3108 74.895 30.2801 74.7985C30.2495 74.7019 30.2001 74.6123 30.1348 74.5348C30.0696 74.4573 29.9897 74.3934 29.8997 74.3468C29.8098 74.3002 29.7115 74.2717 29.6106 74.2631C29.5096 74.2544 29.408 74.2658 29.3114 74.2964C29.2148 74.327 29.1252 74.3764 29.0477 74.4417C28.9702 74.5069 28.9064 74.5868 28.8597 74.6768Z" fill="white"/>
<path d="M30.3999 76.8271C30.4699 77.2471 31.1099 77.197 31.5299 77.127C31.6294 77.1113 31.7247 77.0759 31.8104 77.023C31.896 76.9701 31.9704 76.9007 32.029 76.8188C32.0876 76.7369 32.1294 76.6442 32.1519 76.5461C32.1743 76.4479 32.1771 76.3462 32.1599 76.247C32.1256 76.0447 32.0129 75.8641 31.8463 75.7443C31.6797 75.6245 31.4726 75.5753 31.2699 75.6071C31.0213 75.7029 30.8064 75.8696 30.6517 76.0865C30.4971 76.3034 30.4095 76.5609 30.3999 76.8271Z" fill="white"/>
<path d="M28.0602 76.7274C28.4502 76.5474 28.2302 75.9474 28.0602 75.5674C27.974 75.3817 27.8175 75.2379 27.6253 75.1676C27.4331 75.0973 27.2208 75.1062 27.0351 75.1924C26.8495 75.2786 26.7057 75.435 26.6354 75.6272C26.565 75.8194 26.5739 76.0317 26.6601 76.2174C26.8194 76.4284 27.0364 76.5888 27.2848 76.6793C27.5332 76.7698 27.8025 76.7865 28.0602 76.7274Z" fill="white"/>
<path d="M27.35 79.4874C27.6141 79.4137 27.8502 79.263 28.0283 79.0546C28.2064 78.8463 28.3184 78.5896 28.35 78.3173C28.35 77.8973 27.67 77.9073 27.24 77.9473C27.1389 77.9578 27.0409 77.9882 26.9515 78.0366C26.8621 78.085 26.7831 78.1505 26.719 78.2294C26.6549 78.3084 26.607 78.3991 26.5781 78.4965C26.5491 78.594 26.5395 78.6962 26.55 78.7973C26.5605 78.8984 26.5909 78.9965 26.6393 79.0859C26.6877 79.1753 26.7532 79.2542 26.8321 79.3183C26.9111 79.3824 27.0019 79.4303 27.0993 79.4593C27.1967 79.4883 27.2989 79.4979 27.4 79.4874H27.35Z" fill="white"/>
<path d="M29.5699 80.517C29.7728 80.5365 29.975 80.4749 30.1324 80.3456C30.2899 80.2162 30.3897 80.0298 30.4099 79.827C30.3817 79.5547 30.2708 79.2975 30.092 79.0901C29.9132 78.8827 29.6751 78.735 29.4099 78.667C28.9899 78.667 28.8699 79.247 28.8299 79.667C28.8188 79.7721 28.8296 79.8784 28.8614 79.9792C28.8933 80.0801 28.9455 80.1733 29.0149 80.2531C29.0844 80.3328 29.1695 80.3973 29.2649 80.4427C29.3604 80.4882 29.4643 80.5134 29.5699 80.517Z" fill="white"/>
<path d="M126.97 87.307C125.92 86.3261 124.583 85.7074 123.156 85.5419C121.729 85.3763 120.286 85.6724 119.04 86.387L117.94 86.2271C120.99 84.6571 121.09 79.987 121.09 79.767V79.317L120.67 79.507C119.387 80.0308 118.296 80.9363 117.545 82.1007C116.793 83.2651 116.418 84.6322 116.47 86.017C116.236 85.9819 115.997 86.0046 115.774 86.083C115.551 86.1614 115.35 86.2933 115.19 86.467L113.7 88.087C113.524 88.2049 113.325 88.2837 113.117 88.3182C112.908 88.3527 112.694 88.3421 112.49 88.287L111.58 88.027C115.21 86.767 116.03 81.587 116.07 81.347L116.14 80.887L115.7 81.017C114.198 81.4032 112.852 82.2416 111.843 83.4186C110.834 84.5956 110.212 86.0543 110.06 87.597L108.66 87.207C108.308 87.1094 107.941 87.0855 107.58 87.137C109.69 84.137 108.37 79.457 108.3 79.217L108.17 78.777L107.83 79.077C106.497 80.1652 105.536 81.6417 105.08 83.3013C104.625 84.9608 104.698 86.721 105.29 88.337L102.52 90.087C102.404 90.1641 102.28 90.2278 102.15 90.277H101.72V90.347C101.389 90.4108 101.05 90.4108 100.72 90.347L98.9598 90.1071C103.58 88.3871 104.03 81.617 104.05 81.307V80.847L103.62 81.027C101.794 81.6753 100.218 82.8819 99.1161 84.4757C98.0141 86.0695 97.4416 87.9697 97.4798 89.907L96.1498 89.7271C95.8986 89.7271 95.6478 89.7471 95.3998 89.787C94.8266 89.8966 94.2861 90.1361 93.8198 90.4871C94.5998 88.6671 94.9198 86.0171 93.1998 82.6171C97.6398 81.7171 101.2 79.467 102.2 76.937C102.441 76.2994 102.502 75.6077 102.377 74.9375C102.252 74.2673 101.945 73.6445 101.49 73.137C101.243 72.8025 100.915 72.5357 100.538 72.361C100.16 72.1862 99.7448 72.1091 99.3298 72.137C96.5698 72.297 92.8298 76.407 90.1398 79.877C91.7198 77.257 93.5198 74.527 95.4998 71.877C95.8998 71.647 97.7898 70.717 101.5 70.967C106.2 71.297 110.43 69.967 112.02 67.557C112.412 66.9878 112.639 66.3208 112.674 65.6304C112.709 64.9399 112.552 64.2532 112.22 63.647C112.048 63.2713 111.787 62.9435 111.459 62.6924C111.132 62.4413 110.747 62.2747 110.34 62.207C107.03 61.627 100.96 66.317 97.5598 69.207L98.1898 68.427L99.1098 67.337C100.816 65.3311 102.65 63.4372 104.6 61.667C106.486 61.0761 108.475 60.8855 110.44 61.1071C115.51 61.4371 119.78 60.287 121.32 58.167C121.685 57.6519 121.907 57.0491 121.963 56.4202C122.019 55.7912 121.908 55.1588 121.64 54.587C121.5 54.1977 121.265 53.8496 120.956 53.5752C120.647 53.3008 120.273 53.1088 119.87 53.017C117.87 52.517 114.65 54.017 111.66 55.807C115.47 52.367 120.34 46.9069 118.19 42.9969C117.36 41.4769 116.34 41.287 115.63 41.397C113.2 41.777 110.38 46.397 109.35 51.767C108.825 54.1492 108.123 56.489 107.25 58.767C106.38 59.417 105.54 60.107 104.71 60.837L104.19 61.267L102.87 62.387C104.99 59.227 106.75 55.787 106.15 53.687C106.015 53.2286 105.757 52.8158 105.405 52.4933C105.052 52.1707 104.618 51.9507 104.15 51.8571C103.444 51.6311 102.692 51.5831 101.963 51.7174C101.234 51.8517 100.549 52.1641 99.9698 52.627C97.8498 54.317 96.6098 58.237 96.8298 62.627C97.0213 64.9267 96.9239 67.2414 96.5398 69.517V69.637C96.0898 70.217 95.6398 70.807 95.1998 71.397L95.1098 71.4871C93.9898 72.9971 92.9398 74.487 91.9398 76.047C93.6698 72.127 95.1498 67.5871 93.9898 65.3671C93.7643 64.9493 93.4291 64.6009 93.0203 64.3595C92.6115 64.1181 92.1445 63.9927 91.6698 63.9969C90.9334 63.9163 90.1885 64.0203 89.5023 64.2997C88.8162 64.579 88.2105 65.0249 87.7398 65.597C86.0098 67.697 85.5998 71.787 86.7398 76.027C87.3789 78.2251 87.7581 80.4906 87.8698 82.777C85.5478 86.8852 83.4611 91.1221 81.6198 95.467H78.9498C80.7198 85.317 82.0898 76.7771 83.1498 69.6171L83.3398 69.387C105.83 41.287 109.72 32.597 109.76 32.517L110.13 31.657L109.34 32.157C95.8798 40.577 89.3898 50.157 86.3398 56.767C85.8098 57.917 85.3398 59.017 84.9598 60.057C88.026 47.9586 93.6678 36.6647 101.5 26.947C100.65 28.777 99.9598 30.677 99.7098 31.397L100.26 31.587C100.999 29.3965 101.93 27.2749 103.04 25.2469C102.911 26.1625 102.652 27.0549 102.27 27.897C101.607 29.2716 101.271 30.781 101.29 32.307H101.87C101.862 30.958 102.138 29.6224 102.68 28.387C103.056 27.5623 103.322 26.6914 103.47 25.797C103.609 26.7654 103.609 27.7487 103.47 28.717C103.224 30.0214 103.331 31.3679 103.78 32.6171L104.33 32.417C103.912 31.2716 103.812 30.0347 104.04 28.837C104.163 28.1443 104.207 27.4397 104.17 26.7371V26.807C104.983 28.6229 106.173 30.2454 107.66 31.567L108.04 31.127C106.63 29.8617 105.497 28.3197 104.71 26.597C104.51 26.087 104.32 25.597 104.13 25.017C104.671 25.5501 105.169 26.1253 105.62 26.7371C106.224 27.455 106.968 28.0418 107.808 28.4614C108.647 28.881 109.563 29.1245 110.5 29.177V28.587C109.654 28.5395 108.826 28.3199 108.068 27.9417C107.31 27.5634 106.637 27.0343 106.09 26.387C105.619 25.7551 105.101 25.1601 104.54 24.6071C105.35 24.8171 106.37 25.107 107.4 25.397C108.804 25.7518 110.165 26.2581 111.46 26.907L111.75 26.397C110.411 25.732 109.007 25.2092 107.56 24.837L106.78 24.6171H107.78C109.172 24.6013 110.562 24.7252 111.93 24.9871L112.06 24.417C110.652 24.1558 109.222 24.0286 107.79 24.037C106.93 24.037 106.14 23.977 105.5 23.927C106.697 23.7812 107.904 23.731 109.11 23.777C110.089 23.8255 111.071 23.7719 112.04 23.6171L111.96 23.037C111.032 23.1913 110.089 23.245 109.15 23.197C108.337 23.1476 107.522 23.1476 106.71 23.197C107.463 23.0165 108.235 22.9225 109.01 22.917C110.014 22.8909 111.001 22.6452 111.9 22.197L111.66 21.667C110.838 22.078 109.938 22.3067 109.02 22.337C108.006 22.3452 106.997 22.4863 106.02 22.757C106.9 22.287 108.02 21.667 109.31 20.947C109.81 20.667 110.38 20.367 111.04 20.037L110.77 19.517C110.11 19.847 109.54 20.157 109.02 20.437C107.81 21.117 106.74 21.707 105.89 22.167C106.801 21.4519 107.666 20.6805 108.48 19.8571C108.92 19.4271 109.48 18.957 109.99 18.457L109.6 18.017C109.03 18.527 108.52 19.017 108.07 19.437C107.216 20.3052 106.304 21.1138 105.34 21.8571C105.857 21.1296 106.414 20.4318 107.01 19.767C107.718 19.0331 108.367 18.244 108.95 17.407L108.48 17.077C107.91 17.8883 107.278 18.654 106.59 19.3671C105.826 20.2302 105.115 21.1384 104.46 22.087C104.77 21.337 105.05 20.677 105.29 20.157C105.88 18.833 106.368 17.4657 106.75 16.067L106.19 15.917C105.817 17.2852 105.339 18.6225 104.76 19.917C104.65 20.157 104.54 20.397 104.43 20.657C104.47 20.0828 104.446 19.506 104.36 18.937C104.186 17.8036 104.186 16.6503 104.36 15.517L103.78 15.437C103.601 16.6303 103.601 17.8437 103.78 19.037C103.9 19.7922 103.9 20.5618 103.78 21.317C103.682 20.5822 103.48 19.865 103.18 19.187C102.67 18.0245 102.262 16.82 101.96 15.587L101.39 15.7271C101.704 16.9939 102.126 18.2317 102.65 19.427C102.985 20.198 103.191 21.0191 103.26 21.8571L103.2 21.627V21.797C102.872 21.1003 102.406 20.4777 101.83 19.967C100.819 18.9804 99.9805 17.8311 99.3498 16.567L98.8298 16.827C99.4875 18.1531 100.367 19.357 101.43 20.387C101.986 20.8821 102.433 21.4885 102.74 22.167C102.246 21.6207 101.657 21.1699 101 20.837C99.6542 20.1103 98.3988 19.2275 97.2598 18.207L96.8698 18.637C98.0465 19.6876 99.3419 20.5972 100.73 21.347C101.262 21.6226 101.748 21.9802 102.17 22.407C101.797 22.1834 101.406 21.9927 101 21.837C99.2362 21.354 97.4422 20.9897 95.6298 20.7469L95.5398 21.317C97.3103 21.5642 99.0637 21.9215 100.79 22.387C101.359 22.6003 101.898 22.8896 102.39 23.2469C101.837 23.0527 101.263 22.9252 100.68 22.8671C98.7776 22.8606 96.8769 22.9775 94.9898 23.217L95.0598 23.797C96.9073 23.564 98.7677 23.4471 100.63 23.447C101.015 23.4864 101.396 23.5566 101.77 23.657C99.5009 23.9482 97.2506 24.3689 95.0298 24.917L95.1798 25.4771C97.4103 24.9294 99.6708 24.512 101.95 24.2271C99.7004 24.865 97.5275 25.7469 95.4698 26.8571L95.7598 27.3571C97.5163 26.4011 99.3659 25.627 101.28 25.047C99.9998 26.047 98.4098 27.447 96.6498 29.047L97.0398 29.4871C99.3398 27.4371 101.36 25.727 102.74 24.657L102.67 24.777C94.1346 34.6297 87.9581 46.2988 84.6098 58.897C86.8298 41.977 86.7398 36.407 86.7398 36.317V35.127L86.2198 36.197C79.5121 49.5846 75.9677 64.3334 75.8598 79.307C75.8379 84.7988 76.4486 90.2749 77.6798 95.627H74.6098C74.1098 94.087 73.0998 91.057 73.0198 90.827C72.5033 88.9619 71.8344 87.1424 71.0198 85.387C70.8098 84.827 70.5898 84.2771 70.3798 83.7371L70.3198 83.1071C70.3198 83.0271 69.5298 74.657 71.8498 67.767C74.2198 60.767 70.6898 52.977 70.6598 52.897L70.4398 52.427L70.1498 52.8571C65.4898 59.8571 65.6298 67.757 66.5698 73.147C66.7898 74.357 67.0498 75.507 67.3298 76.557C65.1098 71.677 62.7998 67.257 60.4998 63.277L60.3798 62.7469C60.3798 62.6769 58.7798 55.447 60.0598 49.177C61.3798 42.727 57.5698 36.517 57.4098 36.257L57.1398 35.817L56.8998 36.277C52.8998 44.277 55.0598 52.727 57.2498 57.937C54.0325 52.8629 50.4672 48.018 46.5798 43.437C45.3535 40.1996 44.7168 36.7688 44.6998 33.307C44.8998 28.307 41.2698 24.057 41.1198 23.887L40.7698 23.4969L40.6198 23.9871C38.6898 30.1271 40.9498 35.897 43.1198 39.597C41.6798 38.087 40.7598 37.247 40.5798 37.077C40.1698 36.397 34.6398 27.527 25.5798 27.657H25.0598L25.3398 28.097C25.4498 28.267 28.0498 32.337 32.3398 33.427C35.1986 34.295 37.878 35.6703 40.2498 37.4871C42.0275 39.1575 43.7165 40.9198 45.3098 42.767C42.1198 40.167 37.4798 37.6171 31.8798 38.1071H31.3698L31.6698 38.527C31.8198 38.717 35.1598 43.167 40.1198 44.037C43.497 44.7918 46.7113 46.1466 49.6098 48.037L49.7898 48.157C53.1571 52.5203 56.2593 57.0819 59.0798 61.817C55.6598 57.567 50.2498 52.817 42.7098 52.037H42.1998L42.4198 52.507C42.5498 52.787 45.7098 59.3471 51.8498 61.7271C57.8498 64.0371 63.0398 69.287 63.0898 69.337L63.4298 69.677C65.1598 73.017 66.8698 76.6269 68.5098 80.4969C65.6298 75.8969 60.6698 70.247 52.9098 68.097L52.4098 67.957L52.5498 68.457C52.5498 68.537 54.9698 76.697 61.3798 80.457C67.3798 84.017 72.1698 90.457 72.5398 91.017C72.6598 91.387 73.5398 94.0171 74.0598 95.6071H70.8298C67.8305 91.7487 64.3526 88.2875 60.4798 85.307C58.9698 84.107 57.2198 82.8071 55.2198 81.4871C54.2998 80.8171 46.7598 75.237 42.5498 70.337C39.4556 66.7789 35.9817 63.5698 32.1898 60.767C32.1898 60.6523 32.1558 60.5402 32.092 60.4448C32.0283 60.3494 31.9377 60.2751 31.8317 60.2312C31.7257 60.1873 31.6092 60.1757 31.4966 60.1981C31.3841 60.2205 31.2808 60.2758 31.1996 60.3569C31.1185 60.438 31.0633 60.5413 31.041 60.6538C31.0186 60.7663 31.0301 60.883 31.074 60.989C31.1179 61.095 31.1922 61.1855 31.2875 61.2493C31.3829 61.313 31.4951 61.347 31.6098 61.347C31.6993 61.3425 31.7874 61.3222 31.8698 61.287C35.6232 64.0511 39.0576 67.2239 42.1098 70.7469C44.737 73.6493 47.6038 76.3254 50.6798 78.7469C46.4721 76.3674 42.0533 74.3823 37.4798 72.817C34.2075 68.6336 30.0564 65.2198 25.3198 62.817C25.3039 62.6658 25.2286 62.5272 25.1104 62.4315C24.9923 62.3359 24.841 62.2911 24.6898 62.307C24.5386 62.3229 24.4 62.3982 24.3043 62.5164C24.2087 62.6345 24.1639 62.7858 24.1798 62.937C24.1837 63.0132 24.2025 63.088 24.2352 63.1569C24.268 63.2258 24.314 63.2875 24.3707 63.3386C24.4273 63.3897 24.4935 63.4291 24.5654 63.4546C24.6374 63.4801 24.7136 63.4911 24.7898 63.4871C24.9068 63.4755 25.0179 63.4303 25.1098 63.3571C29.4126 65.6134 33.2313 68.6914 36.3498 72.417C34.2281 71.6319 32.0649 70.9642 29.8698 70.417C29.8211 70.3163 29.7442 70.2319 29.6485 70.1738C29.5528 70.1158 29.4423 70.0866 29.3304 70.09C29.2186 70.0933 29.1101 70.129 29.018 70.1926C28.9259 70.2563 28.8543 70.3451 28.8116 70.4486C28.7689 70.5521 28.7571 70.6656 28.7775 70.7756C28.798 70.8857 28.8498 70.9875 28.9268 71.0687C29.0037 71.15 29.1026 71.2071 29.2114 71.2334C29.3201 71.2597 29.4342 71.2541 29.5398 71.217C29.6561 71.1789 29.7553 71.1009 29.8198 70.9969C38.7948 73.0516 47.3007 76.7838 54.8898 81.9969L54.9798 82.067C56.9198 83.347 58.6298 84.617 60.0998 85.787C62.0423 87.348 63.8953 89.0173 65.6498 90.787C60.2998 86.177 51.4298 80.027 42.3298 80.157C34.5398 80.277 31.1398 78.157 29.8598 77.467C29.847 77.3194 29.7772 77.1824 29.6652 77.0853C29.5532 76.9882 29.4078 76.9387 29.2598 76.947C29.1779 76.9362 29.0947 76.943 29.0156 76.9669C28.9366 76.9909 28.8636 77.0314 28.8015 77.0858C28.7394 77.1403 28.6896 77.2074 28.6555 77.2826C28.6214 77.3578 28.6038 77.4394 28.6038 77.522C28.6038 77.6046 28.6214 77.6863 28.6555 77.7615C28.6896 77.8367 28.7394 77.9037 28.8015 77.9581C28.8636 78.0126 28.9366 78.0532 29.0156 78.0771C29.0947 78.1011 29.1779 78.1079 29.2598 78.097C29.3675 78.0944 29.472 78.0595 29.5598 77.9969C30.9698 78.8269 34.3898 80.8571 42.2898 80.7371H42.5798C55.3698 80.7371 67.6998 93.3171 69.9298 95.7371H64.8898L63.2698 94.137C63.0898 93.947 58.7198 89.537 49.4598 88.967H49.3398C48.9233 88.8533 48.4896 88.816 48.0598 88.8571C47.1598 88.7471 46.3298 88.607 45.5598 88.437H45.4598C44.4599 88.2104 43.4748 87.9232 42.5098 87.577L42.2598 87.527L39.1898 86.347H38.9798C37.9336 85.9318 36.8571 85.5975 35.7598 85.347H35.4298C34.1933 85.122 32.9356 85.0348 31.6798 85.087C30.8186 84.8417 29.9143 84.7871 29.0298 84.927C28.3466 84.7818 27.6391 84.7965 26.9626 84.97C26.286 85.1434 25.6588 85.4709 25.1298 85.927C24.5358 86.4786 23.8247 86.8888 23.0498 87.127C22.8898 87.127 22.4098 87.327 22.4398 87.717C22.4698 88.107 22.7798 88.217 23.4398 88.317H23.5698C24.2462 88.2172 24.8937 87.9753 25.4698 87.6071L25.3298 87.8571C25.0119 88.6014 24.5258 89.262 23.9098 89.787C23.7798 89.897 23.3998 90.227 23.5798 90.577C23.6363 90.6661 23.7173 90.737 23.8131 90.7814C23.9088 90.8257 24.0153 90.8415 24.1198 90.827C24.3161 90.8214 24.511 90.7912 24.6998 90.7371C25.6998 90.4571 27.6398 87.287 27.6998 87.257C28.0112 86.7687 28.492 86.4126 29.0498 86.257L28.9598 86.317C28.1298 86.727 27.9598 87.387 27.6198 88.317C27.5498 88.547 27.4698 88.787 27.3798 89.047C27.1743 89.8283 26.7948 90.553 26.2698 91.167C26.1598 91.297 25.8198 91.6869 26.0498 91.9969C26.0999 92.0588 26.1644 92.1076 26.2376 92.1389C26.3107 92.1703 26.3904 92.1834 26.4698 92.177C26.7203 92.1637 26.9654 92.0991 27.1898 91.9871C28.1898 91.5571 29.5698 88.127 29.5798 88.097C29.9498 87.187 31.1198 86.757 31.6798 86.547C31.8111 86.5054 31.9383 86.4518 32.0598 86.387C32.1639 86.3002 32.2448 86.1891 32.2954 86.0635C32.346 85.9378 32.3647 85.8016 32.3498 85.667C32.7398 85.667 33.1098 85.667 33.4698 85.667C33.1266 85.8206 32.7927 85.9943 32.4698 86.187C32.2398 86.317 32.0198 86.447 31.7998 86.557C30.7998 87.047 30.5898 87.817 30.2498 88.887C30.1598 89.157 30.0698 89.4369 29.9598 89.7469C29.7127 90.6877 29.2545 91.5599 28.6198 92.297C28.4998 92.437 28.1298 92.877 28.3698 93.207C28.4241 93.2725 28.4933 93.3239 28.5716 93.3569C28.6499 93.39 28.7351 93.4037 28.8198 93.397C29.1118 93.381 29.3975 93.3062 29.6598 93.177C30.8198 92.677 32.4598 88.627 32.4798 88.587C32.9198 87.477 34.3298 86.967 34.9998 86.717C35.1529 86.6698 35.3004 86.606 35.4398 86.527C35.6215 86.3902 35.763 86.2071 35.8498 85.9969C36.3398 86.0969 36.8498 86.2271 37.2598 86.3671C36.6045 86.5677 35.9839 86.8678 35.4198 87.257C35.1298 87.427 34.8598 87.5971 34.5798 87.7371C33.4698 88.2971 33.1898 89.197 32.7898 90.437C32.6898 90.737 32.5798 91.077 32.4498 91.437C32.1646 92.5446 31.6274 93.5714 30.8798 94.437C30.7398 94.597 30.3298 95.087 30.5898 95.437C30.6497 95.5068 30.7255 95.5614 30.8107 95.5962C30.8959 95.631 30.9881 95.6449 31.0798 95.637C31.4281 95.6242 31.7694 95.5355 32.0798 95.377C33.4298 94.797 35.3298 90.087 35.3498 90.037C35.8698 88.737 37.5298 88.127 38.3498 87.837C38.523 87.7796 38.6904 87.706 38.8498 87.6171C39.0473 87.4745 39.186 87.2646 39.2398 87.027L40.2398 87.417L40.6098 87.567C39.7947 87.7664 39.0201 88.1047 38.3198 88.567C38.0498 88.727 37.7798 88.877 37.5198 89.007C36.3398 89.607 36.0298 90.567 35.5998 91.897C35.4998 92.2303 35.3798 92.5904 35.2398 92.9771C34.9297 94.1623 34.3515 95.2605 33.5498 96.187C33.4098 96.357 32.9698 96.867 33.2498 97.187C33.3092 97.2608 33.3859 97.3186 33.4732 97.3552C33.5605 97.3919 33.6556 97.4063 33.7498 97.397C34.0968 97.3684 34.4356 97.2769 34.7498 97.127C35.9298 96.617 37.6698 92.827 38.2398 91.407C38.8098 89.987 40.5898 89.337 41.4498 89.027C41.6343 88.9699 41.812 88.8928 41.9798 88.797C42.1872 88.6492 42.3471 88.4442 42.4398 88.207L43.4398 88.547C42.6778 88.7725 41.9532 89.1095 41.2898 89.547C40.9598 89.737 40.6598 89.917 40.3498 90.077C39.0698 90.727 38.7298 91.767 38.2698 93.217C38.1498 93.567 38.0198 93.967 37.8698 94.397C37.526 95.6996 36.8898 96.9069 36.0098 97.927C35.8598 98.107 35.3898 98.647 35.6798 99.047C35.7464 99.12 35.8287 99.1769 35.9205 99.2133C36.0124 99.2496 36.1113 99.2645 36.2098 99.257C36.5944 99.2291 36.9707 99.1308 37.3198 98.967C38.6098 98.407 40.4998 94.267 41.1198 92.717C41.7398 91.167 43.7098 90.437 44.6598 90.097C44.8569 90.031 45.0477 89.9473 45.2298 89.847C45.4736 89.6686 45.647 89.4103 45.7198 89.1171L46.7198 89.297C46.1858 89.5487 45.671 89.8395 45.1798 90.167C44.785 90.4376 44.3705 90.6782 43.9398 90.887C42.5698 91.517 42.1798 92.6071 41.6298 94.1071C41.4998 94.4771 41.3498 94.897 41.1798 95.347C40.771 96.7074 40.056 97.9559 39.0898 98.9969C38.9298 99.1769 38.4198 99.727 38.6998 100.147C38.7695 100.231 38.8589 100.297 38.96 100.339C39.0611 100.381 39.1709 100.397 39.2798 100.387C39.666 100.363 40.045 100.271 40.3998 100.117C41.7798 99.5771 43.9198 95.287 44.6298 93.677C45.3398 92.067 47.4498 91.367 48.4598 91.037C48.6706 90.9775 48.875 90.8971 49.0698 90.797C49.2406 90.6513 49.38 90.4726 49.4797 90.2715C49.5794 90.0704 49.6372 89.8511 49.6498 89.627C50.4198 89.627 51.1498 89.7571 51.8398 89.8571C51.2794 90.0445 50.7344 90.2751 50.2098 90.547C49.7446 90.7762 49.2672 90.9798 48.7798 91.157C47.1898 91.677 46.6498 92.757 45.7798 94.407C45.5798 94.807 45.3598 95.247 45.0998 95.717C43.8098 98.097 43.3598 98.597 42.2998 99.507C42.0998 99.677 41.4798 100.207 41.7298 100.677C41.8187 100.802 41.9405 100.9 42.0817 100.96C42.223 101.02 42.378 101.04 42.5298 101.017C42.8682 101.003 43.2039 100.95 43.5298 100.857C45.1198 100.447 48.0498 95.977 49.0498 94.297C50.0498 92.617 52.4998 92.0871 53.6698 91.8571C53.9079 91.8174 54.1421 91.7571 54.3698 91.677C54.557 91.549 54.7103 91.3776 54.8166 91.1772C54.9229 90.9769 54.9789 90.7537 54.9798 90.527C55.6398 90.707 56.2498 90.9071 56.8298 91.1171C56.019 91.2368 55.2304 91.476 54.4898 91.827C54.0343 92.0262 53.5667 92.1965 53.0898 92.337C51.5498 92.747 50.9398 93.807 50.0898 95.287C49.8798 95.647 49.6498 96.0669 49.3798 96.4969C48.6981 97.8532 47.7166 99.0365 46.5098 99.957C46.2998 100.117 45.6798 100.597 45.8898 101.067C46.0198 101.357 46.3798 101.447 46.7798 101.447C47.0758 101.444 47.3707 101.41 47.6598 101.347C49.1998 101.037 52.2498 96.927 53.2898 95.347C54.3298 93.767 56.6898 93.427 57.8098 93.267C58.0414 93.2485 58.2698 93.2014 58.4898 93.127C58.6712 93.0256 58.8251 92.8816 58.9384 92.7074C59.0516 92.5332 59.1207 92.3339 59.1398 92.127C59.8653 92.4917 60.5668 92.9026 61.2398 93.3571C60.2856 93.2891 59.329 93.4502 58.4498 93.827C58.0357 93.9829 57.6114 94.1099 57.1798 94.207C55.7598 94.497 55.1798 95.427 54.3198 96.707C54.1098 97.017 53.8798 97.377 53.6198 97.707C52.9414 98.8795 52.0042 99.8815 50.8798 100.637C50.6798 100.777 50.0798 101.187 50.2598 101.637C50.4398 102.087 50.7798 102.047 51.2598 102.047C51.4707 102.046 51.6813 102.029 51.8898 101.997C53.2898 101.797 56.2398 98.267 57.2498 96.927C58.2598 95.587 60.3798 95.407 61.3898 95.317C61.5984 95.3083 61.8058 95.2816 62.0098 95.2371C62.1804 95.1554 62.3286 95.0335 62.4418 94.882C62.555 94.7304 62.6298 94.5538 62.6598 94.3671L62.8898 94.577L64.4098 96.077L46.8998 116.077V102.297H46.8098C46.6469 102.313 46.4828 102.313 46.3198 102.297V117.177H103.4V95.1071C103.191 94.9155 102.997 94.7082 102.82 94.4871V116.117L85.3398 96.1171L87.8198 95.837C89.2298 101.667 96.8198 101.967 96.9298 101.967H97.3898L97.1998 101.547C95.0998 96.827 91.8198 95.547 89.7898 95.287C90.1573 95.0985 90.4944 94.8558 90.7898 94.567L91.5498 93.817L91.6898 93.717C92.0598 93.4002 92.3951 93.0448 92.6898 92.657L93.8498 91.517C94.257 91.1215 94.7602 90.839 95.3098 90.697C95.1956 92.617 95.6847 94.5246 96.7086 96.1528C97.7324 97.781 99.2398 99.0482 101.02 99.777L101.44 99.9771V99.517C101.44 99.217 101.32 92.997 97.3298 90.757L100.68 91.217C101.081 91.2639 101.487 91.2401 101.88 91.147C102.431 92.7688 103.474 94.1791 104.862 95.1824C106.251 96.1857 107.917 96.7324 109.63 96.7469H110.09L109.92 96.317C109.81 96.077 107.56 90.747 103.35 90.387L105.52 89.017L105.78 88.8671C106.078 88.6984 106.36 88.5007 106.62 88.277L107.04 88.017C107.484 87.7981 107.993 87.7518 108.47 87.887L108.7 87.957C108.401 89.51 108.597 91.1176 109.261 92.553C109.925 93.9884 111.023 95.1791 112.4 95.957L112.79 96.207L112.85 95.7469C112.85 95.5169 113.37 90.887 110.78 88.537L112.3 88.967C112.593 89.0455 112.899 89.0593 113.198 89.0074C113.497 88.9556 113.78 88.8395 114.03 88.667L114.26 88.407C114.84 89.4886 115.707 90.3899 116.765 91.0125C117.823 91.635 119.032 91.9548 120.26 91.937C120.569 91.9559 120.88 91.9559 121.19 91.937H121.65L121.4 91.547C121.29 91.357 118.64 87.107 115.02 87.657L115.56 87.067C115.655 86.964 115.774 86.8856 115.907 86.8386C116.039 86.7916 116.181 86.7773 116.32 86.797H116.49V86.8671H116.67L118.95 87.197C119.434 87.7569 120.04 88.199 120.721 88.4901C121.402 88.7812 122.14 88.9134 122.88 88.877C124.255 88.8461 125.611 88.5578 126.88 88.027L127.3 87.837L126.97 87.307ZM109.83 52.067C110.83 47.067 113.46 42.497 115.63 42.157H115.87C116.53 42.157 117.11 42.6071 117.6 43.4871C120.2 48.2371 110.88 55.997 108.05 58.207C108.787 56.2185 109.382 54.18 109.83 52.1071V52.067ZM118.83 53.687C119.089 53.6813 119.347 53.7081 119.6 53.767C119.913 53.8373 120.203 53.9861 120.443 54.1996C120.682 54.413 120.864 54.6841 120.97 54.9871C121.196 55.4648 121.292 55.9938 121.248 56.5206C121.204 57.0475 121.022 57.5534 120.72 57.9871C119.3 59.9871 115.22 60.987 110.34 60.687C108.74 60.5509 107.128 60.6316 105.55 60.927C108.29 58.877 115.15 53.7271 118.87 53.7271L118.83 53.687ZM97.2898 62.687C97.0798 58.497 98.2298 54.767 100.22 53.177C100.891 52.6268 101.732 52.3264 102.6 52.327C103.03 52.3336 103.457 52.3974 103.87 52.517C104.239 52.5861 104.582 52.7551 104.863 53.0054C105.143 53.2557 105.349 53.5778 105.46 53.937C106.46 57.597 99.3898 66.1471 97.1498 68.7271C97.3671 66.7514 97.414 64.7607 97.2898 62.777V62.687ZM109.58 62.837C109.758 62.8383 109.935 62.855 110.11 62.887C110.428 62.9347 110.729 63.0625 110.984 63.2584C111.24 63.4543 111.441 63.7119 111.57 64.007C111.859 64.5192 111.997 65.1027 111.969 65.6901C111.94 66.2775 111.747 66.845 111.41 67.327C109.95 69.497 105.84 70.7971 101.41 70.4871C99.7821 70.3447 98.1421 70.4798 96.5598 70.887C99.2898 68.547 105.98 62.927 109.62 62.927L109.58 62.837ZM32.3798 32.837C29.1798 32.027 26.8998 29.297 26.0898 28.217C32.7398 28.407 37.3298 33.557 39.1798 36.057C37.1119 34.6408 34.8293 33.567 32.4198 32.877L32.3798 32.837ZM40.9998 24.667C41.8898 25.857 44.2598 29.357 44.0998 33.257C44.0795 36.2596 44.549 39.2455 45.4898 42.097C43.4298 39.397 38.9298 32.377 41.0398 24.707L40.9998 24.667ZM40.1198 43.4871C36.2698 42.8171 33.3498 39.767 32.3798 38.637C40.3198 38.207 46.2198 44.0971 48.4498 46.7371C45.8759 45.2306 43.077 44.1467 40.1598 43.527L40.1198 43.4871ZM57.1198 37.027C57.9798 38.587 60.4998 43.817 59.4298 49.027C58.7403 53.0778 58.7403 57.2161 59.4298 61.267C57.4898 57.637 52.5398 47.027 57.2098 37.067L57.1198 37.027ZM51.9098 61.167C46.9098 59.227 43.9098 54.277 43.0398 52.717C53.9598 54.177 60.1998 64.087 62.1798 67.817C59.1788 65.0614 55.738 62.8273 51.9998 61.207L51.9098 61.167ZM70.2798 53.627C70.9898 55.417 73.1998 61.747 71.2798 67.627C69.9355 72.1655 69.3742 76.8999 69.6198 81.627C67.9098 77.307 63.5598 64.437 70.3698 53.667L70.2798 53.627ZM61.5198 79.967C56.2298 76.847 53.7598 70.607 53.1298 68.787C62.8298 71.727 68.0698 80.307 70.5398 85.897C70.9598 87.017 71.3798 88.147 71.7898 89.297C68.934 85.6583 65.4939 82.5189 61.6098 80.007L61.5198 79.967ZM23.3998 87.427L23.1398 87.377C23.9802 87.1116 24.7518 86.6644 25.3998 86.067C25.764 85.7823 26.1684 85.5531 26.5998 85.387C26.2649 85.652 26.0004 85.9954 25.8298 86.387C25.133 86.9051 24.3362 87.273 23.4898 87.467L23.3998 87.427ZM27.0298 86.647C26.1698 88.097 24.9198 89.7371 24.4198 89.8671L24.1598 89.917C24.8289 89.3452 25.3619 88.6312 25.7198 87.827C25.8498 87.577 25.9698 87.347 26.0698 87.127L26.2698 86.7469C26.9098 86.3369 27.3998 85.9871 27.4098 85.9771C27.8641 85.5908 28.4261 85.3533 29.0198 85.297H29.2898C28.8528 85.3696 28.4351 85.5303 28.0621 85.7693C27.6891 86.0082 27.3685 86.3204 27.1198 86.687L27.0298 86.647ZM31.5698 85.647L31.3098 85.7469C30.7988 85.8767 30.3195 86.1095 29.9017 86.431C29.4838 86.7526 29.1361 87.1563 28.8798 87.6171C28.2498 89.1771 27.2598 90.987 26.7898 91.197L26.5398 91.287C27.1112 90.6159 27.5277 89.8273 27.7598 88.9771L28.0098 88.2371C28.2898 87.3771 28.4398 86.897 29.0098 86.587C29.2678 86.4528 29.5153 86.299 29.7498 86.127C30.0201 85.9307 30.308 85.7601 30.6098 85.6171L31.3198 85.467C31.3962 85.4575 31.4734 85.4575 31.5498 85.467C31.6092 85.5142 31.6485 85.582 31.6598 85.657L31.5698 85.647ZM34.9998 85.817L34.6798 85.937C33.9298 86.217 32.3498 86.797 31.8198 88.137C31.0698 89.997 29.8798 92.137 29.3098 92.417C29.1594 92.4847 29.0016 92.535 28.8398 92.567L28.9398 92.437C29.6244 91.6529 30.1203 90.7225 30.3898 89.717C30.4998 89.397 30.5898 89.107 30.6798 88.837C31.0198 87.837 31.1998 87.227 31.9498 86.837L32.6498 86.447C33.2993 85.9728 34.068 85.6888 34.8698 85.627H35.1398C35.1327 85.6956 35.1158 85.7631 35.0898 85.827L34.9998 85.817ZM38.3298 86.907C38.2092 86.9635 38.0857 87.0136 37.9598 87.057C37.0798 87.377 35.2598 88.057 34.6398 89.597C33.7598 91.777 32.3798 94.317 31.6398 94.597C31.4314 94.6972 31.2088 94.7646 30.9798 94.797L31.1598 94.557C31.9526 93.6412 32.527 92.5572 32.8398 91.387C32.9698 91.017 33.0798 90.677 33.1798 90.387C33.5598 89.187 33.7898 88.477 34.6898 88.027C34.9798 87.877 35.2798 87.697 35.5598 87.517C36.2654 86.9846 37.1086 86.6655 37.9898 86.597C38.1428 86.5826 38.2968 86.5826 38.4498 86.597C38.4805 86.7037 38.4698 86.8179 38.4198 86.917L38.3298 86.907ZM41.4998 88.137C41.3662 88.1979 41.2293 88.2513 41.0898 88.297C40.1498 88.647 38.1998 89.367 37.5398 91.007C36.5998 93.357 35.1098 96.087 34.3598 96.417C34.1201 96.531 33.8634 96.6053 33.5998 96.637C33.6575 96.5289 33.728 96.4282 33.8098 96.337C34.6618 95.3562 35.2775 94.193 35.6098 92.937C35.7498 92.547 35.8698 92.177 35.9798 91.847C36.3898 90.557 36.6398 89.787 37.5998 89.297C37.8798 89.157 38.1598 88.997 38.4398 88.837C39.2579 88.2564 40.2193 87.9106 41.2198 87.837C41.3828 87.8226 41.5468 87.8226 41.7098 87.837C41.6935 87.948 41.6525 88.0539 41.5898 88.147L41.4998 88.137ZM44.7698 89.207C44.6236 89.2761 44.4733 89.3361 44.3198 89.387C43.3198 89.767 41.1698 90.547 40.4498 92.387C39.4498 94.957 37.7898 97.957 36.9498 98.327C36.6704 98.4611 36.3687 98.5424 36.0598 98.567C36.1354 98.4338 36.2259 98.3096 36.3298 98.197C37.2641 97.1245 37.9474 95.8571 38.3298 94.4871C38.4798 94.0471 38.6098 93.637 38.7298 93.277C39.1798 91.877 39.4598 91.0171 40.5198 90.4871C40.8498 90.3171 41.1798 90.117 41.5198 89.937C42.5426 89.1685 43.8166 88.8117 45.0898 88.937C45.0399 89.0494 44.9604 89.1462 44.8598 89.217L44.7698 89.207ZM48.5798 90.147C48.5798 90.147 48.2998 90.257 48.0998 90.327C47.0098 90.677 44.7398 91.427 43.9198 93.327C42.7398 95.997 40.9198 99.097 40.0098 99.457C39.6974 99.6052 39.3555 99.6804 39.0098 99.677C39.0871 99.5251 39.1885 99.3867 39.3098 99.267C40.3225 98.1725 41.0745 96.8632 41.5098 95.437C41.6898 94.987 41.8398 94.557 41.9698 94.187C42.4998 92.717 42.8198 91.827 43.9698 91.297C44.4242 91.0755 44.862 90.8215 45.2798 90.537C46.0685 89.9497 46.9823 89.5527 47.9498 89.377L48.8598 89.467C48.8694 89.7112 48.803 89.9522 48.6698 90.157L48.5798 90.147ZM54.0298 90.9871C53.9598 90.9871 53.7098 91.067 53.4598 91.127C52.2098 91.377 49.5998 91.897 48.4598 93.837C46.7898 96.657 44.3398 99.837 43.2898 100.137C42.9148 100.269 42.5129 100.307 42.1198 100.247C42.2312 100.07 42.3734 99.914 42.5398 99.787C43.8082 98.694 44.8103 97.3259 45.4698 95.787C45.7398 95.307 45.9598 94.857 46.1598 94.457C46.9498 92.887 47.4198 91.937 48.7798 91.457C49.2917 91.2729 49.7926 91.0592 50.2798 90.817C51.5498 90.207 52.7598 89.617 54.2798 90.167C54.3898 90.537 54.2898 90.9169 54.1198 90.9969L54.0298 90.9871ZM58.1798 92.457L57.6398 92.547C56.4298 92.727 53.9098 93.087 52.7098 94.887C50.9798 97.477 48.4798 100.407 47.4598 100.617C47.0972 100.694 46.7224 100.694 46.3598 100.617C46.4744 100.463 46.6127 100.328 46.7698 100.217C48.0318 99.2539 49.0577 98.0159 49.7698 96.597C50.0498 96.147 50.2798 95.7371 50.4998 95.3671C51.3298 93.9071 51.8298 93.037 53.1398 92.687C53.6402 92.5369 54.1312 92.3565 54.6098 92.147C55.8498 91.637 57.0298 91.1471 58.4798 91.7371C58.5398 92.0671 58.4398 92.397 58.2898 92.467L58.1798 92.457ZM61.7098 94.557C61.5477 94.5858 61.3841 94.6059 61.2198 94.6171C60.1298 94.7171 57.8498 94.907 56.6698 96.457C54.9798 98.687 52.5998 101.167 51.6698 101.297C51.3587 101.349 51.0409 101.349 50.7298 101.297C50.835 101.18 50.9562 101.079 51.0898 100.997C52.2746 100.196 53.2654 99.1401 53.9898 97.907L54.6998 96.847C55.5098 95.587 56.0098 94.847 57.1898 94.597C57.645 94.4942 58.0927 94.3605 58.5298 94.197C59.0579 93.9256 59.6375 93.7692 60.2305 93.7382C60.8234 93.7071 61.4163 93.8021 61.9698 94.017C62.0298 94.307 61.9298 94.527 61.7998 94.567L61.7098 94.557ZM99.2898 72.927H99.4198C99.7181 72.9239 100.013 72.991 100.281 73.123C100.548 73.2551 100.781 73.4483 100.96 73.687C101.352 74.1131 101.617 74.6407 101.725 75.2098C101.833 75.779 101.779 76.3669 101.57 76.907C100.68 79.317 96.9598 81.547 92.5698 82.317C90.9989 82.5626 89.4828 83.0804 88.0898 83.847C90.2898 80.707 95.7998 73.137 99.2898 72.927ZM87.1498 76.067C86.0798 72.007 86.4398 68.067 88.0598 66.167C88.4292 65.7091 88.8993 65.3427 89.4336 65.0964C89.9678 64.8501 90.5517 64.7305 91.1398 64.7469H91.4998C91.8778 64.7321 92.2523 64.8248 92.5797 65.0142C92.9072 65.2036 93.1742 65.482 93.3498 65.817C95.1098 69.167 89.9198 79.0071 88.2498 81.9871C88.0613 79.987 87.7033 78.0065 87.1798 76.067H87.1498ZM83.9498 67.687C90.7498 51.227 104.22 37.767 108.32 33.917C106.47 37.307 100.5 46.947 83.9798 67.687H83.9498ZM86.6898 57.197C89.5098 51.197 95.2398 42.557 106.69 34.687C101.57 39.687 89.7798 52.207 83.4998 67.287C84.1011 63.7909 85.1847 60.3951 86.7198 57.197H86.6898ZM78.4798 94.307C77.5398 69.637 83.9898 45.507 86.0598 38.467C85.8198 43.607 84.5898 59.027 78.4798 94.307ZM76.4798 79.307C76.5426 65.761 79.4593 52.3803 85.0398 40.037C82.5998 48.727 77.1198 71.037 77.9298 93.947C76.9452 89.1291 76.446 84.2245 76.4398 79.307H76.4798ZM102.48 116.427H47.2198L64.9098 96.2371H84.7498L102.48 116.427ZM96.4798 101.217C94.8498 101.047 89.5798 100.167 88.4198 95.667C89.5498 95.607 93.8098 95.797 96.4298 101.217H96.4798ZM90.3998 94.027C89.7722 94.6393 88.953 95.0172 88.0798 95.097L83.0798 95.657H82.1498C82.6698 94.417 84.4098 90.357 87.1498 85.217C87.2098 85.157 88.7298 83.637 92.4198 82.937C91.4198 84.177 87.9098 89.167 91.0598 93.317L90.3998 94.027ZM92.3998 92.027L91.4998 92.917C88.7398 89.177 91.8598 84.647 92.8498 83.387C94.8698 87.667 93.5298 90.557 92.3898 92.017L92.3998 92.027ZM100.85 98.927C99.2844 98.2146 97.9727 97.043 97.0886 95.5677C96.2045 94.0925 95.7899 92.3833 95.8998 90.667C99.9998 91.837 100.72 97.307 100.84 98.917L100.85 98.927ZM103.48 81.927C103.28 83.577 102.31 88.927 98.1498 89.927C98.1385 88.2152 98.6389 86.5392 99.5868 85.1138C100.535 83.6884 101.887 82.5786 103.47 81.927H103.48ZM109.19 96.007C107.682 95.9252 106.233 95.3926 105.031 94.4779C103.83 93.5632 102.93 92.3087 102.45 90.877C106.14 90.527 108.5 94.637 109.18 96.007H109.19ZM106.3 87.757L105.8 88.067C105.29 86.655 105.213 85.1227 105.58 83.6669C105.947 82.2111 106.741 80.8982 107.86 79.897C108.17 81.307 108.84 85.567 106.29 87.757H106.3ZM112.3 95.127C111.148 94.3999 110.241 93.3444 109.696 92.0966C109.15 90.8487 108.991 89.4659 109.24 88.127C112.29 89.497 112.39 93.697 112.29 95.127H112.3ZM110.6 87.7271C110.711 86.3739 111.225 85.085 112.075 84.0264C112.925 82.9677 114.073 82.1877 115.37 81.787C115.09 83.187 113.9 87.2071 110.63 87.7271H110.6ZM120.69 91.307C119.511 91.4186 118.326 91.179 117.283 90.6185C116.24 90.058 115.387 89.2016 114.83 88.157C117.61 87.457 119.92 90.217 120.69 91.307ZM120.48 80.307C120.36 81.617 119.79 85.167 117.06 86.017C117.018 84.8367 117.319 83.6697 117.926 82.6565C118.533 81.6433 119.42 80.8273 120.48 80.307ZM119.59 86.807C120.642 86.2698 121.827 86.049 123.002 86.1715C124.177 86.294 125.291 86.7543 126.21 87.4969C124.97 87.9269 121.51 88.897 119.59 86.787V86.807Z" fill="white"/>
<path d="M32.7902 122.307V135.177H38.6602V135.577H31.6602V122.307H32.7902Z" fill="white"/>
<path d="M46.2301 132.807C46.2176 133.263 46.0818 133.708 45.8371 134.094C45.5924 134.479 45.2479 134.791 44.8401 134.997C43.9407 135.542 42.863 135.711 41.8401 135.467C41.2663 135.358 40.733 135.095 40.2978 134.705C39.8625 134.316 39.5418 133.815 39.3701 133.257C39.1907 132.664 39.103 132.046 39.1101 131.427C39.0574 130.291 39.4121 129.174 40.1101 128.277C40.6618 127.595 41.4517 127.148 42.3201 127.027C43.1127 126.895 43.9265 126.999 44.6601 127.327C44.9898 127.439 45.2907 127.623 45.5413 127.865C45.7919 128.107 45.9862 128.401 46.1101 128.727C46.1859 128.911 46.2233 129.108 46.2201 129.307C46.2249 129.598 46.1412 129.884 45.9801 130.127C45.6565 130.515 45.2193 130.791 44.7301 130.917C44.1553 131.088 43.571 131.225 42.9801 131.327C42.4782 131.426 41.9837 131.56 41.5001 131.727C40.9913 131.872 40.5425 132.177 40.2201 132.597C40.2596 133.355 40.5848 134.069 41.1301 134.597C41.3498 134.811 41.6095 134.979 41.8943 135.092C42.1792 135.205 42.4836 135.261 42.7901 135.257C43.1655 135.256 43.5352 135.165 43.8677 134.991C44.2003 134.817 44.4858 134.565 44.7001 134.257C44.9858 133.809 45.1352 133.288 45.1301 132.757C45.1164 132.65 45.1359 132.542 45.186 132.447C45.2362 132.353 45.3144 132.275 45.4101 132.227C45.4945 132.176 45.5914 132.149 45.6901 132.149C45.7889 132.149 45.8857 132.176 45.9701 132.227C46.0767 132.275 46.162 132.361 46.2098 132.468C46.2577 132.574 46.2649 132.695 46.2301 132.807ZM40.2301 131.517V132.067C40.8464 131.556 41.5832 131.212 42.3701 131.067L43.9701 130.667C44.3641 130.568 44.7151 130.343 44.9701 130.027C45.0833 129.858 45.1425 129.66 45.1401 129.457C45.1434 129.002 45.0111 128.556 44.7601 128.177C44.5179 127.806 44.1694 127.516 43.7601 127.347C43.3719 127.195 42.9478 127.16 42.5401 127.247C42.1355 127.325 41.7612 127.516 41.4601 127.797C41.0019 128.294 40.6539 128.882 40.4385 129.523C40.2231 130.164 40.1453 130.844 40.2101 131.517H40.2301Z" fill="white"/>
<path d="M48.52 127.307H47.52V126.927H48.52V123.867H49.59V126.927H51.97V127.307H49.59V132.307C49.5203 133.119 49.6944 133.934 50.09 134.647C50.2763 134.931 50.5494 135.146 50.8685 135.262C51.1876 135.377 51.5355 135.386 51.86 135.287H51.95V135.517C51.8496 135.556 51.7458 135.586 51.64 135.607C51.5372 135.621 51.4329 135.621 51.33 135.607C50.9095 135.661 50.4825 135.595 50.0972 135.419C49.7119 135.242 49.3838 134.961 49.15 134.607C48.9235 134.31 48.7602 133.97 48.67 133.607C48.5943 133.175 48.5609 132.736 48.5701 132.297L48.52 127.307Z" fill="white"/>
<path d="M53.8799 127.307H52.8799V126.927H53.8799V123.867H54.9598V126.927H57.3398V127.307H54.9598V132.307C54.8877 133.118 55.0582 133.933 55.4498 134.647C55.6361 134.931 55.9092 135.146 56.2283 135.262C56.5474 135.377 56.8953 135.386 57.2198 135.287H57.3199V135.517H57.2598C57.1598 135.558 57.056 135.588 56.9498 135.607C56.847 135.621 56.7427 135.621 56.6398 135.607C56.2207 135.661 55.7949 135.596 55.4111 135.419C55.0274 135.242 54.7012 134.961 54.4698 134.607C54.2367 134.313 54.0696 133.972 53.9799 133.607C53.9041 133.175 53.8707 132.736 53.8799 132.297V127.307Z" fill="white"/>
<path d="M58.98 135.617V122.307H60.07V135.577L58.98 135.617Z" fill="white"/>
<path d="M69.2897 132.807C69.2731 133.264 69.1346 133.708 68.8884 134.093C68.6422 134.478 68.2973 134.79 67.8897 134.997C66.9904 135.542 65.9126 135.711 64.8897 135.467C64.3149 135.358 63.7807 135.094 63.3439 134.705C62.9071 134.316 62.5842 133.815 62.4097 133.257C62.2303 132.664 62.1426 132.047 62.1497 131.427C62.1023 130.292 62.4564 129.177 63.1497 128.277C63.7014 127.595 64.4913 127.148 65.3597 127.027C66.1522 126.893 66.9666 126.998 67.6997 127.327C68.0294 127.439 68.3304 127.623 68.581 127.865C68.8316 128.107 69.0258 128.401 69.1497 128.727C69.2287 128.91 69.2695 129.107 69.2697 129.307C69.2716 129.599 69.1844 129.885 69.0197 130.127C68.6983 130.512 68.265 130.789 67.7797 130.917C67.2015 131.087 66.6138 131.224 66.0197 131.327C65.5211 131.426 65.0299 131.56 64.5498 131.727C64.0369 131.87 63.5843 132.175 63.2597 132.597C63.2992 133.355 63.6244 134.069 64.1697 134.597C64.3894 134.811 64.6491 134.979 64.934 135.092C65.2188 135.206 65.5232 135.261 65.8297 135.257C66.0603 135.26 66.2899 135.226 66.5097 135.157C67.0123 135.016 67.4484 134.7 67.7398 134.267C68.0298 133.821 68.1796 133.299 68.1697 132.767C68.1575 132.664 68.1755 132.56 68.2216 132.468C68.2676 132.375 68.3397 132.298 68.429 132.246C68.5182 132.194 68.6208 132.169 68.7239 132.175C68.8271 132.18 68.9264 132.216 69.0097 132.277C69.1064 132.324 69.1856 132.401 69.2358 132.496C69.2861 132.592 69.305 132.7 69.2897 132.807ZM63.2897 131.517V132.067C63.9073 131.558 64.6435 131.214 65.4298 131.067L67.0297 130.667C67.4237 130.568 67.7748 130.343 68.0297 130.027C68.1429 129.859 68.2022 129.66 68.1997 129.457C68.2051 129.005 68.0744 128.563 67.8247 128.186C67.575 127.81 67.2179 127.518 66.7998 127.347C66.4152 127.195 65.9941 127.16 65.5897 127.247C65.1821 127.325 64.8046 127.515 64.4998 127.797C64.0487 128.298 63.708 128.888 63.4995 129.528C63.2911 130.169 63.2196 130.847 63.2897 131.517Z" fill="white"/>
<path d="M77.1801 129.387V135.617H76.0801V122.307H80.0801C80.4576 122.313 80.832 122.377 81.1901 122.497C81.5425 122.6 81.879 122.752 82.1901 122.947C82.494 123.139 82.7586 123.387 82.9701 123.677C83.2059 123.976 83.3855 124.314 83.5001 124.677C83.6172 125.028 83.6746 125.397 83.6701 125.767C83.685 126.299 83.5862 126.827 83.3801 127.317C83.2058 127.704 82.9459 128.046 82.6201 128.317C82.271 128.591 81.8743 128.798 81.4501 128.927C81.0043 129.071 80.5454 129.172 80.0801 129.227C79.5819 129.281 79.0812 129.308 78.5801 129.307L77.1801 129.387ZM77.1801 122.727V128.967H79.3901C79.8153 129.015 80.2459 128.966 80.6498 128.825C81.0537 128.683 81.4206 128.453 81.7231 128.15C82.0257 127.848 82.2563 127.481 82.3977 127.077C82.5391 126.673 82.5878 126.242 82.5401 125.817C82.5456 125.279 82.4221 124.748 82.1801 124.267C81.9041 123.749 81.4795 123.326 80.9609 123.052C80.4423 122.777 79.8534 122.664 79.2701 122.727H77.1801Z" fill="white"/>
<path d="M85.4302 135.617V122.307H86.5201V135.577L85.4302 135.617Z" fill="white"/>
<path d="M94.7002 134.507C94.0023 135.192 93.0679 135.582 92.0902 135.597C91.4981 135.646 90.9021 135.588 90.3302 135.427C89.808 135.298 89.3435 134.999 89.0102 134.577C88.7701 134.25 88.6437 133.853 88.6502 133.447C88.6365 133.216 88.6742 132.985 88.7606 132.771C88.8471 132.556 88.9802 132.364 89.1502 132.207C89.5482 131.892 90.0082 131.663 90.5003 131.537C90.7203 131.477 91.2003 131.367 91.9403 131.217L92.6803 131.037C92.8503 131.037 93.0902 130.927 93.3902 130.827C93.6656 130.748 93.9283 130.631 94.1702 130.477C94.3689 130.339 94.5416 130.166 94.6803 129.967C94.6383 129.329 94.4164 128.715 94.0402 128.197C93.7462 127.773 93.3099 127.468 92.8103 127.337C92.3501 127.227 91.8704 127.227 91.4102 127.337C90.9326 127.457 90.516 127.749 90.2403 128.157C89.9187 128.628 89.7541 129.188 89.7702 129.757C89.7797 129.86 89.7582 129.964 89.7083 130.055C89.6584 130.146 89.5824 130.22 89.4903 130.267C89.4051 130.316 89.3085 130.342 89.2102 130.342C89.1119 130.342 89.0154 130.316 88.9303 130.267C88.846 130.221 88.7779 130.151 88.735 130.065C88.6921 129.979 88.6765 129.882 88.6903 129.787C88.6878 129.497 88.7386 129.209 88.8402 128.937C89.1338 128.296 89.6436 127.78 90.2802 127.477C90.9526 127.122 91.7123 126.966 92.4702 127.027C93.2492 127.055 93.9919 127.364 94.5603 127.897C95.244 128.565 95.6662 129.455 95.7503 130.407C95.7613 130.584 95.7613 130.761 95.7503 130.937V135.577H94.6602L94.7002 134.507ZM94.7002 131.577C94.7002 131.271 94.7002 130.937 94.7002 130.577C94.053 131.118 93.2661 131.465 92.4303 131.577C91.8358 131.695 91.2483 131.845 90.6702 132.027C90.3782 132.142 90.131 132.348 89.9652 132.615C89.7995 132.882 89.7241 133.194 89.7503 133.507C89.7353 133.78 89.7834 134.053 89.8909 134.305C89.9984 134.556 90.1625 134.779 90.3703 134.957C90.6398 135.152 90.9473 135.289 91.2729 135.358C91.5984 135.426 91.9347 135.426 92.2602 135.357C92.5926 135.31 92.9123 135.198 93.2008 135.026C93.4892 134.854 93.7406 134.627 93.9403 134.357C94.4718 133.53 94.737 132.56 94.7002 131.577Z" fill="white"/>
<path d="M99.1899 128.727C99.5698 128.294 100.015 127.923 100.51 127.627C100.967 127.339 101.483 127.154 102.02 127.087C102.436 127.03 102.861 127.094 103.242 127.271C103.623 127.448 103.945 127.732 104.17 128.087C104.408 128.38 104.579 128.721 104.67 129.087C104.75 129.523 104.787 129.965 104.78 130.407V135.577H103.68V130.407C103.735 129.676 103.571 128.945 103.21 128.307C103.037 128.043 102.785 127.84 102.49 127.727C102.224 127.627 101.939 127.586 101.655 127.609C101.372 127.631 101.097 127.716 100.85 127.857C100.177 128.184 99.6039 128.684 99.1899 129.307V135.577H98.0898V127.097H99.1899V128.727Z" fill="white"/>
<path d="M107.19 127.307H106.19V126.927H107.19V123.867H108.29V126.927H110.67V127.307H108.29V132.307C108.218 133.118 108.388 133.933 108.78 134.647C108.969 134.93 109.244 135.145 109.564 135.261C109.885 135.376 110.234 135.385 110.56 135.287H110.65V135.517H110.59C110.49 135.558 110.386 135.588 110.28 135.607C110.177 135.621 110.073 135.621 109.97 135.607C109.551 135.661 109.125 135.596 108.741 135.419C108.357 135.242 108.031 134.961 107.8 134.607C107.573 134.31 107.41 133.97 107.32 133.607C107.24 133.175 107.203 132.736 107.21 132.297L107.19 127.307Z" fill="white"/>
<path d="M114.29 135.537C113.584 135.43 112.924 135.121 112.39 134.647C112.137 134.424 111.936 134.148 111.802 133.838C111.667 133.529 111.602 133.194 111.61 132.857C111.601 132.76 111.621 132.663 111.667 132.577C111.713 132.492 111.784 132.422 111.87 132.377C111.955 132.332 112.049 132.309 112.145 132.309C112.241 132.309 112.335 132.332 112.42 132.377C112.515 132.422 112.594 132.495 112.646 132.586C112.698 132.677 112.72 132.782 112.71 132.887C112.638 133.377 112.734 133.878 112.983 134.306C113.231 134.735 113.618 135.067 114.08 135.247C114.445 135.38 114.836 135.421 115.22 135.367C115.637 135.299 116.035 135.146 116.39 134.917C116.727 134.714 116.982 134.399 117.11 134.027C117.21 133.746 117.21 133.438 117.11 133.157C116.97 132.813 116.715 132.527 116.39 132.347C116.009 132.109 115.599 131.921 115.17 131.787L113.82 131.337C113.391 131.188 112.986 130.976 112.62 130.707C112.3 130.48 112.064 130.153 111.95 129.777C111.829 129.307 111.882 128.81 112.1 128.377C112.35 127.931 112.74 127.579 113.21 127.377C113.694 127.159 114.219 127.046 114.75 127.047C115.121 127.037 115.491 127.077 115.85 127.167C116.203 127.255 116.54 127.396 116.85 127.587C117.167 127.77 117.428 128.036 117.605 128.357C117.781 128.678 117.866 129.041 117.85 129.407C117.86 129.491 117.844 129.576 117.805 129.651C117.766 129.726 117.705 129.787 117.63 129.827C117.556 129.871 117.471 129.894 117.385 129.894C117.299 129.894 117.214 129.871 117.14 129.827C117.057 129.787 116.989 129.722 116.944 129.641C116.9 129.561 116.881 129.468 116.89 129.377C116.93 129.001 116.855 128.622 116.677 128.289C116.499 127.955 116.225 127.683 115.89 127.507C115.528 127.326 115.124 127.246 114.72 127.277C114.561 127.277 114.404 127.297 114.25 127.337C113.856 127.441 113.486 127.621 113.16 127.867C113.006 127.968 112.876 128.1 112.778 128.255C112.68 128.411 112.616 128.585 112.59 128.767C112.562 128.948 112.59 129.133 112.67 129.297C112.899 129.664 113.255 129.934 113.67 130.057L115.29 130.617L115.92 130.857C116.09 130.927 116.29 131.017 116.52 131.137C116.72 131.243 116.907 131.371 117.08 131.517C117.246 131.655 117.391 131.817 117.51 131.997C117.641 132.181 117.726 132.394 117.76 132.617C117.864 132.983 117.874 133.369 117.788 133.74C117.703 134.111 117.524 134.454 117.27 134.737C116.91 135.114 116.442 135.369 115.93 135.467C115.393 135.595 114.836 135.619 114.29 135.537Z" fill="white"/>
</svg>
