<svg width="150" height="150" viewBox="0 0 150 150" fill="none" xmlns="http://www.w3.org/2000/svg">
<path d="M109.817 67.4658V106.225C109.245 105.642 108.636 105.095 107.997 104.586C105.964 103.056 104.26 101.133 102.984 98.9315C101.941 97.1249 100.597 95.5096 99.011 94.1549C100.182 92.8971 101.236 91.5348 102.16 90.0851C105.94 84.1411 107.097 76.6764 106.444 68.0335C106.449 67.9657 106.449 67.8977 106.444 67.8299V67.6158C106.275 66.4752 105.988 65.3553 105.587 64.2743C105.401 63.7693 105.156 63.2877 104.859 62.8392L104.677 62.6035L104.452 62.3679C104.366 62.2822 104.27 62.218 104.184 62.143C104.117 62.0905 104.045 62.0439 103.97 62.0038C103.75 61.8851 103.516 61.7951 103.274 61.7361C103.089 61.6823 102.898 61.65 102.706 61.6397C102.521 61.6127 102.334 61.6127 102.149 61.6397C102.1 61.6296 102.049 61.6296 101.999 61.6397C101.905 61.667 101.812 61.6992 101.721 61.7361L101.571 61.811C101.475 61.8578 101.385 61.9154 101.303 61.9824L101.164 62.0787L101.035 62.1966C100.987 62.2339 100.944 62.2771 100.907 62.3252L100.778 62.4644C100.634 62.6364 100.508 62.823 100.403 63.0212C100.349 63.1041 100.299 63.1899 100.253 63.2782C100.253 63.3746 100.157 63.471 100.114 63.5781L99.9856 63.9102C99.9346 64.0249 99.8917 64.1429 99.8571 64.2636C99.8122 64.3857 99.7764 64.511 99.75 64.6384L99.6536 64.9705C99.5023 65.6379 99.3914 66.3138 99.3216 66.9946V67.4765C99.3216 67.6693 99.3216 67.8622 99.3216 68.0656C99.3216 68.2691 99.3216 68.569 99.3216 68.8474C99.0217 73.9989 97.8436 77.3511 96.0337 82.2241C95.0489 84.9084 93.0758 87.1151 90.518 88.393C88.8901 87.5576 87.7871 87.0971 87.7549 87.0864C87.0358 86.8052 86.2668 86.6739 85.4951 86.7007C85.0024 86.7007 84.4241 86.7008 83.8886 86.7651C83.3531 86.8293 82.3464 86.8614 81.4039 86.8614C79.124 86.8493 76.8531 86.5762 74.6353 86.0474C73.5818 85.8025 72.504 85.6768 71.4224 85.6726C69.2227 85.6444 67.0642 86.2707 65.2213 87.4719C64.7809 87.3557 64.3338 87.2663 63.8825 87.2042C57.2424 83.852 55.9787 75.5946 55.893 72.6708C55.893 72.2745 55.893 71.5999 55.9786 70.7324C55.9786 70.5717 55.9786 70.4004 55.9786 70.2183V70.1004C55.9786 68.3226 55.9787 66.1914 55.7538 64.2743C55.3789 60.3652 54.1473 57.345 49.6599 59.9903C47.8946 61.0357 46.4213 62.5091 45.3759 64.2743C45.1861 64.5706 45.0144 64.8782 44.8618 65.1953C44.7654 65.356 44.6904 65.5167 44.6047 65.6774C44.6001 65.6985 44.6001 65.7204 44.6047 65.7415C44.6047 65.7415 44.6047 65.7415 44.6047 65.8165C44.6047 65.8914 44.4762 66.0949 44.4227 66.2342C44.3691 66.3734 44.2727 66.5663 44.2085 66.7269C44.1442 66.8875 44.0479 67.1338 43.9836 67.3373C43.9194 67.5408 43.8443 67.7122 43.7908 67.8942C43.7372 68.0763 43.6623 68.3012 43.6087 68.5046C43.5552 68.7081 43.5123 68.8046 43.4695 68.9545C43.4267 69.1045 43.341 69.5007 43.2875 69.7578C43.2426 69.9271 43.2069 70.0987 43.1804 70.2718C43.0626 70.8608 42.9768 71.3429 42.934 71.8141C42.9245 71.9174 42.9245 72.0213 42.934 72.1246C42.934 72.2317 42.934 72.3281 42.934 72.4031C42.934 72.478 42.934 72.4887 42.934 72.5316C42.934 72.7886 42.934 72.9278 42.934 72.9278C42.934 73.2063 42.934 73.442 42.934 73.6669C42.9426 76.9324 43.4261 80.1794 44.3692 83.3058C45.5647 87.4708 47.7723 91.2751 50.7951 94.3798C46.5929 96.4264 42.9919 99.5257 40.3422 103.376V67.5087C40.3422 66.6566 40.6807 65.8393 41.2833 65.2368C41.8858 64.6342 42.7031 64.2957 43.5552 64.2957H44.0907C44.9687 60.7339 46.0413 57.2229 47.3037 53.7785C50.2275 45.3392 52.6586 40.9267 51.1914 28.9317C50.4095 22.5057 47.3893 15.8978 44.7654 11.1747C44.6715 11.0041 44.6437 10.8049 44.6872 10.6152C44.7308 10.4254 44.8427 10.2584 45.0016 10.1458C45.1605 10.0333 45.3553 9.98315 45.5487 10.005C45.7422 10.0269 45.9209 10.1191 46.0506 10.2643C49.2636 13.8735 53.0977 18.5751 55.1004 22.5914C58.9988 30.3882 60.1341 37.5852 59.1702 44.6859C58.5598 49.1198 57.4781 57.7091 56.7605 64.2957H99.1074C99.1074 64.1458 99.1074 63.9958 99.1074 63.8459C98.7754 55.4814 96.3442 51.2618 96.0979 45.6391C95.9294 43.7541 96.2121 41.8562 96.9226 40.1021C97.0436 39.9178 97.2186 39.7753 97.4236 39.6941C97.6287 39.6129 97.8538 39.597 98.0682 39.6486C98.2827 39.7002 98.4759 39.8166 98.6216 39.9821C98.7674 40.1476 98.8585 40.3541 98.8825 40.5733C98.8279 41.5358 98.9036 42.5013 99.1074 43.4436C100.178 48.7236 104.462 53.3074 105.962 63.7924L106.026 64.2743H106.604C107.453 64.2743 108.267 64.6098 108.869 65.2077C109.471 65.8057 109.812 66.6174 109.817 67.4658Z" fill="white"/>
<path d="M48.3529 132.229H45.6326V139.137H48.3529V132.229Z" fill="white"/>
<path d="M80.0439 127.011V135.836C80.0439 136.907 79.6047 137.432 78.7265 137.432C77.8483 137.432 77.4092 136.897 77.4092 135.836V127.011C77.4092 125.94 77.8483 125.426 78.7265 125.426C79.6047 125.426 80.0439 125.951 80.0439 127.011Z" fill="#981E27"/>
<path d="M87.9902 130.268H87.0584V125.652H88.2151C88.399 125.635 88.5845 125.662 88.7559 125.731C88.9273 125.8 89.0798 125.909 89.2004 126.049C89.4425 126.423 89.5518 126.868 89.511 127.312V128.565C89.555 129.033 89.4211 129.499 89.1361 129.872C88.9825 130.013 88.8015 130.121 88.6044 130.189C88.4072 130.257 88.1982 130.284 87.9902 130.268Z" fill="white"/>
<path d="M89.5431 134.563V139.147H87.0584V132.582H87.9366C88.1635 132.556 88.3933 132.581 88.6086 132.658C88.8239 132.734 89.019 132.858 89.179 133.021C89.4647 133.482 89.5925 134.023 89.5431 134.563Z" fill="white"/>
<path d="M102.33 126.156L103.455 134.157H101.174L102.288 126.156H102.33Z" fill="white"/>
<path d="M103.767 136.299L104.174 139.148H100.468L100.875 136.342H103.767V136.299Z" fill="white"/>
<path d="M102.621 108.999L101.614 116.282H103.692L102.621 108.999ZM102.621 108.999L101.614 116.282H103.692L102.621 108.999ZM101.775 99.5852C101.667 99.3794 101.549 99.1792 101.421 98.9855C101.324 98.815 101.217 98.6503 101.1 98.4928C100.993 98.3286 100.875 98.168 100.747 98.0109C100.312 97.4307 99.8397 96.8797 99.3328 96.3615L98.9472 95.976C98.841 95.8573 98.7266 95.7464 98.6045 95.644C98.4554 95.4894 98.2981 95.3428 98.1333 95.2049C98.1075 95.1737 98.0788 95.1451 98.0476 95.1193C97.0641 94.256 96.0306 93.4513 94.9524 92.7095L94.3099 92.2811C92.6969 91.2111 91.0194 90.2417 89.2869 89.3786L88.6229 89.0467C88.3016 88.8861 88.0125 88.7468 87.7554 88.6397L87.4555 88.5112L86.9628 88.2971C84.8208 87.4081 81.8435 89.111 74.0467 87.3224C72.8761 87.0435 71.6708 86.9388 70.4696 87.0118H69.5272L69.1844 87.0761C68.8791 87.127 68.5782 87.2022 68.2848 87.301L67.9957 87.3866C67.5694 87.5227 67.1541 87.6911 66.7533 87.8901C68.5097 88.5755 70.4589 89.7964 70.9623 91.8527C71.9369 95.8368 69.827 100.303 67.3102 101.492C65.8453 102.186 64.2146 102.454 62.6046 102.264C60.9947 102.075 59.4706 101.436 58.2068 100.421C56.7824 99.2211 54.137 97.7752 51.4274 95.2905L50.5814 95.7297L49.7567 96.201C49.1712 96.5366 48.5929 96.8935 48.0217 97.272L47.2613 97.786L46.4795 98.343L45.869 98.8248L45.6334 99.007L44.9801 99.5638L44.8516 99.6817C44.6267 99.8852 44.4017 100.089 44.1875 100.303H44.1233L43.5664 100.87C43.2558 101.181 42.9559 101.513 42.6668 101.856C42.3776 102.198 42.3241 102.252 42.1634 102.466C41.9492 102.734 41.7564 102.991 41.5637 103.269L41.4887 103.377C41.328 103.601 41.1781 103.837 41.0389 104.073C40.8997 104.308 40.6212 104.758 40.4284 105.144C40.2356 105.529 40.1392 105.701 40 105.99V135.753C40 136.605 40.3385 137.422 40.941 138.024C41.5436 138.627 42.3608 138.965 43.213 138.965V123.34H45.7512V129.926H48.4822V123.34H50.9134V139.148H53.0554V123.34H55.6043V139.148H58.753C58.5586 139.018 58.3821 138.863 58.2282 138.687C57.5523 137.835 57.2164 136.763 57.2858 135.678V134.746H59.6848V135.817C59.6848 136.866 60.1239 137.391 61.0021 137.391C61.1846 137.403 61.3675 137.375 61.5378 137.309C61.7082 137.242 61.8617 137.138 61.9874 137.006C62.2412 136.648 62.359 136.211 62.3194 135.774C62.3287 135.147 62.1696 134.53 61.8589 133.985C61.3845 133.282 60.8068 132.653 60.1453 132.122C59.283 131.41 58.5416 130.564 57.9498 129.616C57.5316 128.84 57.3178 127.97 57.3286 127.088C57.2577 126.011 57.607 124.947 58.3032 124.122C58.6678 123.751 59.1083 123.463 59.5944 123.278C60.0806 123.093 60.601 123.016 61.1199 123.051C61.6307 123.017 62.1426 123.095 62.6199 123.28C63.0972 123.465 63.5283 123.753 63.883 124.122C64.5543 124.975 64.8861 126.047 64.8148 127.131V127.806H62.4158V126.97C62.4506 126.542 62.3372 126.115 62.0945 125.76C61.9741 125.63 61.8258 125.529 61.6608 125.464C61.4957 125.399 61.3182 125.372 61.1413 125.385C60.2952 125.385 59.8668 125.899 59.8668 126.928C59.8659 127.509 60.0333 128.078 60.3488 128.566C60.83 129.261 61.4068 129.885 62.0623 130.419C62.9231 131.121 63.6489 131.974 64.2043 132.936C64.6188 133.759 64.8248 134.671 64.8041 135.592C64.8834 136.693 64.5343 137.783 63.8295 138.634C63.6617 138.811 63.4749 138.969 63.2726 139.105H68.4776V125.61H65.8215V123.297H73.6719V125.61H71.0159V139.105H76.3708C76.1664 138.971 75.9793 138.813 75.8139 138.634C75.105 137.801 74.7478 136.726 74.8179 135.635V127.131C74.7478 126.04 75.105 124.965 75.8139 124.132C76.6117 123.448 77.6279 123.072 78.6787 123.072C79.7296 123.072 80.7458 123.448 81.5436 124.132C82.2418 124.97 82.5942 126.042 82.529 127.131V135.635C82.5942 136.723 82.2418 137.796 81.5436 138.634C81.372 138.811 81.1818 138.969 80.976 139.105H84.4782V123.34H88.2373C88.7489 123.242 89.2767 123.269 89.7753 123.42C90.2738 123.571 90.7283 123.841 91.0993 124.207C91.4702 124.573 91.7467 125.023 91.9049 125.519C92.0631 126.016 92.0982 126.543 92.0072 127.056V128.052C92.0072 129.734 91.4503 130.794 90.3365 131.265C90.625 131.345 90.892 131.489 91.118 131.685C91.344 131.882 91.5234 132.126 91.6431 132.4C91.9287 133.126 92.06 133.903 92.0287 134.682V139.126H94.0207V123.34H96.5589V139.148H98.0797L100.65 123.34H104.088L106.658 139.137C107.503 139.06 108.289 138.67 108.861 138.044C109.433 137.418 109.752 136.601 109.754 135.753V108.978C109.507 106.375 104.827 105.154 101.775 99.5852ZM50.3672 121.166H48.0217L45.2479 110.456V121.166H43.1809V106.429H46.0832L48.343 115.254V106.429H50.41L50.3672 121.166ZM60.081 117.674C60.1522 118.667 59.8376 119.649 59.2028 120.416C58.4907 121.037 57.5776 121.38 56.6325 121.38C55.6873 121.38 54.7742 121.037 54.0621 120.416C53.4273 119.649 53.1127 118.667 53.1839 117.674V106.429H55.4972V117.846C55.4711 118.226 55.577 118.605 55.7971 118.917C56.0397 119.13 56.3519 119.248 56.6753 119.248C56.9987 119.248 57.3109 119.13 57.5535 118.917C57.7778 118.607 57.8841 118.227 57.8534 117.846V106.429H60.081V117.674ZM69.2273 108.539H65.2647V112.437H68.4776V114.579H65.2647V119.109H69.2701V121.251H62.9513V106.514H69.2701L69.2273 108.539ZM77.3882 120.416C77.0472 120.751 76.6389 121.011 76.1903 121.177C75.7417 121.343 75.263 121.412 74.7857 121.38C74.3161 121.416 73.8445 121.348 73.404 121.181C72.9635 121.015 72.565 120.754 72.2367 120.416C71.6145 119.643 71.3083 118.664 71.38 117.674V116.828H73.5219V117.899C73.5219 118.852 73.9182 119.324 74.7214 119.324C74.8877 119.341 75.0557 119.319 75.212 119.259C75.3682 119.199 75.5083 119.104 75.6211 118.981C75.8351 118.666 75.9404 118.29 75.9209 117.91C75.9305 117.336 75.7863 116.77 75.5033 116.271C75.066 115.635 74.5394 115.065 73.9396 114.579C73.1541 113.931 72.4779 113.161 71.9369 112.298C71.5527 111.588 71.3572 110.792 71.3692 109.985C71.31 109.004 71.6281 108.039 72.2582 107.286C72.5943 106.953 72.9971 106.695 73.4402 106.528C73.8832 106.362 74.3564 106.292 74.8286 106.322C75.2929 106.291 75.7584 106.361 76.1929 106.527C76.6275 106.693 77.0207 106.952 77.3454 107.286C77.9579 108.067 78.2593 109.048 78.1914 110.038V110.638H76.0495V109.888C76.073 109.508 75.9674 109.13 75.7496 108.817C75.6414 108.7 75.5083 108.608 75.36 108.549C75.2118 108.49 75.0522 108.464 74.8928 108.474C74.1217 108.474 73.7254 108.946 73.7254 109.888C73.7254 110.416 73.8779 110.933 74.1646 111.377C74.6054 112.01 75.1316 112.58 75.7282 113.069C76.5285 113.706 77.207 114.482 77.7309 115.361C78.1079 116.111 78.2954 116.942 78.2771 117.781C78.3218 118.733 78.0214 119.668 77.4311 120.416H77.3882ZM87.3377 108.539H84.9173V121.166H82.5932V108.539H80.1728V106.397H87.3377V108.539ZM94.4062 121.166C94.3249 120.948 94.2709 120.722 94.2456 120.491C94.2219 120.113 94.2219 119.734 94.2456 119.356V116.668C94.2895 116.173 94.1731 115.677 93.9136 115.254C93.7745 115.114 93.6066 115.006 93.4217 114.938C93.2368 114.869 93.0392 114.842 92.8426 114.858H92.0394V121.166H89.726V106.429H93.1639C93.6288 106.35 94.1059 106.382 94.5556 106.525C95.0054 106.667 95.4147 106.914 95.7498 107.246C96.0848 107.578 96.3359 107.985 96.4822 108.433C96.6285 108.882 96.6659 109.358 96.5911 109.824V110.724C96.5911 112.255 96.0877 113.219 95.0702 113.637C95.3394 113.707 95.5878 113.842 95.7946 114.028C96.0014 114.214 96.1607 114.447 96.2591 114.708C96.5209 115.368 96.6413 116.076 96.6124 116.785V119.377C96.5912 119.734 96.5912 120.091 96.6124 120.448C96.6385 120.711 96.7073 120.968 96.8159 121.209L94.4062 121.166ZM104.302 121.166L103.885 118.285H101.25L100.832 121.166H98.6902L101.1 106.429H104.238L106.626 121.166H104.302ZM102.535 108.999L101.528 116.282H103.606L102.535 108.999ZM91.9322 108.539V112.737H92.7784C92.9716 112.755 93.1666 112.733 93.3509 112.673C93.5353 112.612 93.705 112.513 93.8493 112.384C94.116 112.044 94.2424 111.614 94.2027 111.184V110.038C94.2364 109.631 94.1348 109.225 93.9136 108.881C93.8042 108.763 93.6693 108.67 93.5191 108.611C93.3689 108.551 93.2072 108.527 93.0461 108.539H91.9322Z" fill="white"/>
<path d="M91.8895 67.9912C91.8948 67.9092 91.8948 67.8269 91.8895 67.7449V67.9912Z" fill="black"/>
<path d="M91.8895 67.9912C91.8948 67.9092 91.8948 67.8269 91.8895 67.7449V67.9912Z" fill="#EEEEEE"/>
</svg>
