<svg width="150" height="150" viewBox="0 0 150 150" fill="none" xmlns="http://www.w3.org/2000/svg">
<path d="M122.448 60.468V49.8746C122.448 49.79 122.432 49.7061 122.399 49.6279C122.367 49.5496 122.319 49.4786 122.259 49.4188C122.2 49.3589 122.129 49.3114 122.05 49.279C121.972 49.2466 121.888 49.2299 121.804 49.2299H115.218C109.531 42.451 102.222 37.2204 93.9714 34.0244V33.7565C93.9714 28.782 91.9953 24.0113 88.4777 20.4937C84.9602 16.9762 80.1894 15 75.2149 15C70.2403 15 65.4695 16.9762 61.952 20.4937C58.4345 24.0113 56.4584 28.782 56.4584 33.7565V34.0244C48.2125 37.2384 40.9114 42.4821 35.2321 49.2696H28.4674C28.2964 49.2696 28.1325 49.3376 28.0115 49.4585C27.8906 49.5794 27.8227 49.7433 27.8227 49.9143V60.9044C22.5458 72.3131 21.5627 85.2427 25.054 97.3181C28.5452 109.394 36.2764 119.804 46.8272 126.636C47.8786 127.311 48.9399 127.956 50.0409 128.62C56.8379 132.371 64.3895 134.551 72.14 134.998C72.2275 135.004 72.3152 134.991 72.3975 134.961C72.4799 134.931 72.5551 134.884 72.6184 134.823C72.6818 134.763 72.7319 134.69 72.7657 134.609C72.7994 134.528 72.8161 134.441 72.8145 134.353V79.6013C72.8145 79.4303 72.7466 79.2664 72.6257 79.1455C72.5048 79.0245 72.3408 78.9567 72.1698 78.9567H47.4719C47.3009 78.9567 47.1369 79.0245 47.016 79.1455C46.8951 79.2664 46.8272 79.4303 46.8272 79.6013V112.333C46.8259 112.421 46.8429 112.507 46.877 112.588C46.9112 112.668 46.9618 112.74 47.0256 112.8C47.9735 113.709 48.9666 114.57 50.0012 115.379C50.9931 116.182 52.104 116.946 53.2149 117.65C54.1076 118.205 55.0202 118.741 55.9525 119.237C56.0017 119.265 56.0576 119.28 56.1145 119.28C56.1713 119.279 56.2269 119.263 56.2756 119.234C56.3242 119.204 56.3641 119.163 56.391 119.113C56.418 119.062 56.4309 119.006 56.4286 118.949V92.0991C56.4169 91.2616 56.7137 90.4489 57.2624 89.8161C57.8111 89.1832 58.5735 88.7742 59.4043 88.6671C59.8696 88.6215 60.3393 88.6738 60.7832 88.8204C61.2272 88.9671 61.6356 89.205 61.9821 89.5188C62.3286 89.8327 62.6057 90.2155 62.7955 90.6428C62.9853 91.0701 63.0836 91.5323 63.0841 91.9998V123.462C63.083 123.512 63.0704 123.561 63.0474 123.606C63.0244 123.65 62.9915 123.689 62.9513 123.718C62.9111 123.748 62.8646 123.768 62.8154 123.777C62.7662 123.786 62.7156 123.784 62.6676 123.77C60.5098 123.109 58.4071 122.28 56.379 121.29C55.2747 120.748 54.2035 120.163 53.1653 119.535C52.0643 118.87 50.9832 118.156 49.9516 117.402C48.9201 116.648 47.7695 115.716 46.7379 114.803C39.6759 108.533 34.8949 100.095 33.1447 90.8147C31.3945 81.5341 32.7741 71.935 37.0671 63.5229H113.194C117.487 71.935 118.867 81.5341 117.116 90.8147C115.366 100.095 110.585 108.533 103.523 114.803C102.531 115.716 101.42 116.589 100.3 117.402C99.1788 118.215 98.1968 118.87 97.0859 119.535L93.8722 121.29C91.8441 122.28 89.7414 123.109 87.5836 123.77C87.5356 123.784 87.485 123.786 87.4358 123.777C87.3866 123.768 87.3401 123.748 87.2999 123.718C87.2597 123.689 87.2268 123.65 87.2038 123.606C87.1808 123.561 87.1682 123.512 87.167 123.462V92.0991C87.1569 91.2525 87.462 90.4322 88.023 89.7979C88.5839 89.1636 89.3607 88.7606 90.2022 88.6671C90.6668 88.623 91.1354 88.6762 91.5781 88.8236C92.0209 88.9709 92.428 89.2091 92.7735 89.5228C93.1189 89.8365 93.3951 90.2188 93.5843 90.6453C93.7734 91.0719 93.8715 91.5332 93.8722 91.9998V118.959C93.8717 119.015 93.886 119.07 93.9136 119.119C93.9413 119.168 93.9813 119.208 94.0296 119.236C94.078 119.264 94.1329 119.279 94.1889 119.28C94.2448 119.28 94.2998 119.265 94.3483 119.237C95.2807 118.741 96.1932 118.245 97.0859 117.65C98.1968 116.942 99.268 116.189 100.3 115.389C101.334 114.576 102.327 113.712 103.275 112.8C103.34 112.741 103.392 112.669 103.428 112.588C103.464 112.508 103.483 112.421 103.484 112.333V79.6013C103.484 79.4303 103.416 79.2664 103.295 79.1455C103.174 79.0245 103.01 78.9567 102.839 78.9567H78.26C78.089 78.9567 77.925 79.0245 77.8041 79.1455C77.6832 79.2664 77.6152 79.4303 77.6152 79.6013V134.353C77.6136 134.442 77.6305 134.53 77.6648 134.611C77.6991 134.693 77.7502 134.766 77.8146 134.827C77.8791 134.888 77.9556 134.934 78.0391 134.964C78.1226 134.993 78.2114 135.005 78.2996 134.998C86.0474 134.553 93.5962 132.373 100.389 128.62C101.49 128.005 102.561 127.361 103.612 126.636C114.229 119.762 121.99 109.27 125.456 97.1063C128.922 84.9429 127.857 71.9351 122.458 60.4977L122.448 60.468ZM93.6341 37.367C100.187 40.0433 106.084 44.1034 110.923 49.2696H106.548C102.532 45.4923 97.8685 42.4685 92.7811 40.3426C93.151 39.3773 93.4365 38.3817 93.6341 37.367ZM101.629 49.2696H85.8181C88.0872 47.7152 89.9896 45.6841 91.3925 43.3183C95.0642 44.8174 98.5093 46.8204 101.629 49.2696ZM59.6919 32.9432C59.8933 28.962 61.6166 25.2103 64.5056 22.4637C67.3947 19.7171 71.2286 18.1855 75.2149 18.1855C79.2012 18.1855 83.0351 19.7171 85.9241 22.4637C88.8132 25.2103 90.5365 28.962 90.7378 32.9432C90.7378 33.221 90.7378 33.5086 90.7378 33.7962C90.7374 34.6235 90.6711 35.4493 90.5395 36.266C90.3808 37.2821 90.1183 38.2792 89.7559 39.2417C88.7401 41.947 86.9929 44.317 84.7092 46.0876C82.4254 47.8582 79.6948 48.9598 76.8217 49.2696V46.2939C77.8039 46.0856 78.6997 45.5842 79.3907 44.8558C80.4136 43.622 80.9436 42.0531 80.8785 40.4517C80.8837 40.3692 80.8837 40.2863 80.8785 40.2038V34.5699C80.8785 34.4112 80.8785 34.2524 80.8785 34.0937C80.8832 32.9406 80.6075 31.8037 80.0751 30.7809C79.9852 30.6229 79.8859 30.4706 79.7775 30.3247C79.3963 29.8361 78.9016 29.4479 78.3364 29.1938C77.7712 28.9397 77.1526 28.8275 76.5341 28.8666C75.8753 28.832 75.2192 28.9736 74.6334 29.277C74.0475 29.5803 73.5532 30.0345 73.2013 30.5925C73.2046 30.6222 73.2046 30.6521 73.2013 30.6817H73.1319V30.6024L73.4493 24.7304H80.2933V21.1696H69.948L69.4421 30.8801L69.2834 34.1335L69.2338 35.1253H72.9236V34.9072C72.9184 34.5465 72.9584 34.1865 73.0426 33.8358C73.1628 33.4238 73.4134 33.0619 73.7568 32.8044C74.1002 32.5468 74.5178 32.4076 74.9471 32.4076C75.3763 32.4076 75.7939 32.5468 76.1373 32.8044C76.4807 33.0619 76.7313 33.4238 76.8515 33.8358C76.9448 34.1918 76.9882 34.5591 76.9804 34.927V40.531C76.9804 42.1478 76.3059 42.9513 74.9967 42.9513C73.6874 42.9513 73.0129 42.1478 73.0129 40.531V38.2796H69.3033V40.541C69.2485 42.1275 69.7819 43.6782 70.801 44.8954C71.5737 45.7144 72.6021 46.2461 73.7171 46.403V49.2696C70.8417 48.9721 68.1064 47.8776 65.8194 46.1094C63.5325 44.3412 61.7847 41.9695 60.7731 39.2615C60.4029 38.3009 60.1369 37.3033 59.9796 36.2859C59.8479 35.4692 59.7816 34.6433 59.7812 33.8161C59.6721 33.4689 59.682 33.1813 59.6919 32.9035V32.9432ZM64.6513 49.2696H48.801C51.9194 46.8189 55.3647 44.8158 59.0373 43.3183C60.444 45.6844 62.3497 47.7153 64.6216 49.2696H64.6513ZM56.8353 37.367C57.0343 38.3803 57.3163 39.3755 57.6784 40.3426C52.5922 42.4708 47.9292 45.4943 43.9111 49.2696H39.5468C44.3767 44.1069 50.2635 40.0471 56.8055 37.367H56.8353ZM29.2808 82.7754C29.282 89.7262 30.862 96.5859 33.9016 102.837C36.9412 109.088 41.3609 114.567 46.8272 118.86C47.8588 119.673 48.93 120.447 50.0409 121.181C51.0824 121.865 52.1536 122.51 53.2546 123.105C54.3556 123.7 55.3772 124.216 56.4683 124.712C57.919 125.36 59.4022 125.933 60.9119 126.428C62.4547 126.937 64.0242 127.361 65.6135 127.698C65.7068 127.719 65.8036 127.718 65.8967 127.696C65.9898 127.675 66.0768 127.632 66.1512 127.572C66.2256 127.512 66.2855 127.436 66.3263 127.349C66.3672 127.263 66.3879 127.168 66.3871 127.073V92.0296C66.4024 90.3135 65.755 88.6576 64.5799 87.4067C63.4048 86.1558 61.7925 85.4064 60.0787 85.3146C59.1958 85.2799 58.315 85.4237 57.489 85.7375C56.663 86.0513 55.9088 86.5286 55.2716 87.1408C54.6345 87.753 54.1274 88.4874 53.7808 89.3001C53.4342 90.1129 53.2553 90.9873 53.2546 91.8709V113.008C53.2546 113.068 53.2382 113.127 53.2071 113.178C53.1759 113.229 53.1313 113.271 53.0781 113.299C53.0249 113.326 52.9651 113.339 52.9053 113.335C52.8454 113.331 52.7878 113.31 52.7388 113.276C51.8858 112.641 51.0526 111.976 50.2591 111.292C50.1916 111.23 50.1375 111.155 50.1 111.071C50.0625 110.988 50.0423 110.898 50.0409 110.806V82.7556C50.0409 82.5846 50.1088 82.4206 50.2297 82.2997C50.3506 82.1788 50.5146 82.1108 50.6856 82.1108H68.9561C69.1271 82.1108 69.2911 82.1788 69.412 82.2997C69.5329 82.4206 69.6008 82.5846 69.6008 82.7556V131.13C69.601 131.175 69.5917 131.22 69.5734 131.262C69.5551 131.304 69.5283 131.342 69.4947 131.372C69.4611 131.403 69.4214 131.427 69.3782 131.441C69.3349 131.456 69.2892 131.461 69.2438 131.457C66.3897 131.106 63.5719 130.505 60.8226 129.662C58.2185 128.862 55.6868 127.843 53.2546 126.617C52.1536 126.061 51.0923 125.476 50.0409 124.841C48.9895 124.206 47.8687 123.482 46.8272 122.738C37.6823 116.248 31.0414 106.817 28.0139 96.0191C24.9865 85.2216 25.7558 73.7123 30.1933 63.4138H33.5756C30.7463 69.4763 29.2803 76.0853 29.2808 82.7754ZM31.0166 59.5356V53.0883C31.0166 52.9173 31.0845 52.7534 31.2054 52.6325C31.3263 52.5115 31.4903 52.4436 31.6613 52.4436H118.55C118.72 52.4461 118.883 52.5149 119.003 52.6352C119.124 52.7556 119.192 52.9181 119.195 53.0883V59.5356C119.192 59.7057 119.124 59.8683 119.003 59.9886C118.883 60.109 118.72 60.1777 118.55 60.1803H31.6613C31.4903 60.1803 31.3263 60.1123 31.2054 59.9914C31.0845 59.8705 31.0166 59.7065 31.0166 59.5356ZM103.612 122.719C102.571 123.462 101.49 124.167 100.389 124.831C99.2879 125.496 98.2762 126.051 97.1752 126.597C94.7471 127.825 92.2185 128.844 89.617 129.642C86.8675 130.484 84.0498 131.085 81.1959 131.437C81.1497 131.443 81.1029 131.439 81.0585 131.425C81.0141 131.411 80.9731 131.387 80.9384 131.356C80.9037 131.325 80.8759 131.288 80.857 131.245C80.8382 131.202 80.8286 131.156 80.8289 131.11V82.7357C80.8289 82.5647 80.8968 82.4007 81.0178 82.2798C81.1387 82.1589 81.3027 82.091 81.4736 82.091H99.754C99.9233 82.0936 100.085 82.1627 100.204 82.2833C100.322 82.404 100.389 82.5664 100.389 82.7357V110.766C100.39 110.858 100.371 110.949 100.333 111.033C100.296 111.117 100.24 111.192 100.171 111.252C99.3771 111.957 98.544 112.621 97.6909 113.236C97.6419 113.271 97.5843 113.291 97.5245 113.295C97.4646 113.299 97.4049 113.287 97.3516 113.259C97.2984 113.231 97.2538 113.19 97.2227 113.138C97.1916 113.087 97.1751 113.028 97.1752 112.968V91.9205C97.1745 91.0369 96.9955 90.1626 96.6489 89.3498C96.3023 88.537 95.7953 87.8025 95.1581 87.1903C94.5209 86.5782 93.7667 86.1009 92.9407 85.7871C92.1147 85.4734 91.2339 85.3295 90.351 85.3642C88.6372 85.4561 87.0249 86.2055 85.8498 87.4563C84.6747 88.7072 84.0274 90.3631 84.0426 92.0793V127.122C84.0418 127.218 84.0626 127.313 84.1034 127.399C84.1443 127.486 84.2042 127.562 84.2785 127.622C84.3529 127.682 84.4399 127.724 84.5331 127.746C84.6262 127.768 84.723 127.768 84.8163 127.747C86.4091 127.412 87.982 126.988 89.5277 126.478C91.0342 125.982 92.5141 125.41 93.9614 124.762C95.0657 124.266 96.137 123.73 97.1752 123.155C98.2762 122.56 99.3474 121.915 100.389 121.231C101.43 120.546 102.571 119.723 103.612 118.91C111.753 112.514 117.492 103.553 119.896 93.4834C122.3 83.4137 121.228 72.827 116.854 63.4436H120.246C124.675 73.7435 125.439 85.25 122.412 96.0451C119.385 106.84 112.75 116.272 103.612 122.768V122.719Z" fill="white"/>
<path d="M39.12 64.0022V74.1789C39.12 74.3499 39.1879 74.5138 39.3089 74.6348C39.4298 74.7557 39.5938 74.8236 39.7647 74.8236H110.486C110.657 74.8236 110.821 74.7557 110.942 74.6348C111.063 74.5138 111.131 74.3499 111.131 74.1789V64.0022C111.131 63.8312 111.063 63.6672 110.942 63.5463C110.821 63.4254 110.657 63.3574 110.486 63.3574H39.7647C39.5938 63.3574 39.4298 63.4254 39.3089 63.5463C39.1879 63.6672 39.12 63.8312 39.12 64.0022ZM107.272 71.6099H42.9784C42.8074 71.6099 42.6435 71.542 42.5225 71.4211C42.4016 71.3001 42.3337 71.1362 42.3337 70.9652V67.2159C42.3337 67.1312 42.3504 67.0473 42.3828 66.9691C42.4152 66.8909 42.4627 66.8199 42.5225 66.76C42.5824 66.7001 42.6535 66.6527 42.7317 66.6203C42.8099 66.5879 42.8938 66.5711 42.9784 66.5711H107.272C107.442 66.5737 107.603 66.6429 107.722 66.7635C107.841 66.8841 107.907 67.0466 107.907 67.2159V70.9652C107.907 71.1345 107.841 71.2969 107.722 71.4175C107.603 71.5382 107.442 71.6073 107.272 71.6099Z" fill="white"/>
</svg>
