<svg width="150" height="150" viewBox="0 0 150 150" fill="none" xmlns="http://www.w3.org/2000/svg">
<path d="M6.04 117.847H12.26C13.0974 117.818 13.928 118.008 14.67 118.397C15.2762 118.726 15.7915 119.2 16.17 119.777C16.5076 120.32 16.7036 120.939 16.74 121.577C16.7821 122.213 16.6617 122.85 16.39 123.427C16.1006 124.035 15.6598 124.558 15.11 124.947C14.4682 125.403 13.7148 125.676 12.93 125.737L17.49 134.107L18.4 134.467V134.687H16.15L11.3 125.767H8.5V134.707H7V118.487L6 118.087L6.04 117.847ZM11.61 125.307C12.296 125.333 12.9743 125.155 13.56 124.797C14.0602 124.473 14.4643 124.021 14.73 123.487C14.9936 122.966 15.1307 122.391 15.13 121.807C15.1293 121.22 14.9923 120.642 14.73 120.117C14.4636 119.587 14.0595 119.138 13.56 118.817C12.9743 118.459 12.296 118.282 11.61 118.307H8.5V125.307H11.61Z" fill="white"/>
<path d="M23.5902 122.487C24.6962 122.447 25.785 122.77 26.6902 123.407C27.4992 124.001 28.1373 124.798 28.5402 125.717C28.9491 126.664 29.16 127.685 29.16 128.717C29.16 129.749 28.9491 130.769 28.5402 131.717C28.1317 132.633 27.4947 133.428 26.6902 134.027C25.7714 134.627 24.6977 134.947 23.6002 134.947C22.5027 134.947 21.429 134.627 20.5102 134.027C19.6971 133.432 19.0527 132.636 18.6402 131.717C18.222 130.773 18.0139 129.749 18.0302 128.717C18.0319 127.685 18.2428 126.665 18.6502 125.717C19.0534 124.795 19.6956 123.997 20.5102 123.407C21.4076 122.769 22.4903 122.446 23.5902 122.487ZM23.5902 134.607C24.4542 134.636 25.2948 134.323 25.9302 133.737C26.5714 133.134 27.0525 132.382 27.3302 131.547C27.6453 130.633 27.8009 129.673 27.7902 128.707C27.7869 127.738 27.6283 126.776 27.3202 125.857C27.0414 125.022 26.5604 124.27 25.9202 123.667C25.2856 123.086 24.4503 122.774 23.5902 122.797C22.7329 122.772 21.9 123.085 21.2702 123.667C20.6365 124.275 20.1566 125.026 19.8702 125.857C19.5539 126.774 19.3917 127.737 19.3902 128.707C19.3777 129.674 19.5369 130.635 19.8602 131.547C20.1491 132.379 20.6325 133.129 21.2702 133.737C21.9 134.319 22.7329 134.631 23.5902 134.607Z" fill="white"/>
<path d="M30.4097 133.057C30.9257 133.576 31.5324 133.996 32.1997 134.297C32.8804 134.581 33.6124 134.72 34.3497 134.707C34.9918 134.732 35.6284 134.58 36.1897 134.267C36.6331 134.007 36.9964 133.63 37.2397 133.177C37.4605 132.767 37.5545 132.301 37.5097 131.837C37.4643 131.391 37.2788 130.971 36.9797 130.637C36.6762 130.312 36.3215 130.038 35.9297 129.827C35.5069 129.605 35.073 129.405 34.6297 129.227L33.2697 128.727C32.8297 128.567 32.4197 128.397 32.0497 128.227C31.5217 127.995 31.0857 127.594 30.8097 127.087C30.5645 126.626 30.4438 126.109 30.4597 125.587C30.4894 125.06 30.6473 124.549 30.9197 124.097C31.1973 123.628 31.608 123.252 32.0997 123.017C32.7231 122.718 33.4084 122.571 34.0997 122.587C34.735 122.588 35.365 122.703 35.9597 122.927C36.5804 123.159 37.1385 123.532 37.5897 124.017L37.3997 124.207C36.9631 123.767 36.4518 123.408 35.8897 123.147C35.3228 122.913 34.7129 122.8 34.0997 122.817C33.5075 122.805 32.9265 122.98 32.4397 123.317C32.0029 123.597 31.6694 124.011 31.4897 124.497C31.4127 124.732 31.3845 124.98 31.4068 125.226C31.4292 125.472 31.5016 125.71 31.6197 125.927C31.9824 126.515 32.5482 126.949 33.2097 127.147L35.2097 127.907C35.7688 128.121 36.3133 128.372 36.8397 128.657C37.4284 128.946 37.9061 129.421 38.1997 130.007C38.4513 130.527 38.5682 131.101 38.5397 131.677C38.5097 132.244 38.3451 132.796 38.0597 133.287C37.799 133.761 37.4111 134.152 36.9397 134.417C36.1863 134.808 35.3483 135.007 34.4997 134.997C33.7048 134.996 32.9174 134.843 32.1797 134.547C31.421 134.275 30.7361 133.83 30.1797 133.247L30.4097 133.057Z" fill="white"/>
<path d="M41.0504 129.497C41.4516 129.253 41.8773 129.052 42.3204 128.897L43.7104 128.437C44.1804 128.297 44.6304 128.157 45.0604 128.007C45.4685 127.881 45.8559 127.695 46.2104 127.457C46.5374 127.246 46.8112 126.962 47.0104 126.627C47.2217 126.245 47.3254 125.813 47.3104 125.377C47.283 125.004 47.1803 124.641 47.0084 124.309C46.8365 123.978 46.599 123.684 46.3104 123.447C45.7971 123.036 45.1581 122.813 44.5004 122.817C43.6883 122.832 42.9013 123.101 42.2504 123.587C41.9121 123.851 41.6125 124.16 41.3604 124.507C41.085 124.885 40.8847 125.313 40.7704 125.767L40.3904 125.687C40.5126 125.166 40.7407 124.676 41.0604 124.247C41.3367 123.861 41.6745 123.523 42.0604 123.247C42.4402 122.978 42.8628 122.775 43.3104 122.647C43.7505 122.526 44.2041 122.463 44.6604 122.457C45.1626 122.457 45.6619 122.534 46.1404 122.687C46.6033 122.83 47.0344 123.061 47.4104 123.367C47.7781 123.67 48.0808 124.044 48.3004 124.467C48.5266 124.927 48.6398 125.434 48.6304 125.947V134.657H48.2704L47.2704 132.717C46.8473 133.446 46.2125 134.028 45.4504 134.387C44.6874 134.771 43.8446 134.97 42.9904 134.967C42.5889 134.968 42.189 134.918 41.8004 134.817C41.1788 134.685 40.615 134.36 40.1904 133.887C39.8218 133.476 39.585 132.964 39.5104 132.417C39.4424 131.872 39.5254 131.318 39.7504 130.817C40.0214 130.242 40.4798 129.777 41.0504 129.497ZM42.5004 134.107C42.6899 134.202 42.8919 134.269 43.1004 134.307C43.3146 134.348 43.5323 134.368 43.7504 134.367C44.1791 134.367 44.6049 134.296 45.0104 134.157C45.8161 133.891 46.5165 133.377 47.0104 132.687C47.2185 132.391 47.3492 132.047 47.3904 131.687V126.687C47.1681 127.19 46.7892 127.607 46.3104 127.877C45.8207 128.154 45.3048 128.381 44.7704 128.557C44.2204 128.747 43.6704 128.937 43.1204 129.147C42.5879 129.344 42.1086 129.663 41.7204 130.077C41.4679 130.361 41.2923 130.706 41.2104 131.077C41.1296 131.473 41.1296 131.881 41.2104 132.277C41.285 132.672 41.4417 133.047 41.6704 133.377C41.882 133.686 42.1673 133.937 42.5004 134.107Z" fill="white"/>
<path d="M58.9098 123.537C59.8213 122.896 60.9058 122.548 62.0198 122.537C62.7067 122.533 63.3872 122.669 64.0198 122.937C64.6686 123.203 65.2569 123.598 65.7498 124.097V117.187L64.7498 116.777V116.587H67.0998V134.587H66.7398L65.8298 132.817C65.4361 133.469 64.8489 133.983 64.1498 134.287C63.4103 134.629 62.6045 134.803 61.7898 134.797C61.2767 134.795 60.7659 134.728 60.2698 134.597C59.7596 134.457 59.2787 134.227 58.8498 133.917C58.3091 133.554 57.8522 133.081 57.5098 132.527C57.1541 131.965 56.8876 131.351 56.7198 130.707C56.5422 130.055 56.458 129.382 56.4698 128.707C56.4726 128.031 56.5668 127.358 56.7498 126.707C56.9366 126.071 57.2127 125.465 57.5698 124.907C57.9179 124.363 58.374 123.897 58.9098 123.537ZM59.7398 133.467C60.0845 133.784 60.4845 134.035 60.9198 134.207C61.331 134.367 61.7686 134.448 62.2098 134.447C62.8932 134.44 63.5638 134.261 64.1598 133.927C64.792 133.585 65.3284 133.09 65.7198 132.487V124.707C65.3481 124.161 64.8418 123.72 64.2498 123.427C63.6337 123.101 62.9467 122.933 62.2498 122.937C61.7371 122.936 61.2298 123.042 60.7598 123.247C60.252 123.47 59.8059 123.813 59.4598 124.247C58.9577 124.868 58.5899 125.586 58.3798 126.357C58.1379 127.188 58.0299 128.052 58.0598 128.917C58.0778 129.775 58.2296 130.625 58.5098 131.437C58.7555 132.2 59.1768 132.896 59.7398 133.467Z" fill="white"/>
<path d="M70.6498 127.107C70.5381 127.599 70.4877 128.103 70.4998 128.607C70.4824 129.466 70.6249 130.32 70.9198 131.127C71.1653 131.799 71.5389 132.417 72.0198 132.947C72.4558 133.42 72.9876 133.795 73.5798 134.047C74.1413 134.292 74.7473 134.417 75.3598 134.417C76.0236 134.415 76.6789 134.269 77.2798 133.987C77.9332 133.681 78.5105 133.233 78.9698 132.677L79.2298 132.887C78.7012 133.556 78.0137 134.082 77.2298 134.417C76.4628 134.749 75.6356 134.919 74.7998 134.917C74.0825 134.919 73.3709 134.79 72.6998 134.537C72.0088 134.285 71.3808 133.886 70.8598 133.367C70.2915 132.794 69.8428 132.114 69.5398 131.367C69.1895 130.489 69.0129 129.552 69.0198 128.607C69.0127 127.792 69.1376 126.982 69.3898 126.207C69.6161 125.478 69.9792 124.799 70.4598 124.207C70.9419 123.646 71.5342 123.19 72.1998 122.867C72.9251 122.526 73.7185 122.355 74.5198 122.367C75.1524 122.37 75.7805 122.474 76.3798 122.677C76.9701 122.876 77.5191 123.181 77.9998 123.577C78.4744 123.977 78.8565 124.475 79.1198 125.037C79.4093 125.663 79.5529 126.347 79.5398 127.037L70.6498 127.107ZM70.7198 126.747H78.0098C78.5898 126.747 78.8998 126.597 78.9398 126.317C78.9757 125.95 78.9026 125.582 78.7298 125.257C78.3879 124.492 77.8095 123.858 77.0798 123.447C76.4435 123.092 75.7283 122.903 74.9998 122.897C74.4734 122.888 73.9514 122.994 73.4698 123.207C73.0065 123.409 72.5857 123.698 72.2298 124.057C71.8593 124.42 71.5427 124.834 71.2898 125.287C71.0499 125.736 70.8653 126.213 70.7398 126.707L70.7198 126.747Z" fill="white"/>
<path d="M96.8501 119.877C96.6176 119.56 96.3377 119.28 96.0201 119.047C95.6962 118.802 95.3436 118.597 94.9701 118.437C94.5819 118.269 94.1761 118.145 93.7601 118.067C93.3448 117.987 92.9229 117.947 92.5001 117.947C91.938 117.945 91.3787 118.026 90.8401 118.187C90.3315 118.333 89.8629 118.593 89.4701 118.947C89.0852 119.275 88.7894 119.694 88.6101 120.167C88.451 120.57 88.4027 121.009 88.4701 121.437C88.5548 121.87 88.7397 122.278 89.0101 122.627C89.3156 123.022 89.6879 123.36 90.1101 123.627C90.5637 123.892 91.0348 124.126 91.5201 124.327C92.0601 124.557 92.6301 124.817 93.2301 125.087C93.8301 125.357 94.4201 125.647 95.0001 125.957C95.5667 126.254 96.0941 126.62 96.5701 127.047C97.022 127.449 97.4009 127.926 97.6901 128.457C97.9878 129.017 98.1359 129.643 98.1201 130.277C98.1382 130.947 98.0014 131.613 97.7204 132.221C97.4394 132.83 97.0218 133.366 96.5001 133.787C95.985 134.195 95.3983 134.504 94.7701 134.697C94.1073 134.908 93.4155 135.012 92.7201 135.007C91.5611 134.999 90.4172 134.743 89.3651 134.257C88.313 133.77 87.3771 133.065 86.6201 132.187L86.9101 131.947C87.627 132.774 88.5278 133.421 89.5401 133.837C90.5502 134.247 91.63 134.457 92.7201 134.457C93.2487 134.426 93.7704 134.322 94.2701 134.147C94.7529 133.978 95.198 133.717 95.5801 133.377C95.9579 133.031 96.2579 132.608 96.4601 132.137C96.6863 131.6 96.7822 131.018 96.7401 130.437C96.7256 129.967 96.5726 129.511 96.3001 129.127C96.0272 128.713 95.6896 128.345 95.3001 128.037C94.8537 127.691 94.3748 127.39 93.8701 127.137C93.3401 126.867 92.8001 126.617 92.2601 126.387L90.6801 125.727C90.2285 125.554 89.7877 125.353 89.3601 125.127C88.7106 124.792 88.1489 124.309 87.7201 123.717C87.3024 123.133 87.0753 122.435 87.0701 121.717C87.0562 121.072 87.2113 120.434 87.5201 119.867C87.8149 119.336 88.2249 118.878 88.7201 118.527C89.2191 118.16 89.782 117.889 90.3801 117.727C90.9906 117.547 91.6237 117.456 92.2601 117.457C93.1973 117.46 94.1249 117.647 94.9901 118.007C95.839 118.345 96.5791 118.908 97.1301 119.637L96.8501 119.877Z" fill="white"/>
<path d="M100.85 129.497C101.255 129.253 101.684 129.052 102.13 128.897L103.51 128.437C103.98 128.297 104.43 128.157 104.86 128.007C105.268 127.881 105.656 127.695 106.01 127.457C106.337 127.246 106.611 126.962 106.81 126.627C107.022 126.245 107.125 125.813 107.11 125.377C107.08 125.005 106.976 124.643 106.804 124.311C106.633 123.98 106.397 123.686 106.11 123.447C105.597 123.036 104.958 122.813 104.3 122.817C103.488 122.832 102.701 123.101 102.05 123.587C101.712 123.851 101.412 124.16 101.16 124.507C100.889 124.888 100.689 125.315 100.57 125.767L100.19 125.687C100.317 125.168 100.544 124.678 100.86 124.247C101.136 123.861 101.474 123.523 101.86 123.247C102.24 122.978 102.663 122.775 103.11 122.647C103.55 122.526 104.004 122.463 104.46 122.457C104.966 122.458 105.468 122.535 105.95 122.687C106.41 122.83 106.838 123.061 107.21 123.367C107.578 123.67 107.881 124.044 108.1 124.467C108.326 124.927 108.44 125.434 108.43 125.947V134.657H108.07L107.07 132.717C106.648 133.443 106.018 134.025 105.26 134.387C104.494 134.771 103.648 134.97 102.79 134.967C102.389 134.968 101.989 134.918 101.6 134.817C100.981 134.687 100.419 134.361 100 133.887C99.629 133.477 99.3888 132.965 99.3102 132.417C99.2422 131.872 99.3252 131.318 99.5502 130.817C99.8212 130.242 100.28 129.777 100.85 129.497ZM102.31 134.107C102.496 134.202 102.695 134.269 102.9 134.307C103.115 134.347 103.332 134.367 103.55 134.367C103.982 134.366 104.411 134.295 104.82 134.157C105.225 134.022 105.603 133.819 105.94 133.557C106.267 133.316 106.551 133.022 106.78 132.687C106.988 132.391 107.119 132.047 107.16 131.687V126.687C106.938 127.19 106.559 127.607 106.08 127.877C105.591 128.156 105.075 128.383 104.54 128.557C103.99 128.747 103.44 128.937 102.89 129.147C102.359 129.347 101.88 129.665 101.49 130.077C101.241 130.364 101.066 130.707 100.98 131.077C100.894 131.47 100.888 131.876 100.962 132.271C101.036 132.666 101.188 133.042 101.41 133.377C101.64 133.696 101.951 133.948 102.31 134.107Z" fill="white"/>
<path d="M110.271 122.797H112.611V125.407C112.797 124.956 113.065 124.542 113.401 124.187C113.734 123.841 114.111 123.538 114.521 123.287C114.93 123.043 115.371 122.855 115.831 122.727C116.269 122.601 116.724 122.536 117.181 122.537C117.581 122.535 117.979 122.596 118.361 122.717C118.727 122.827 119.068 123.011 119.361 123.257L119.151 123.487C118.883 123.27 118.578 123.104 118.251 122.997C117.926 122.899 117.589 122.848 117.251 122.847C116.743 122.852 116.24 122.939 115.761 123.107C115.264 123.282 114.796 123.528 114.371 123.837C113.954 124.142 113.583 124.506 113.271 124.917C112.972 125.299 112.764 125.744 112.661 126.217V134.637H111.271V123.397L110.321 123.017L110.271 122.797Z" fill="white"/>
<path d="M125.74 122.487C126.844 122.444 127.93 122.767 128.83 123.407C129.639 124.001 130.277 124.797 130.68 125.717C131.096 126.662 131.31 127.684 131.31 128.717C131.31 129.749 131.096 130.771 130.68 131.717C130.272 132.633 129.635 133.428 128.83 134.027C127.911 134.627 126.838 134.947 125.74 134.947C124.643 134.947 123.569 134.627 122.65 134.027C121.821 133.435 121.162 132.635 120.74 131.707C120.318 130.764 120.11 129.739 120.13 128.707C120.122 127.674 120.333 126.651 120.75 125.707C121.146 124.783 121.786 123.985 122.6 123.397C123.518 122.756 124.622 122.436 125.74 122.487ZM125.74 134.607C126.604 134.635 127.445 134.323 128.08 133.737C128.718 133.132 129.199 132.38 129.48 131.547C129.797 130.634 129.949 129.672 129.93 128.707C129.93 127.738 129.775 126.776 129.47 125.857C129.188 125.024 128.707 124.273 128.07 123.667C127.436 123.086 126.6 122.774 125.74 122.797C124.883 122.77 124.049 123.083 123.42 123.667C122.783 124.273 122.303 125.024 122.02 125.857C121.704 126.774 121.542 127.737 121.54 128.707C121.525 129.673 121.68 130.635 122 131.547C122.289 132.381 122.776 133.133 123.42 133.737C124.049 134.321 124.883 134.633 125.74 134.607ZM125.62 121.177L125.21 120.937L126.64 117.847L127.58 118.377L125.62 121.177Z" fill="white"/>
<path d="M132.6 122.797H134.92V124.377C135.33 123.725 135.926 123.21 136.63 122.897C137.326 122.592 138.079 122.435 138.84 122.437C139.375 122.436 139.908 122.517 140.42 122.677C140.909 122.825 141.367 123.062 141.77 123.377C142.18 123.686 142.521 124.078 142.77 124.527C143.015 125.02 143.135 125.566 143.12 126.117V134.657H141.74V126.117C141.765 125.594 141.686 125.07 141.51 124.577C141.361 124.197 141.128 123.855 140.83 123.577C140.539 123.316 140.199 123.115 139.83 122.987C139.455 122.864 139.064 122.8 138.67 122.797C138.215 122.797 137.763 122.868 137.33 123.007C136.9 123.131 136.494 123.327 136.13 123.587C135.795 123.83 135.507 124.131 135.28 124.477C135.067 124.812 134.956 125.201 134.96 125.597V134.687H133.6V123.447L132.6 123.067V122.797Z" fill="white"/>
<path d="M128.96 62.847C128.662 62.2936 128.232 61.8217 127.709 61.473C127.186 61.1243 126.586 60.9094 125.96 60.847C122.05 60.147 118.87 56.9871 118.65 56.1371C118.65 53.7671 117.76 52.137 113.36 51.797C112.271 51.7483 111.18 51.7952 110.1 51.937C110.25 51.657 110.39 51.377 110.53 51.087C110.856 50.391 111.237 49.7221 111.67 49.087C113.57 46.287 111.53 43.537 110.05 41.537C109.239 40.6307 108.641 39.5545 108.3 38.3871C108.348 37.027 108.587 35.6805 109.01 34.3871C109.86 31.1471 110.82 27.467 108.93 24.777C106.93 21.887 103.73 22.427 100.07 23.047C97.8072 23.4944 95.5065 23.7221 93.2 23.727C91.1711 23.6776 89.1777 24.265 87.4999 25.407C87.3881 23.122 86.6665 20.9088 85.4099 18.9971C84.7999 18.2171 84.3499 17.517 83.9399 16.907C83.0799 15.597 82.3899 14.557 81.0799 14.357C79.7699 14.157 78.6099 14.907 77.0799 16.177C76.0799 16.997 75.1899 17.747 74.4099 18.437C73.1999 17.437 71.67 17.027 69.2 17.067C68.06 17.067 64.74 16.877 63.2 15.447C62.3014 14.7248 61.2284 14.2521 60.0891 14.0765C58.9497 13.901 57.7842 14.0287 56.7099 14.447C55.4297 14.9387 54.3117 15.7774 53.4816 16.869C52.6514 17.9606 52.1418 19.262 52.0099 20.6271C51.7096 22.2069 51.2575 23.7541 50.6599 25.2471C49.0299 29.7671 47.0199 35.3771 50.5999 43.2471C49.7886 42.4347 48.916 41.6858 47.9899 41.0071C39.6899 35.0871 35.1699 34.007 27.8299 36.397C20.2599 38.847 18.6599 42.197 20.6899 51.307C21.1799 53.537 21.4299 55.097 21.6299 56.307C22.1999 59.907 22.44 60.787 25.95 63.977C26.4112 64.3253 26.7813 64.78 27.0286 65.3025C27.2759 65.8249 27.393 66.3995 27.3699 66.977C27.4699 68.977 28.0499 70.297 30.4899 71.437C31.9317 72.0647 33.4325 72.5471 34.9699 72.8771L40.8999 74.2471C42.9699 74.7171 44.9899 75.1771 46.8999 75.6371C43.2396 76.8261 39.6533 78.2319 36.1599 79.847C34.6342 80.5695 33.0683 81.2039 31.4699 81.747C25.0599 83.457 24.14 86.9671 24.09 90.5071C24.0461 91.7515 23.8273 92.9835 23.4399 94.167C22.5517 97.2346 22.0643 100.404 21.9899 103.597C21.8899 105.957 21.9899 107.597 22.9899 108.697C23.2548 108.984 23.5744 109.215 23.9299 109.377C24.8919 109.719 25.9099 109.875 26.9299 109.837C29.9646 109.842 32.9649 110.479 35.7399 111.707C43.5999 115.047 47.7399 112.707 50.2399 111.397C50.6761 111.124 51.1426 110.902 51.6299 110.737C52.1399 110.847 52.5499 110.977 52.9199 111.087C53.7684 111.408 54.6735 111.552 55.5797 111.511C56.4859 111.47 57.3742 111.244 58.1899 110.847C60.1899 110.097 60.8299 107.747 61.5699 105.017C62.3099 102.287 63.1399 99.2971 65.2899 97.7571C67.5699 96.0971 69.4099 92.9169 70.7399 89.8969C70.287 93.2101 70.093 96.5536 70.1599 99.8969C70.0921 102.034 70.6604 104.144 71.7926 105.958C72.9248 107.772 74.5701 109.209 76.5199 110.087C76.998 110.309 77.4888 110.503 77.9899 110.667L80.0499 111.357C86.7799 113.617 93.1499 115.757 99.0499 112.487C101.736 111.081 103.855 108.793 105.05 106.007C105.61 104.857 105.87 104.417 106.3 104.297C108.38 103.737 108.75 101.477 109.04 99.657C109.44 97.237 109.69 96.987 110.19 97.027C110.842 97.0973 111.501 96.9747 112.084 96.6743C112.667 96.3739 113.149 95.9089 113.47 95.337C113.845 94.5396 114.003 93.6572 113.928 92.7792C113.852 91.9011 113.546 91.0586 113.04 90.337C112.652 89.7364 112.097 89.2621 111.443 88.9725C110.79 88.6829 110.065 88.5907 109.36 88.707C106.48 89.187 95.0199 87.197 85.6499 82.657C85.0199 82.347 84.4499 82.0571 83.8999 81.7671C88.2165 82.2447 92.5571 82.4716 96.8999 82.447C98.7899 82.737 119.49 85.617 123.99 76.547C124.81 74.877 125.6 73.377 126.31 72.027C128.57 67.547 129.96 64.897 128.96 62.847ZM78.84 18.327C79.3803 17.8863 79.9445 17.4757 80.5299 17.097C80.9196 17.495 81.2558 17.9421 81.5299 18.427C81.9499 19.047 82.4599 19.827 83.1299 20.697C84.0699 21.897 84.6699 24.447 84.7899 27.697L84.5999 27.937C84.4299 28.137 84.2499 28.347 84.0799 28.567L83.7 29.057C83.53 29.277 83.36 29.5171 83.2 29.7571L82.7899 30.337L82.34 31.067C82.2 31.297 82.0399 31.537 81.8999 31.787C81.7599 32.037 81.6499 32.227 81.5299 32.457C81.4099 32.687 81.2399 32.937 81.0999 33.197C81.1049 33.1071 81.1049 33.0169 81.0999 32.927C81.0999 32.507 81.0499 32.107 81.0199 31.717C81.0199 31.587 81.0199 31.467 81.0199 31.347C81.0199 30.867 80.9399 30.417 80.8899 29.987C80.8899 29.877 80.8899 29.767 80.8899 29.657C80.8399 29.317 80.7899 28.977 80.7399 28.657C80.7399 28.557 80.7399 28.447 80.6899 28.347C80.6199 27.977 80.5499 27.617 80.4699 27.277C80.4733 27.2137 80.4733 27.1503 80.4699 27.087C80.4099 26.807 80.3299 26.547 80.2599 26.317C80.1899 26.087 80.2099 26.157 80.1899 26.087C80.0899 25.807 79.9999 25.547 79.8899 25.317V25.237C79.7899 25.027 79.69 24.847 79.59 24.677L79.4999 24.537C79.3857 24.3706 79.2587 24.2135 79.1199 24.067C78.7684 23.7524 78.4345 23.4186 78.1199 23.067L77.8499 22.7471C77.6699 22.5371 77.49 22.3371 77.34 22.1371L77.09 21.787L76.7299 21.277L76.5099 20.937L76.2799 20.587C76.8999 19.937 77.8 19.177 78.84 18.327ZM53.2799 26.117C53.9488 24.4481 54.448 22.716 54.7699 20.947C54.828 20.0929 55.1264 19.2725 55.6307 18.5807C56.135 17.8888 56.8246 17.3537 57.6199 17.037C58.2104 16.8055 58.8496 16.7264 59.4788 16.8067C60.1079 16.8871 60.7066 17.1245 61.2199 17.4971C63.8699 19.9471 68.6899 19.887 69.2199 19.867C72.0899 19.817 72.53 20.437 73.09 21.217C73.27 21.477 73.4499 21.747 73.6399 22.057C74.5625 23.569 75.6786 24.9541 76.9599 26.177L77.0499 26.287L77.1199 26.417L77.2 26.577C77.196 26.6102 77.196 26.6438 77.2 26.677C77.2169 26.7379 77.2369 26.7981 77.2599 26.857V27.0071C77.2892 27.0852 77.3126 27.1654 77.3299 27.2471L77.3899 27.437L77.45 27.697C77.4652 27.7814 77.4852 27.8649 77.5099 27.947C77.5099 28.037 77.51 28.137 77.56 28.217C77.61 28.297 77.5599 28.437 77.6299 28.567C77.6522 28.6727 77.6689 28.7796 77.6799 28.8871C77.7099 29.0158 77.7332 29.1459 77.7499 29.277C77.7499 29.397 77.7499 29.537 77.7499 29.667L77.81 30.087C77.81 30.237 77.8099 30.387 77.8599 30.537C77.9099 30.687 77.8599 30.857 77.9099 31.027C77.9599 31.197 77.9099 31.357 77.9099 31.527C77.9099 31.697 77.9099 31.887 77.9099 32.077C77.9099 32.267 77.9099 32.4371 77.9099 32.6271C77.9099 32.8171 77.9099 33.0371 77.9099 33.2571C77.9099 33.4771 77.9099 33.657 77.9099 33.867C77.9099 34.077 77.9099 34.307 77.9099 34.547C77.9099 34.787 77.9099 35.0271 77.9099 35.2671C77.9099 35.5071 77.9099 35.727 77.9099 35.977C77.9099 36.227 77.9099 36.517 77.9099 36.797V38.457C77.9099 38.687 77.9099 38.907 77.9099 39.147C77.6799 39.757 77.4399 40.387 77.1699 41.027L77.0799 41.2571C75.7699 44.6271 74.3699 48.7071 72.5399 54.4971C71.056 58.9427 70.0012 63.5202 69.3899 68.167C69.3199 67.537 69.2399 66.917 69.1899 66.287C68.8884 62.8356 68.7616 59.3712 68.81 55.907C68.81 52.407 68.7299 48.907 68.4199 45.407C68.0776 41.9237 67.4759 38.4708 66.6199 35.077C67.1415 38.5163 67.4754 41.9814 67.6199 45.457C67.7799 48.927 67.72 52.4571 67.56 55.8771C67.4599 59.3855 67.54 62.8967 67.7999 66.397C67.8799 67.647 67.9899 68.8871 68.1199 70.1371C68.0399 69.9471 67.9599 69.747 67.8699 69.547C67.7995 69.3605 67.7394 69.1702 67.6899 68.977C66.9499 66.427 66.2499 63.8571 65.6899 61.2471C65.1299 58.6371 64.6899 56.017 64.3599 53.367C64.0299 50.717 63.8099 48.057 63.6199 45.367C63.5231 48.0343 63.5698 50.7048 63.7599 53.367C63.9585 56.0488 64.2922 58.7189 64.7599 61.367C64.9999 62.857 65.3099 64.367 65.6399 65.807C65.1899 64.947 63.5299 61.807 61.2499 58.107C61.2025 58.0169 61.1491 57.93 61.09 57.847C60.91 57.537 60.7199 57.237 60.5299 56.937L60.7399 56.707L60.0499 55.617L59.9299 55.427C59.6899 55.057 59.45 54.677 59.2 54.307C59.1634 54.2447 59.1234 54.1847 59.0799 54.1271C58.8199 53.7171 58.5399 53.3071 58.2599 52.8871L58.2099 52.817C57.6199 51.937 57.0099 51.067 56.3999 50.217C55.4799 47.657 54.4 44.717 53.2 42.217C49.98 35.267 51.6599 30.617 53.2799 26.117ZM41.4699 71.427L35.56 70.067C30.26 68.797 30.2099 68.007 30.1499 66.797C30.1599 65.8414 29.9548 64.8959 29.5497 64.0304C29.1447 63.1649 28.5501 62.4015 27.81 61.797C24.92 59.157 24.8699 58.907 24.3799 55.797C24.1899 54.567 23.9299 52.897 23.3799 50.587C21.6799 42.907 22.5599 40.9571 28.6299 38.9971C33.0099 37.5971 36.0799 37.547 39.9899 39.367C42.1901 40.4617 44.2884 41.7501 46.2599 43.217C48.4399 44.777 51.0299 47.627 53.9099 51.607L53.9999 51.737C57.5811 56.7796 60.8345 62.0472 63.7399 67.5071L63.8699 67.697C64.1599 68.087 64.4299 68.477 64.6799 68.857L64.8899 69.197C65.0599 69.457 65.2199 69.727 65.3599 69.987C65.4999 70.247 65.4999 70.2471 65.5699 70.3871C65.6399 70.5271 65.8099 70.837 65.9099 71.067C66.0099 71.297 66.0199 71.347 66.0699 71.487C66.1645 71.6843 66.2448 71.8882 66.31 72.097C66.36 72.237 66.3899 72.3671 66.4399 72.5071C66.4899 72.6471 66.5399 72.887 66.5799 73.067C66.6199 73.247 66.5799 73.337 66.6499 73.477C66.7199 73.617 66.6499 73.817 66.6499 73.987C66.6499 74.157 66.6499 74.2471 66.6499 74.3671C66.6499 74.4871 66.6499 74.687 66.6499 74.837V74.907C64.6499 73.287 62.7399 71.597 60.8899 69.837C58.8899 67.9905 57.093 65.9355 55.5299 63.707C53.8899 61.487 52.2499 59.257 50.4299 57.157C48.6569 55.0256 46.6435 53.1063 44.4299 51.437C46.4592 53.2921 48.3013 55.3419 49.9299 57.557C51.5899 59.747 53.1499 62.007 54.6799 64.297C55.429 65.4775 56.2471 66.6129 57.1299 67.697C58.0499 68.767 59.0199 69.757 60.0099 70.697C60.6499 71.337 61.3199 71.947 62.0099 72.557C57.8099 70.377 53.5899 68.2171 49.3899 66.0171C46.4599 64.5071 43.5399 63.017 40.7199 61.287C37.8999 59.557 34.9999 57.9271 32.8699 55.3871C33.8177 56.7596 34.9791 57.9716 36.31 58.977C37.6033 60.017 38.9366 60.9936 40.31 61.907C43.09 63.727 45.9499 65.407 48.8199 67.047C51.6899 68.687 54.6399 70.1771 57.5499 71.7471L61.6799 73.947L60.6399 73.807C60.1799 73.757 59.7099 73.717 59.2399 73.697H58.7299C58.1999 73.697 57.6599 73.697 57.1099 73.697H56.7399C55.3988 73.7608 54.0629 73.9078 52.7399 74.1371C49.3999 73.2371 45.5499 72.357 41.4699 71.427ZM63.5999 95.427C60.5999 97.557 59.5999 101.277 58.7999 104.267C58.3699 105.817 57.7999 107.937 57.1399 108.187C56.6173 108.465 56.0393 108.624 55.4479 108.651C54.8565 108.679 54.2663 108.575 53.7199 108.347C53.2799 108.217 52.79 108.067 52.2 107.947C51.01 107.697 49.9599 108.277 48.8299 108.947C46.5399 110.207 43.4099 111.947 36.8299 109.127C33.7366 107.758 30.3927 107.046 27.0099 107.037C26.3342 107.081 25.6561 107 25.0099 106.797C24.9199 106.707 24.6299 106.197 24.7299 103.797C24.8018 100.821 25.2556 97.8672 26.0799 95.0071C26.5413 93.5909 26.7973 92.1159 26.84 90.6271C26.84 87.4771 27.6799 85.7771 32.0999 84.6271C33.8473 84.0787 35.5546 83.4105 37.2099 82.6271C41.3699 80.7871 47.0699 78.267 52.8599 77.227C53.5199 77.107 54.1599 77.007 54.7899 76.937H55.3499C55.7799 76.937 56.2099 76.847 56.6199 76.827H59.0399C59.3799 76.827 59.7099 76.827 60.0399 76.907L60.7 76.987C61.02 76.987 61.3299 77.0771 61.6399 77.1371C61.9499 77.1971 62.0499 77.217 62.2599 77.277C62.4699 77.337 62.8599 77.4271 63.1599 77.5071L63.7299 77.687L64.6399 78.037L65.1199 78.237C65.5399 78.427 65.9399 78.637 66.3299 78.857C64.074 78.7652 61.815 78.9398 59.5999 79.3771C57.718 79.7583 55.8837 80.3452 54.1299 81.1271L49.0399 83.487C47.3894 84.2736 45.6685 84.903 43.8999 85.367C43.0099 85.567 42.0799 85.727 41.1699 85.907C40.2005 86.0336 39.2581 86.3174 38.3799 86.747C36.6978 87.7063 35.2923 89.0843 34.2999 90.747C33.2749 92.3282 32.4519 94.0314 31.8499 95.817C32.6177 94.0102 33.5872 92.2961 34.7399 90.707C35.7997 89.2249 37.1897 88.0095 38.7999 87.157C39.6261 86.8143 40.4993 86.5986 41.3899 86.5171C42.3099 86.3871 43.2399 86.267 44.1799 86.097C46.0548 85.7189 47.8777 85.1179 49.6099 84.307L54.7199 82.037C56.3967 81.3181 58.1471 80.7849 59.9399 80.447C62.9925 79.8727 66.1142 79.7615 69.2 80.117C69.3159 80.1923 69.4261 80.2758 69.5299 80.367C68.4034 81.6457 67.1391 82.7959 65.7599 83.797C64.0199 85.107 62.0099 86.097 60.2099 87.557C59.3104 88.2877 58.5309 89.1549 57.8999 90.1271C57.2699 91.1271 56.7899 92.047 56.0999 92.927C54.8208 94.7387 53.1316 96.2224 51.1699 97.2571C53.2623 96.3967 55.1029 95.0206 56.5199 93.2571C57.2345 92.3901 57.9022 91.4854 58.5199 90.547C59.1487 89.6766 59.9037 88.9049 60.7599 88.2571C62.4799 86.9671 64.5599 86.0571 66.4399 84.7671C67.9046 83.7635 69.247 82.5921 70.4399 81.277C70.4998 81.3524 70.5439 81.4391 70.5696 81.5318C70.5954 81.6246 70.6023 81.7215 70.59 81.817C69.74 84.757 67.0899 92.8869 63.5999 95.3969V95.427ZM76.8699 73.977L76.5499 74.227L76.1699 74.5171L75.9199 74.717C75.3914 74.8491 74.8385 74.8491 74.31 74.717C74.31 74.717 79.12 69.5371 81.2 67.6171C83.5452 65.4094 85.7654 63.0724 87.8499 60.617C89.9299 58.177 91.9599 55.6171 93.7699 52.9971C94.7255 51.739 95.7681 50.5494 96.8899 49.437C98.0106 48.2912 99.1888 47.2032 100.42 46.177C97.6005 47.7949 95.0666 49.8659 92.9199 52.307C90.8599 54.817 88.9199 57.307 86.7699 59.697C84.6199 62.087 82.5899 64.5271 80.4199 66.8771C79.3499 68.0471 78.2399 69.197 77.0799 70.287C76.2945 71.0555 75.4701 71.7832 74.6099 72.467C75.1399 71.367 75.6999 70.277 76.2999 69.207C77.1099 67.747 77.9599 66.297 78.8699 64.897C79.7799 63.497 80.7399 62.1071 81.7199 60.7471C82.6999 59.3871 83.7699 58.0771 84.8199 56.7471C82.3582 59.0774 80.1185 61.6318 78.1299 64.3771C76.888 66.0558 75.7396 67.8018 74.6899 69.607C74.9899 68.187 75.3499 66.777 75.7399 65.397C76.4999 62.757 77.4399 60.157 78.4599 57.597C79.4799 55.037 80.5999 52.5071 81.8199 50.0171L83.6799 46.287L85.6299 42.607C84.0299 44.877 82.4999 47.217 81.1099 49.607C79.7199 51.997 78.42 54.507 77.31 57.087C76.1698 59.6522 75.1945 62.2876 74.3899 64.977C73.5457 67.6902 72.9959 70.4862 72.7499 73.317V73.407C72.3536 71.3795 72.3536 69.2945 72.7499 67.2671C73.405 63.2613 74.3712 59.3126 75.6399 55.457C77.4499 49.737 78.8299 45.707 80.1099 42.457L80.2099 42.237C80.4999 41.507 80.7899 40.787 81.0499 40.087L81.2 39.737C81.42 39.237 81.63 38.7371 81.84 38.2671L82.0499 37.807C82.2399 37.387 82.4299 36.967 82.6199 36.577L82.8199 36.187C83.0099 35.797 83.2099 35.397 83.3999 35.037L83.5399 34.787C83.7499 34.387 83.9599 33.9971 84.1699 33.6271C84.9974 32.1084 86.0046 30.6948 87.1699 29.417C87.882 28.5604 88.775 27.8721 89.7848 27.4018C90.7946 26.9315 91.896 26.6908 93.0099 26.697C95.4943 26.7012 97.973 26.46 100.41 25.977C104.07 25.357 105.55 25.247 106.41 26.547C107.55 28.157 106.76 31.157 106.07 33.797C105.525 35.4312 105.255 37.1445 105.27 38.867C105.44 40.517 106.52 41.987 107.58 43.407C109.15 45.527 109.82 46.647 109.13 47.667C108.617 48.4332 108.165 49.2391 107.78 50.077C107.514 50.8144 107.087 51.4834 106.53 52.0351C105.973 52.5869 105.3 53.0078 104.56 53.2671H104.44L104.05 53.4971C103.351 53.6999 102.663 53.9402 101.99 54.217L101.69 54.317H101.55L101.14 54.4971C97.7482 55.8268 94.7068 57.9171 92.2499 60.607C88.2499 65.277 80.9399 70.867 77.4399 73.547L76.8699 73.977ZM84.3699 85.1469C94.0999 89.8369 106.11 92.067 109.79 91.447C109.93 91.447 110.3 91.367 110.68 91.907C110.885 92.1927 111.018 92.524 111.067 92.8724C111.116 93.2208 111.079 93.5759 110.96 93.907C110.9 94.007 110.81 94.1671 110.34 94.1371C107.05 93.9271 106.52 97.1971 106.2 99.1371C106.1 99.7571 105.83 101.407 105.53 101.487C103.81 101.957 103.13 103.357 102.46 104.697C101.537 106.949 99.8473 108.801 97.6899 109.927C92.8599 112.597 87.3299 110.737 80.9299 108.597C80.2499 108.357 79.5599 108.127 78.8599 107.897C77.1239 107.419 75.6001 106.369 74.5348 104.917C73.4696 103.465 72.9253 101.696 72.9899 99.8969V99.607C72.7199 97.447 73.6299 88.6769 74.4699 83.3969C74.6134 84.2529 74.8481 85.091 75.1699 85.8969C75.9663 87.6446 76.9167 89.3179 78.0099 90.8969C79.0099 92.4969 79.9099 94.167 80.7799 95.837C81.6643 97.516 82.449 99.2457 83.1299 101.017C82.6723 99.1609 82.0739 97.3422 81.34 95.577C80.6155 93.8066 79.7943 92.0772 78.8799 90.3969C77.9276 88.7893 77.0856 87.1188 76.3599 85.3969C76.0344 84.5705 75.829 83.7017 75.7499 82.817C75.6893 82.4092 75.6893 81.9948 75.7499 81.587C75.7686 81.5024 75.792 81.419 75.8199 81.337C77.3438 82.8456 78.9567 84.2614 80.6499 85.577C82.5699 87.097 84.5799 88.497 86.6499 89.837C88.73 91.0379 90.6601 92.4813 92.3999 94.1371C94.1669 95.7913 95.7494 97.632 97.1199 99.6271C96.0021 97.4462 94.5924 95.4276 92.9299 93.6271C91.2494 91.8229 89.3632 90.222 87.31 88.857C85.31 87.477 83.4199 86.0171 81.5299 84.5071C80.4599 83.6371 79.4099 82.727 78.3799 81.807C80.3172 83.0146 82.3166 84.1195 84.3699 85.117V85.1469ZM123.74 70.607C123.02 71.967 122.22 73.487 121.38 75.187C118.32 81.367 102.88 80.4171 97.1899 79.5171H96.9699C88.1999 79.5171 83.3299 78.857 80.6099 78.237C82.3599 78.137 84.0999 77.957 85.8199 77.717C89.5772 77.1591 93.2924 76.3472 96.9399 75.287C95.0699 75.577 93.1999 75.897 91.3299 76.147C89.4599 76.397 87.5899 76.647 85.7199 76.817C83.8499 76.987 81.9699 77.087 80.0999 77.077C79.2699 77.077 78.4399 77.077 77.6199 76.987L77.9199 76.7471H77.9799C79.8799 76.0971 81.7599 75.397 83.5999 74.587C86.5584 73.3651 89.3533 71.7796 91.9199 69.8671C93.2299 68.8671 94.2399 67.667 95.4099 66.647C96.5711 65.6164 97.7969 64.6611 99.0799 63.787C101.667 62.0287 104.474 60.6199 107.43 59.597C104.331 60.2949 101.364 61.4832 98.6399 63.117C97.2776 63.9432 95.9714 64.8585 94.7299 65.857C93.4799 66.857 92.3499 67.997 91.1599 68.857C88.6226 70.6249 85.8998 72.1103 83.0399 73.287C82.6299 73.457 82.21 73.607 81.81 73.777C85.81 70.697 91.12 66.327 94.56 62.357C96.7408 59.9827 99.4411 58.1449 102.45 56.987C102.585 56.9085 102.729 56.8479 102.88 56.807H103C103.8 56.577 104.5 56.327 105.14 56.077H105.26C107.792 55.2242 110.449 54.8016 113.12 54.827C115.76 55.027 115.76 55.407 115.76 56.307C115.76 58.777 120.48 62.957 125.42 63.837C126.11 63.967 126.36 64.157 126.42 64.237C126.74 64.847 125.16 67.907 123.74 70.607Z" fill="white"/>
</svg>
