<svg width="150" height="150" viewBox="0 0 150 150" fill="none" xmlns="http://www.w3.org/2000/svg">
<path d="M99.1134 102.57C98.0082 101.327 96.7969 100.183 95.4934 99.1503C95.1634 98.8903 94.8534 98.6102 94.4934 98.3502L93.4934 97.5802C92.8334 97.0502 92.1334 96.5803 91.4434 96.0503C88.6734 94.0503 85.8634 92.0502 83.0934 89.9502L81.5234 88.7803L81.2434 88.9402C80.9834 89.0802 80.7234 89.2102 80.4634 89.3202C80.2014 89.4328 79.9257 89.5103 79.6434 89.5503C79.3535 89.5842 79.0661 89.6376 78.7834 89.7102C78.5034 89.7802 78.2234 89.8702 77.9434 89.9602L77.5234 90.0902C75.7334 105.37 62.7334 107.6 58.1734 108.33C57.3734 108.46 56.5534 108.62 55.7334 108.8C62.9139 112.145 70.8559 113.517 78.7423 112.773C86.6287 112.03 94.1745 109.198 100.603 104.57C100.168 103.86 99.6692 103.191 99.1134 102.57Z" fill="white"/>
<path d="M57.9335 90.9899C67.2635 83.5299 75.3235 88.0699 77.1735 89.3099L77.5435 89.0698C77.8135 88.9198 78.0835 88.7599 78.3635 88.6199L79.1935 88.1699C79.4782 88.0261 79.7864 87.9346 80.1035 87.8999H80.3335L79.9735 87.6399L79.4535 87.2499L78.9235 86.8198L77.8635 85.9498C77.5135 85.6698 77.2035 85.3199 76.8635 85.0099L76.1235 84.2999L75.9035 84.0399L75.0035 83.0399L74.7835 82.7799L74.5835 82.5099L74.1735 81.9498L73.7735 81.3999C73.7135 81.3099 73.6435 81.2199 73.5835 81.1199L73.4035 80.8298L72.7035 79.6599C72.5835 79.4599 72.4835 79.2599 72.3835 79.0499L72.0835 78.4398C71.6869 77.6289 71.3331 76.7978 71.0235 75.9498C70.8835 75.5198 70.7535 75.0899 70.6135 74.6599C70.5635 74.4599 70.4935 74.2698 70.4435 74.0698H70.3835C70.1013 74.0513 69.8224 73.9977 69.5535 73.9099C69.2791 73.8115 68.9985 73.7313 68.7135 73.6699L68.0035 73.5399C60.5935 85.4299 49.0035 82.1999 45.0035 81.0299C41.978 80.2234 38.9008 79.6253 35.7935 79.2399C35.7935 79.2399 42.3935 68.8499 51.5535 66.6799C61.6835 64.2799 66.5535 70.4799 67.8735 72.5399C68.1735 72.5399 68.4835 72.5399 68.8035 72.5399H70.0535C69.6695 70.7131 69.4486 68.8558 69.3935 66.9899C68.7735 66.7199 68.1835 66.4498 67.5835 66.1998C66.9835 65.9498 66.1235 65.5799 65.4135 65.2799C65.0487 65.1528 64.6741 65.0558 64.2935 64.9899C63.9205 64.9245 63.5737 64.7546 63.2935 64.4999C63.007 64.2304 62.749 63.9321 62.5235 63.6099C62.2305 63.1851 61.9794 62.733 61.7735 62.2599L61.8535 61.9199C62.3027 61.5767 62.8334 61.3561 63.3935 61.2799C63.8663 61.194 64.3507 61.194 64.8235 61.2799C65.0442 61.3282 65.2566 61.4091 65.4535 61.5199C65.6491 61.6262 65.8277 61.761 65.9835 61.9199C66.3035 62.2299 66.5935 62.5799 66.9135 62.9199C67.5433 63.4962 68.119 64.1288 68.6335 64.8099C68.8735 65.1199 69.1035 65.4399 69.3235 65.8099C69.3235 64.8099 69.3235 63.8099 69.4035 62.8099C69.5335 61.0499 69.6735 59.2199 69.9635 57.4999L70.0535 57.0399L69.7235 56.6399C69.4435 56.3099 69.2235 55.9398 68.9735 55.5798C57.1735 60.3798 50.4635 51.8099 48.1535 48.7999C46.3924 46.6067 44.4811 44.5383 42.4335 42.6099C42.4335 42.6099 52.7435 38.6099 60.5435 41.8899C69.1035 45.5099 69.4035 52.5299 69.2635 54.7799C69.6372 55.0703 69.9731 55.4062 70.2635 55.7799C70.5135 54.2899 70.7335 53.3099 70.9235 52.4199C71.5176 49.5318 72.3918 46.7084 73.5335 43.9899C73.5281 43.9434 73.5281 43.8964 73.5335 43.8499C73.5335 43.5499 73.5835 43.2598 73.6135 42.9698C73.6735 42.3998 73.8535 41.8399 73.9435 41.2499V41.1898C65.4235 36.4298 66.1535 29.2799 67.0435 24.6099C58.2984 26.1014 50.198 30.171 43.7812 36.2969C37.3643 42.4228 32.9235 50.3258 31.0282 58.9924C29.1328 67.659 29.8693 76.6942 33.1432 84.9395C36.4172 93.1847 42.0793 100.264 49.4035 105.27C50.7535 100.76 53.2535 94.7199 57.9335 90.9899ZM55.3835 59.4999C55.6685 59.3389 55.9801 59.2306 56.3035 59.1799C56.6046 59.1304 56.9135 59.1686 57.1935 59.2899C57.4835 59.3999 57.7535 59.5499 58.0235 59.6499C58.2935 59.7499 58.5635 59.8699 58.8335 59.9899L59.5935 60.3999C60.0939 60.7028 60.5749 61.0368 61.0335 61.3999L60.9435 61.6199C60.3735 61.6199 59.8235 61.6199 59.2735 61.5599C58.9935 61.5599 58.7235 61.5599 58.4535 61.5599H57.6635C57.3987 61.5751 57.1349 61.6051 56.8735 61.6499C56.6294 61.7003 56.3761 61.6794 56.1435 61.5898C55.8912 61.4962 55.6498 61.3755 55.4235 61.2299C55.1324 61.0367 54.858 60.8192 54.6035 60.5798V60.3499C54.7841 60.0027 55.0531 59.7095 55.3835 59.4999ZM49.2235 60.3198C49.4397 60.2019 49.6781 60.1304 49.9235 60.1099H52.0935C52.5607 60.1464 53.025 60.2132 53.4835 60.3099V60.4598C53.0335 60.5898 52.5835 60.6998 52.1535 60.8398C51.7235 60.9798 51.3035 61.1099 50.8935 61.2599C50.6884 61.3383 50.4908 61.4354 50.3035 61.5499C50.1195 61.6475 49.9198 61.7117 49.7135 61.7399C49.2305 61.8071 48.7393 61.7869 48.2635 61.6799L48.1935 61.5599C48.3806 61.0367 48.7595 60.6041 49.2535 60.3499L49.2235 60.3198Z" fill="white"/>
<path d="M78.4931 24.1C78.7963 24.9138 79.037 25.7496 79.2131 26.6C81.2131 36.04 76.5731 40.16 75.2731 41.11V41.25C75.3099 41.8679 75.256 42.4877 75.1131 43.09C74.9624 43.6346 74.7002 44.142 74.3431 44.58C74.0031 45.58 73.6831 46.58 73.3931 47.58L73.3031 47.91C73.7471 47.509 74.2453 47.1723 74.7831 46.91C74.9431 46.81 75.1131 46.72 75.2831 46.63C75.6531 45 77.6331 38.63 86.9631 35.99C95.1831 33.67 104.333 41.1801 104.333 41.1801C101.869 42.5433 99.5033 44.077 97.2531 45.77C94.2531 48.1 85.7031 54.69 75.5131 47.24L75.1731 47.49C74.6931 47.85 74.3031 48.29 73.8231 48.61L73.1031 49.12L72.9331 49.23C72.6331 50.34 72.3631 51.46 72.1331 52.58C71.7831 54.27 71.4931 55.96 71.2831 57.66C71.0769 59.3594 70.9601 61.0684 70.9331 62.78C70.9331 63.56 70.9331 64.34 70.9331 65.11L71.1131 65L71.9631 64.58C72.2031 64.45 72.4631 64.33 72.7131 64.21C72.9831 62.15 74.7131 53.97 85.3631 52.05C94.6331 50.38 104.833 57.26 104.833 57.26C102.141 58.8539 99.5612 60.6314 97.1131 62.58C93.9031 65.25 84.6731 72.7701 73.2131 65.0601C73.0131 65.2201 72.8031 65.38 72.6131 65.55C72.391 65.7405 72.1807 65.9442 71.9831 66.16C71.7867 66.3671 71.565 66.5484 71.3231 66.7L71.0431 66.87C71.2013 68.8807 71.5597 70.8706 72.1131 72.8101L72.2831 73.41L72.4931 74C72.6331 74.39 72.7631 74.7901 72.9131 75.1801C73.2258 75.9453 73.5796 76.693 73.9731 77.42L74.2631 77.97C74.3545 78.1533 74.4581 78.3304 74.5731 78.5L75.2431 79.5L75.4131 79.76L75.6031 80L75.9831 80.49L76.5531 81.21L76.7631 81.4399L77.6031 82.33L77.8131 82.55L78.0431 82.76L78.5031 83.17L78.9731 83.5699C79.1206 83.7106 79.2776 83.841 79.4431 83.96L79.5831 84.0601C79.4515 83.5306 79.3944 82.9852 79.4131 82.4399V82.34C78.8627 81.3933 78.5218 80.3396 78.4131 79.25C78.3782 78.9579 78.3582 78.6642 78.3531 78.37C78.3531 78.08 78.3531 77.78 78.3531 77.48C78.3531 77.18 78.4331 76.88 78.4831 76.58C78.5331 76.28 78.6431 75.9899 78.7231 75.6899C78.8031 75.3899 78.9131 75.09 79.0031 74.78L79.1331 74.3101C79.1831 74.1501 79.2531 74.01 79.3131 73.86C79.4424 73.5624 79.6105 73.2834 79.8131 73.03C80.0301 72.8015 80.2794 72.606 80.5531 72.45L80.9831 72.23C81.1328 72.1695 81.2865 72.1194 81.4431 72.08C81.7704 71.994 82.1053 71.9405 82.4431 71.92C82.7994 71.9046 83.156 71.9383 83.5031 72.02C83.8985 72.1093 84.2814 72.247 84.6431 72.4301L84.8931 72.89C84.8632 73.5877 84.7661 74.2809 84.6031 74.96C84.5596 75.2071 84.4995 75.4509 84.4231 75.6899C84.4231 75.7999 84.3431 75.9 84.3131 76C84.2831 76.1 84.2431 76.19 84.2131 76.28C84.1416 76.4472 84.0399 76.5997 83.9131 76.73C83.7936 76.8629 83.647 76.9686 83.4831 77.04C83.3019 77.1139 83.1278 77.2043 82.9631 77.3101C82.7838 77.3976 82.6213 77.5161 82.4831 77.66C81.9041 78.2564 81.4095 78.9294 81.0131 79.66C80.611 80.3991 80.302 81.185 80.0931 82L80.1531 82.39C80.2431 82.92 80.4431 83.39 80.5031 83.96C80.5031 84.23 80.5731 84.51 80.5931 84.79L80.9831 85.0601L81.5231 85.42L82.6131 86.14L84.7831 87.58C87.1531 89.16 89.4931 90.81 91.7831 92.58C91.7639 92.2422 91.8045 91.9036 91.9031 91.58C92.0231 91.21 92.1631 90.86 92.2731 90.5C92.3831 90.14 92.5131 89.7899 92.6331 89.4399C92.6331 89.3399 92.7131 89.25 92.7631 89.15C91.2131 87.32 86.6931 80.77 92.0731 71.79C96.9031 63.71 108.803 60.5601 108.803 60.5601C108.231 63.6348 107.874 66.7456 107.733 69.87C107.633 74.03 107.233 85.87 93.9831 89.47C93.9881 89.5666 93.9881 89.6634 93.9831 89.76C93.9831 90.11 93.9131 90.45 93.9031 90.76C93.8843 91.0931 93.8843 91.4269 93.9031 91.76C93.9328 92.0955 93.9057 92.4335 93.8231 92.76C93.7417 93.0998 93.6382 93.4338 93.5131 93.76V93.84C94.1131 94.33 94.7131 94.84 95.2931 95.34C95.8731 95.84 96.6231 96.5 97.2931 97.13C97.6131 97.45 97.9431 97.75 98.2931 98.13L99.2131 99.13C99.5231 99.45 99.8031 99.82 100.083 100.13C100.37 100.485 100.637 100.856 100.883 101.24C101.133 101.63 101.393 102.01 101.623 102.41C101.853 102.81 101.973 103.09 102.133 103.41C109.167 97.9065 114.383 90.4146 117.104 81.9077C119.824 73.4009 119.923 64.2723 117.388 55.7085C114.853 47.1446 109.8 39.5413 102.887 33.8866C95.9738 28.2319 87.5196 24.7871 78.6231 24L78.4931 24.1ZM91.2531 70.36C91.0487 70.6231 90.8211 70.8674 90.5731 71.09C90.3879 71.2546 90.183 71.3957 89.9631 71.51C89.7608 71.6176 89.5311 71.6628 89.3031 71.64C89.0635 71.6199 88.8227 71.6199 88.5831 71.64L87.8631 71.72C87.6131 71.72 87.3731 71.7201 87.1231 71.8101C86.6131 71.8101 86.1231 71.95 85.5831 72.01L85.4731 71.8101C85.8404 71.419 86.2384 71.0578 86.6631 70.73L87.3131 70.26C87.5431 70.12 87.7731 69.97 88.0131 69.85C88.2531 69.73 88.4931 69.55 88.7431 69.41C88.9875 69.2665 89.2709 69.2035 89.5531 69.23C89.8578 69.2462 90.1566 69.3209 90.4331 69.45C90.7596 69.6081 91.0415 69.8454 91.2531 70.14V70.36Z" fill="white"/>
<path d="M74.3735 63.1002C74.4645 62.445 74.6358 61.8035 74.8835 61.1902C75.131 60.5685 75.4322 59.9697 75.7835 59.4002C76.5089 58.262 77.414 57.2489 78.4635 56.4002C79.5342 55.5437 80.7232 54.8464 81.9935 54.3302C82.3135 54.2102 82.6335 54.0802 82.9935 53.9802L83.4836 53.8202L83.9735 53.6902C84.633 53.5229 85.3005 53.3895 85.9735 53.2903C88.6299 52.8884 91.3354 52.9424 93.9735 53.4502C95.2762 53.6971 96.5545 54.0586 97.7935 54.5302C98.4087 54.7653 99.0097 55.0357 99.5935 55.3402C100.182 55.629 100.747 55.9633 101.284 56.3402C100.047 55.99 98.7916 55.7096 97.5235 55.5002C96.2788 55.2835 95.0238 55.13 93.7635 55.0403C91.2778 54.8594 88.7797 54.95 86.3135 55.3103C85.1035 55.4698 83.9114 55.7443 82.7535 56.1302C81.6065 56.5212 80.5091 57.0447 79.4836 57.6902C78.4456 58.3481 77.4948 59.1344 76.6535 60.0302C75.7577 60.9454 74.9907 61.9781 74.3735 63.1002Z" fill="white"/>
<path d="M66.0736 72.3397C64.0577 70.8399 61.6871 69.8889 59.1936 69.5797C57.9913 69.4347 56.7759 69.4347 55.5736 69.5797C54.3626 69.7321 53.1678 69.9932 52.0036 70.3597C49.6206 71.0889 47.3238 72.0747 45.1536 73.2998C44.0636 73.9198 42.9936 74.5898 41.9536 75.2998C40.9142 76.0351 39.9129 76.8228 38.9536 77.6598C39.2737 77.0888 39.6382 76.5438 40.0436 76.0298C40.4198 75.4989 40.8237 74.9881 41.2536 74.4998C42.1774 73.5459 43.1811 72.6727 44.2536 71.8898C46.4122 70.3137 48.8233 69.1166 51.3836 68.3497C52.0405 68.149 52.7083 67.9854 53.3836 67.8597L53.8836 67.7698L54.3936 67.6997C54.7336 67.6997 55.0736 67.6297 55.3936 67.6097C56.764 67.5239 58.1394 67.6452 59.4736 67.9697C60.7959 68.2916 62.0539 68.836 63.1936 69.5797C63.7601 69.9358 64.2894 70.348 64.7736 70.8098C65.2675 71.2651 65.704 71.7788 66.0736 72.3397Z" fill="white"/>
<path d="M76.9033 45.3397C77.13 44.7946 77.4079 44.2724 77.7333 43.7798C78.055 43.2748 78.4126 42.7935 78.8033 42.3397C79.5915 41.4237 80.4919 40.6107 81.4833 39.9198C83.5038 38.5301 85.8167 37.6234 88.2433 37.2698C89.4453 37.0991 90.6598 37.0321 91.8733 37.0697C93.0822 37.1194 94.2839 37.2801 95.4633 37.5498C96.6374 37.8233 97.7777 38.2257 98.8633 38.7498C99.9691 39.2423 100.983 39.9185 101.863 40.7498C99.706 40.0097 97.4718 39.5166 95.2033 39.2798C94.0933 39.1698 92.9833 39.0997 91.8733 39.0997C90.7676 39.0908 89.6623 39.1476 88.5633 39.2698C84.0713 39.7822 79.93 41.9455 76.9433 45.3397H76.9033Z" fill="white"/>
<path d="M75.1934 40.16C75.7725 39.045 76.2221 37.8673 76.5334 36.65C76.8505 35.4657 77.0515 34.2533 77.1334 33.03C77.278 30.6174 76.9694 28.199 76.2234 25.9C76.0481 25.3355 75.8411 24.7812 75.6034 24.24C75.4834 23.98 75.3634 23.71 75.2234 23.45C75.0834 23.19 74.9434 22.93 74.7934 22.67C74.1854 21.6381 73.4752 20.6698 72.6734 19.78C70.9934 17.9375 69.0728 16.3297 66.9634 15C67.5966 15.1309 68.2185 15.3115 68.8234 15.54C70.6582 16.2286 72.3524 17.2451 73.8234 18.54C74.3206 18.989 74.7914 19.4664 75.2334 19.97C75.6699 20.4809 76.074 21.0186 76.4434 21.58C77.1886 22.7182 77.7584 23.9622 78.1334 25.27C78.9208 27.8343 79.0853 30.5493 78.6134 33.1899C78.3731 34.4907 77.9559 35.7524 77.3734 36.9399C77.0876 37.5301 76.7531 38.0954 76.3734 38.63C76.0366 39.1812 75.641 39.6943 75.1934 40.16Z" fill="white"/>
<path d="M67.2534 54.72C65.2424 55.6116 63.0221 55.9233 60.8434 55.62C58.589 55.3078 56.4699 54.361 54.7334 52.89C54.2994 52.526 53.8886 52.1352 53.5034 51.72L52.9534 51.1C52.7834 50.9 52.6134 50.71 52.4534 50.51C51.7734 49.73 51.1134 48.94 50.4534 48.17C49.0834 46.61 47.7234 45.07 46.1934 43.54C47.2529 43.8531 48.2629 44.3144 49.1934 44.91C50.1104 45.5041 50.9767 46.173 51.7834 46.91C52.5952 47.6235 53.357 48.3919 54.0634 49.21L55.0634 50.4C55.38 50.7497 55.7137 51.0834 56.0634 51.4C57.5145 52.7372 59.2625 53.7105 61.1634 54.24C62.1424 54.5199 63.1477 54.6975 64.1634 54.77C65.1925 54.8555 66.2275 54.8387 67.2534 54.72Z" fill="white"/>
<path d="M76.1033 90.9697C76.0562 91.6742 75.9491 92.3735 75.7833 93.0598C75.627 93.7399 75.4232 94.4083 75.1733 95.0598C74.6753 96.4114 74.0029 97.6922 73.1733 98.8698C71.4647 101.281 69.1115 103.163 66.3833 104.3C65.7041 104.582 65.0097 104.825 64.3033 105.03L63.2533 105.3L62.2533 105.54L60.2533 106.04C59.9333 106.14 59.5933 106.22 59.2533 106.3L58.2533 106.57C56.9333 106.94 55.6133 107.32 54.3033 107.74C52.9933 108.16 51.6733 108.58 50.3633 109.11C51.4033 108.135 52.5666 107.302 53.8233 106.63C55.0619 105.935 56.3524 105.336 57.6833 104.84C59.0073 104.335 60.3596 103.908 61.7333 103.56L62.7333 103.31L63.7333 103.07C64.3633 102.9 64.9933 102.7 65.6033 102.47C68.0777 101.518 70.2866 99.9852 72.0433 97.9998C72.9367 96.986 73.7241 95.8836 74.3933 94.7097C75.0858 93.5228 75.6586 92.27 76.1033 90.9697Z" fill="white"/>
<path d="M94.0635 87.7699C95.1475 87.2404 96.176 86.6039 97.1335 85.8699C98.0698 85.1596 98.9309 84.3554 99.7035 83.4698C101.208 81.7467 102.281 79.69 102.833 77.4698C102.97 76.916 103.077 76.3552 103.153 75.7899L103.373 74.0099C103.524 72.7763 103.755 71.5537 104.063 70.3499C104.368 69.1453 104.762 67.9653 105.243 66.8198C105.715 65.6619 106.344 64.575 107.113 63.5898C106.823 64.7998 106.613 65.9799 106.403 67.1699C106.193 68.3599 106.023 69.5298 105.853 70.7098C105.683 71.8898 105.543 73.0699 105.393 74.2599C105.393 74.5499 105.333 74.8499 105.293 75.1499L105.163 76.0898C105.064 76.7281 104.924 77.3594 104.743 77.9799C104.044 80.4415 102.676 82.6609 100.79 84.3911C98.9047 86.1213 96.5761 87.2944 94.0635 87.7799V87.7699Z" fill="white"/>
<path d="M64.3835 119.73C64.0769 119.73 63.7773 119.639 63.5224 119.469C63.2675 119.298 63.0688 119.056 62.9515 118.773C62.8342 118.49 62.8035 118.178 62.8633 117.877C62.9231 117.577 63.0707 117.301 63.2875 117.084C63.5043 116.867 63.7804 116.719 64.0811 116.66C64.3818 116.6 64.6934 116.631 64.9766 116.748C65.2599 116.865 65.502 117.064 65.6723 117.319C65.8426 117.574 65.9335 117.873 65.9335 118.18C65.9335 118.591 65.7702 118.985 65.4795 119.276C65.1888 119.567 64.7946 119.73 64.3835 119.73Z" fill="white"/>
<path d="M49.1935 135.47L43.9735 121.95L42.8135 121.5V120.75H46.2035L50.4435 131.82L55.0235 120.75H56.3735L50.3435 135.47H49.1935Z" fill="white"/>
<path d="M63.1236 135.47V121.95L61.9536 121.5V120.75H65.6236V135.47H63.1236Z" fill="white"/>
<path d="M83.5331 135.5V125.01C83.5705 124.423 83.4854 123.833 83.2831 123.28C83.1326 122.868 82.8906 122.496 82.5753 122.191C82.2601 121.886 81.8798 121.657 81.4631 121.52C81.0903 121.388 80.6986 121.317 80.3031 121.31C79.8447 121.325 79.3904 121.402 78.9531 121.54C78.4735 121.681 78.0207 121.901 77.6131 122.19C77.239 122.461 76.92 122.8 76.6731 123.19C76.4442 123.541 76.3257 123.952 76.3331 124.37V135.5H73.8231V121.98L72.6831 121.53V120.78H76.3331V121.78C76.7284 121.418 77.1813 121.124 77.6731 120.91C78.5437 120.53 79.4831 120.333 80.4331 120.33H80.7231C81.4013 120.326 82.0761 120.427 82.7231 120.63C83.3432 120.819 83.9229 121.121 84.4331 121.52C84.9305 121.921 85.342 122.417 85.6431 122.98C85.9505 123.602 86.1081 124.287 86.1031 124.98V135.5H83.5331Z" fill="white"/>
<path d="M100.374 135.81H100.074C99.1817 135.809 98.2974 135.646 97.4635 135.33C96.6026 135.011 95.8188 134.513 95.1635 133.87C94.4553 133.174 93.8971 132.34 93.5235 131.42C92.7277 129.385 92.6606 127.138 93.3335 125.06C93.6136 124.166 94.0691 123.336 94.6735 122.62C95.2931 121.885 96.0687 121.297 96.944 120.899C97.8192 120.501 98.7722 120.303 99.7335 120.32H100.024C100.816 120.32 101.604 120.452 102.354 120.71C103.085 120.953 103.764 121.333 104.354 121.83C104.957 122.33 105.442 122.959 105.774 123.67C106.136 124.456 106.317 125.314 106.304 126.18V126.47H95.6635C95.5708 126.964 95.5338 127.467 95.5535 127.97C95.5333 128.964 95.696 129.954 96.0335 130.89C96.317 131.652 96.741 132.354 97.2835 132.96C97.7732 133.496 98.3738 133.919 99.0435 134.2C99.6346 134.457 100.269 134.6 100.914 134.62C101.605 134.592 102.285 134.429 102.914 134.14C103.652 133.785 104.304 133.273 104.824 132.64L105.004 132.42L105.174 132.56L105.294 132.42L106.064 133.05L105.874 133.27C105.206 134.109 104.34 134.769 103.354 135.19C102.411 135.591 101.398 135.802 100.374 135.81ZM103.934 125.46C104.164 125.46 104.714 125.46 104.754 125.19C104.782 124.812 104.702 124.434 104.524 124.1C104.135 123.256 103.492 122.557 102.684 122.1C102.013 121.732 101.267 121.52 100.504 121.48C99.9598 121.49 99.4232 121.605 98.9235 121.82C98.4002 122.066 97.9259 122.405 97.5235 122.82C97.0989 123.23 96.7382 123.702 96.4535 124.22C96.227 124.637 96.0428 125.076 95.9035 125.53L103.934 125.46Z" fill="white"/>
</svg>
