<svg width="186" height="91" viewBox="0 0 186 91" fill="none" xmlns="http://www.w3.org/2000/svg">
<path d="M147.67 0H38.05C17.0356 0 0 17.0354 0 38.0498V52.79C0 73.8045 17.0356 90.8398 38.05 90.8398H147.67C168.684 90.8398 185.72 73.8045 185.72 52.79V38.0498C185.72 17.0354 168.684 0 147.67 0Z" fill="#040006"/>
<path d="M15.9005 38.8901V51.6899C15.9031 57.8315 18.344 63.7207 22.6868 68.0635C27.0296 72.4062 32.9189 74.8475 39.0605 74.8501H69.0605V84.79H39.0605C34.716 84.7914 30.4138 83.9364 26.3998 82.2744C22.3857 80.6125 18.7385 78.176 15.6664 75.104C12.5944 72.032 10.1578 68.3846 8.49585 64.3706C6.83389 60.3566 5.97916 56.0545 5.98047 51.71V39.1001C5.97916 34.7551 6.83383 30.4526 8.49567 26.438C10.1575 22.4234 12.5939 18.7755 15.6658 15.7026C18.7377 12.6298 22.3849 10.1923 26.399 8.5293C30.4131 6.86625 34.7155 6.01025 39.0605 6.01025H40.0605V15.75H39.0105C32.881 15.7659 27.0075 18.2099 22.6761 22.5469C18.3448 26.8839 15.9084 32.7607 15.9005 38.8901Z" fill="white"/>
<path d="M111.23 70.0103H101.53L91.0599 49.6602L89.2299 49.79H84.3599V84.79H74.6299V20.5898C84.3632 20.5898 89.5899 20.6166 90.3099 20.6699C91.2302 20.7643 92.1425 20.9247 93.0399 21.1499C95.6783 21.7372 98.1017 23.0461 100.04 24.9302C102.58 27.3835 103.85 30.8166 103.85 35.23C103.88 36.9045 103.654 38.574 103.18 40.1802C102.795 41.4884 102.204 42.7271 101.43 43.8501C100.743 44.833 99.9174 45.7119 98.9799 46.46L111.23 70.0103ZM89.2299 40.0801L89.7399 40.02C90.702 39.9391 91.6227 39.5929 92.3998 39.02C92.9435 38.5442 93.3792 37.9578 93.6777 37.2998C93.9762 36.6418 94.1306 35.9276 94.1306 35.2051C94.1306 34.4826 93.9762 33.7683 93.6777 33.1104C93.3792 32.4524 92.9435 31.866 92.3998 31.3901C91.62 30.8222 90.7007 30.4766 89.7399 30.3901C89.3999 30.3901 87.6099 30.3901 84.3599 30.3901V40.1299L89.2299 40.0801Z" fill="white"/>
<path d="M132.959 30.8999V53.0303C132.94 54.3007 132.629 55.5496 132.049 56.6802C130.829 59.0868 128.699 60.2931 125.659 60.2998C122.619 60.3065 120.499 59.1002 119.299 56.6802C118.723 55.549 118.415 54.3 118.399 53.0303V20.5898H108.689V53.0303C108.718 55.9876 109.445 58.8962 110.809 61.52C113.303 66.5 117.433 69.2901 123.199 69.8901C124.017 69.9715 124.838 70.0117 125.659 70.0103C126.509 70.0103 127.329 70.0101 128.129 69.8901C133.909 69.2901 138.046 66.5 140.539 61.52C141.89 58.8918 142.609 55.9851 142.639 53.0303V35.3701C139.019 34.9478 135.628 33.3817 132.959 30.8999Z" fill="white"/>
<path d="M180.47 52.6802C180.467 61.192 177.086 69.3548 171.069 75.3755C165.053 81.3961 156.892 84.7821 148.38 84.79H90.04V74.8701H148.38C151.33 74.9328 154.264 74.4056 157.008 73.3198C159.752 72.2341 162.251 70.6118 164.36 68.5474C166.469 66.4829 168.144 64.0182 169.288 61.2979C170.432 58.5775 171.021 55.6561 171.021 52.7051C171.021 49.754 170.432 46.8327 169.288 44.1123C168.144 41.3919 166.469 38.9272 164.36 36.8628C162.251 34.7984 159.752 33.1761 157.008 32.0903C154.264 31.0046 151.33 30.4774 148.38 30.54H144.64C141.448 30.4489 138.417 29.1168 136.191 26.8267C133.965 24.5365 132.72 21.4685 132.72 18.2749C132.72 15.0813 133.965 12.0138 136.191 9.72363C138.417 7.43344 141.448 6.10141 144.64 6.01025H158.07C163.889 7.8763 169.08 11.3122 173.07 15.9399H144.64C144.019 15.9399 143.424 16.1867 142.985 16.6255C142.547 17.0643 142.3 17.6597 142.3 18.2803C142.3 18.9009 142.547 19.4957 142.985 19.9346C143.424 20.3734 144.019 20.6201 144.64 20.6201H148.38C156.883 20.628 165.036 24.0073 171.052 30.0171C177.067 36.0269 180.454 44.177 180.47 52.6802Z" fill="white"/>
<path d="M54.6807 70.0103H44.9707V20.6099H54.6807V70.0103Z" fill="white"/>
<path d="M44.9707 6.02002V15.73H59.5307V70.0103H69.2307V15.73H127.611C128.158 12.0465 129.884 8.63956 132.531 6.02002H44.9707Z" fill="white"/>
</svg>
