<svg width="393" height="72" viewBox="0 0 393 72" fill="none" xmlns="http://www.w3.org/2000/svg">
<path d="M50.3304 0L37.1504 5.45996V31.8198L55.7904 13.1802L50.3304 0Z" fill="#1F1F28"/>
<path d="M65.7096 34.0298L71.1696 20.8501L57.9896 15.3901L39.3496 34.02L65.7096 34.0298Z" fill="#1F1F28"/>
<path d="M39.3496 37.1401L57.9896 55.7798L71.1696 50.3301L65.7096 37.1401H39.3496Z" fill="#1F1F28"/>
<path d="M15.3906 13.1802L34.0306 31.8198V5.45996L20.8506 0L15.3906 13.1802Z" fill="#1F1F28"/>
<path d="M37.1406 65.71L50.3206 71.1699L55.7806 57.9902L37.1406 39.3398V65.71Z" fill="#1F1F28"/>
<path d="M20.8406 71.1602L34.0206 65.71L34.0306 39.3398L15.3906 57.98L20.8406 71.1602Z" fill="#1F1F28"/>
<path d="M5.45999 37.1401L0 50.3198L13.18 55.7798L31.82 37.1401H5.45999Z" fill="#1F1F28"/>
<path d="M31.8207 34.02L13.1907 15.3799L0.0107422 20.8398L5.46072 34.02H31.8207Z" fill="#1F1F28"/>
<path d="M87.2104 45.4701C90.633 47.1617 94.3927 48.0605 98.2104 48.1C102.1 48.1 103.99 46.7898 103.99 44.6498C103.99 42.5098 102.1 41.3902 97.3304 39.7602C90.1804 37.2502 85.4104 33.2902 85.4104 27.0102C85.4104 19.5502 91.7504 13.7699 102.41 13.7699C106.332 13.665 110.229 14.4159 113.83 15.9701L111.45 24.9701C108.573 23.6516 105.445 22.9694 102.28 22.9701C98.8304 22.9701 96.9504 24.2198 96.9504 26.1098C96.9504 28.2398 99.2104 29.11 104.54 31.06C112.14 33.89 115.54 37.97 115.54 43.87C115.54 51.15 109.9 57.3598 97.5404 57.3598C93.2615 57.3961 89.024 56.5201 85.1104 54.7899L87.2104 45.4701Z" fill="#1F1F28"/>
<path d="M161.46 35.1699C161.46 48.7899 153.3 57.46 140.25 57.46C127.2 57.46 119.91 47.5999 119.91 35.8599C119.91 23.4999 127.91 13.71 140.91 13.71C154.56 13.71 161.46 23.8099 161.46 35.1699ZM131.9 35.6099C131.9 43.6099 135.35 48.48 140.81 48.48C146.27 48.48 149.47 43.15 149.47 35.48C149.47 28.2 146.21 22.6699 140.69 22.6699C135.35 22.6799 131.9 27.8299 131.9 35.6099Z" fill="#1F1F28"/>
<path d="M167.49 14.46H178.86V47.27H195.11V56.75H167.49V14.46Z" fill="#1F1F28"/>
<path d="M212.19 46.9702L209.801 56.77H198.061L210.281 14.46H225.411L238.031 56.77H225.811L223.111 46.9702H212.19ZM221.541 38.6299L219.541 31.0298C218.921 28.6498 218.101 25.1302 217.411 22.6802H217.281C216.661 25.1302 216.031 28.6798 215.461 31.0298L213.641 38.6299H221.541Z" fill="#1F1F28"/>
<path d="M243.45 15.0299C247.982 14.3987 252.555 14.1047 257.13 14.1501C263.6 14.1501 268.24 15.0303 271.44 17.4103C274.14 19.5503 275.58 22.5603 275.58 26.6403C275.58 31.9103 271.63 35.6403 268.37 36.8703V37.0602C271.13 38.3102 272.7 41.0101 273.76 44.6501C275.02 48.9801 276.4 55.1302 277.22 56.7702H265.67C264.363 53.6098 263.375 50.3271 262.72 46.9704C261.59 41.9704 260.02 40.8903 256.5 40.8903H254.68V56.7702H243.45V15.0299ZM254.68 32.7301H257.68C261.95 32.7301 264.4 30.6602 264.4 27.5202C264.4 24.3802 262.33 22.5202 258.56 22.5202C257.278 22.4434 255.991 22.5274 254.73 22.7702L254.68 32.7301Z" fill="#1F1F28"/>
<path d="M293.54 14.46V56.77H282.18V14.46H293.54Z" fill="#1F1F28"/>
<path d="M312.62 14.46V38.46C312.62 44.86 314.82 48.46 319.27 48.46C323.72 48.46 325.99 45.2 325.99 38.46V14.46H337.35V37.8101C337.35 50.8701 330.82 57.46 318.96 57.46C307.41 57.46 301.26 51.1201 301.26 37.5601V14.46H312.62Z" fill="#1F1F28"/>
<path d="M380.92 41.6401C380.73 36.8101 380.67 31.1598 380.67 24.5698H380.48C379.16 30.1498 377.4 36.4901 376.02 41.1401L371.82 55.8901H362.97L359.45 41.2002C358.32 36.6202 357.07 30.3398 356.06 24.5698H355.94C355.69 30.5698 355.5 36.8101 355.31 41.6401L354.62 56.77H344.2L346.84 14.46H362.09L364.85 25.8198C366.04 30.5298 367.3 36.1801 368.18 41.3301H368.36C369.56 36.1801 370.94 30.2203 372.19 25.7603L375.39 14.46H390.28L392.41 56.77H381.41L380.92 41.6401Z" fill="#1F1F28"/>
</svg>
