<svg width="227" height="207" viewBox="0 0 227 207" fill="none" xmlns="http://www.w3.org/2000/svg">
<path d="M154.849 149.321C152.965 147.202 150.9 145.251 148.677 143.49C148.114 143.046 147.586 142.569 146.972 142.126L145.266 140.813C144.141 139.909 142.947 139.108 141.771 138.204C137.048 134.793 132.256 131.383 127.533 127.802L124.856 125.807L124.378 126.08C123.935 126.319 123.492 126.54 123.048 126.728C122.602 126.92 122.131 127.052 121.65 127.12C121.156 127.178 120.666 127.269 120.184 127.393C119.706 127.512 119.229 127.666 118.751 127.819L118.035 128.041C114.983 154.096 92.8159 157.898 85.0404 159.143C83.6762 159.365 82.278 159.638 80.8798 159.945C93.1236 165.648 106.666 167.986 120.114 166.719C133.561 165.451 146.428 160.623 157.39 152.732C156.648 151.521 155.797 150.379 154.849 149.321Z" fill="black"/>
<path d="M84.6311 129.575C100.54 116.854 114.284 124.596 117.438 126.71L118.069 126.301C118.53 126.045 118.99 125.772 119.467 125.533L120.883 124.766C121.368 124.521 121.894 124.365 122.435 124.306H122.827L122.213 123.862L121.326 123.197L120.422 122.464L118.615 120.981C118.018 120.503 117.49 119.906 116.91 119.378L115.648 118.167L115.273 117.724L113.738 116.019L113.363 115.575L113.022 115.115L112.323 114.16L111.641 113.222C111.539 113.069 111.419 112.915 111.317 112.745L111.01 112.25L109.816 110.255C109.612 109.914 109.441 109.573 109.271 109.215L108.759 108.175C108.083 106.792 107.48 105.375 106.952 103.929C106.713 103.196 106.491 102.463 106.253 101.729C106.167 101.388 106.048 101.064 105.963 100.723H105.86C105.379 100.692 104.904 100.6 104.445 100.451C103.977 100.283 103.499 100.146 103.013 100.041L101.802 99.8197C89.1669 120.094 69.4041 114.586 62.5835 112.591C57.4246 111.216 52.1774 110.196 46.879 109.539C46.879 109.539 58.133 91.8226 73.7522 88.1224C91.0255 84.03 99.3296 94.6019 101.58 98.1146C102.092 98.1146 102.621 98.1146 103.166 98.1146H105.298C104.643 94.9996 104.266 91.8325 104.172 88.6509C103.115 88.1905 102.109 87.73 101.086 87.3037C100.063 86.8774 98.5964 86.2467 97.3857 85.7351C96.7637 85.5185 96.125 85.353 95.476 85.2405C94.8399 85.1291 94.2486 84.8394 93.7708 84.405C93.2823 83.9455 92.8423 83.4369 92.4578 82.8874C91.9583 82.1631 91.53 81.3923 91.1789 80.5855L91.3154 80.0058C92.0813 79.4205 92.9862 79.0444 93.9413 78.9145C94.7475 78.768 95.5735 78.768 96.3797 78.9145C96.7561 78.9969 97.1181 79.1348 97.454 79.3237C97.7874 79.5049 98.092 79.7348 98.3577 80.0058C98.9033 80.5344 99.3978 81.1312 99.9435 81.711C101.017 82.6936 101.999 83.7723 102.876 84.9337C103.286 85.4623 103.678 86.008 104.053 86.6389C104.053 84.9337 104.053 83.2286 104.189 81.5234C104.411 78.5223 104.65 75.4018 105.144 72.4689L105.298 71.6846L104.735 71.0025C104.258 70.4398 103.882 69.8088 103.456 69.195C83.3352 77.3797 71.8936 62.7667 67.9547 57.6341C64.9517 53.8944 61.6927 50.3675 58.2012 47.0791C58.2012 47.0791 75.7814 40.2585 89.0816 45.8515C103.678 52.0241 104.189 63.9944 103.951 67.831C104.588 68.3261 105.161 68.8989 105.656 69.5361C106.082 66.9954 106.457 65.3244 106.781 63.8068C107.794 58.8821 109.285 54.0678 111.232 49.4322C111.222 49.3529 111.222 49.2728 111.232 49.1935C111.232 48.6819 111.317 48.1874 111.368 47.6929C111.47 46.721 111.777 45.7662 111.931 44.7601V44.6577C97.4028 36.5412 98.6476 24.3494 100.165 16.3863C85.2533 18.9295 71.4409 25.8688 60.4992 36.3145C49.5574 46.7601 41.9852 60.236 38.7533 75.014C35.5214 89.7919 36.7773 105.198 42.3598 119.258C47.9424 133.317 57.5972 145.389 70.0861 153.924C72.3881 146.234 76.651 135.935 84.6311 129.575ZM80.283 75.8792C80.769 75.6048 81.3003 75.4201 81.8517 75.3337C82.3651 75.2493 82.892 75.3144 83.3693 75.5212C83.8638 75.7088 84.3242 75.9645 84.7846 76.1351C85.245 76.3056 85.7054 76.5101 86.1658 76.7148L87.4617 77.4139C88.315 77.9305 89.1351 78.5 89.9171 79.1191L89.7637 79.4942C88.7917 79.4942 87.8539 79.4943 86.916 79.392C86.4386 79.392 85.9782 79.392 85.5179 79.392H84.1708C83.7192 79.4179 83.2695 79.469 82.8237 79.5454C82.4075 79.6313 81.9755 79.5957 81.5789 79.443C81.1487 79.2834 80.7371 79.0776 80.3512 78.8291C79.8548 78.4997 79.387 78.1289 78.953 77.7207V77.3286C79.2609 76.7367 79.7197 76.2367 80.283 75.8792ZM69.7792 77.2774C70.1479 77.0763 70.5544 76.9544 70.9729 76.9194H74.673C75.4696 76.9816 76.2614 77.0956 77.0432 77.2605V77.5161C76.2759 77.7378 75.5085 77.9254 74.7753 78.1641C74.0421 78.4028 73.326 78.6246 72.6269 78.8803C72.2771 79.014 71.9402 79.1796 71.6208 79.3749C71.3071 79.5412 70.9665 79.6508 70.6147 79.6988C69.7911 79.8135 68.9536 79.7789 68.1423 79.5966L68.0229 79.392C68.3419 78.4998 68.988 77.7621 69.8304 77.3286L69.7792 77.2774Z" fill="black"/>
<path d="M119.689 15.5169C120.206 16.9046 120.616 18.3297 120.917 19.7798C124.327 35.8765 116.415 42.9017 114.198 44.5216V44.7604C114.261 45.8139 114.169 46.8709 113.926 47.8978C113.669 48.8265 113.221 49.6916 112.613 50.4385C112.033 52.1436 111.487 53.8488 110.993 55.5539L110.839 56.1168C111.596 55.4329 112.446 54.8589 113.363 54.4116C113.636 54.2411 113.926 54.0876 114.215 53.9341C114.846 51.1547 118.223 40.2928 134.132 35.7912C148.148 31.8353 163.75 44.6411 163.75 44.6411C159.549 46.9656 155.515 49.5808 151.678 52.4677C146.562 56.4407 131.983 67.6777 114.608 54.9743L114.028 55.4005C113.209 56.0144 112.544 56.7647 111.726 57.3103L110.498 58.18L110.208 58.3675C109.697 60.2602 109.236 62.17 108.844 64.0797C108.247 66.9615 107.753 69.8433 107.395 72.7421C107.043 75.6398 106.844 78.5539 106.798 81.4725C106.798 82.8025 106.798 84.1324 106.798 85.4454L107.105 85.2579L108.554 84.5416C108.964 84.32 109.407 84.1153 109.833 83.9107C110.294 80.3981 113.243 66.4501 131.403 63.1762C147.21 60.3285 164.603 72.06 164.603 72.06C160.012 74.7778 155.613 77.8087 151.439 81.1313C145.965 85.6841 130.227 98.507 110.686 85.3603C110.345 85.6331 109.987 85.9059 109.663 86.1958C109.284 86.5206 108.925 86.8679 108.588 87.2359C108.254 87.589 107.875 87.8982 107.463 88.1566L106.986 88.4465C107.255 91.875 107.866 95.2681 108.81 98.5752L109.1 99.5983L109.458 100.604C109.697 101.269 109.918 101.951 110.174 102.616C110.707 103.921 111.311 105.196 111.982 106.436L112.476 107.374C112.632 107.686 112.809 107.988 113.005 108.277L114.147 109.983L114.437 110.426L114.761 110.835L115.409 111.671L116.381 112.898L116.739 113.291L118.171 114.808L118.53 115.183L118.922 115.541L119.706 116.241L120.507 116.923C120.759 117.162 121.027 117.385 121.309 117.588L121.548 117.758C121.323 116.855 121.226 115.925 121.258 114.996V114.825C120.319 113.211 119.738 111.414 119.553 109.556C119.493 109.058 119.459 108.557 119.45 108.056C119.45 107.561 119.45 107.05 119.45 106.538C119.45 106.027 119.587 105.515 119.672 105.004C119.757 104.492 119.945 103.997 120.081 103.486C120.218 102.974 120.405 102.463 120.559 101.934L120.78 101.133C120.866 100.86 120.985 100.621 121.087 100.366C121.308 99.8582 121.594 99.3823 121.94 98.9503C122.31 98.5607 122.735 98.2274 123.202 97.9612L123.935 97.5861C124.19 97.483 124.452 97.3975 124.719 97.3303C125.277 97.1838 125.848 97.0926 126.424 97.0576C127.032 97.0314 127.64 97.0887 128.232 97.2281C128.906 97.3803 129.559 97.6152 130.176 97.9273L130.602 98.7116C130.551 99.9013 130.385 101.083 130.108 102.241C130.033 102.663 129.931 103.078 129.801 103.486C129.801 103.673 129.664 103.844 129.613 104.015C129.562 104.185 129.494 104.339 129.443 104.492C129.321 104.777 129.147 105.037 128.931 105.259C128.727 105.486 128.477 105.666 128.198 105.788C127.889 105.914 127.592 106.068 127.311 106.248C127.005 106.398 126.728 106.6 126.493 106.845C125.505 107.862 124.662 109.01 123.986 110.256C123.3 111.516 122.773 112.856 122.417 114.246L122.52 114.911C122.673 115.814 123.014 116.616 123.116 117.588C123.116 118.048 123.236 118.526 123.27 119.003L123.935 119.463L124.856 120.077L126.714 121.305L130.414 123.76C134.456 126.454 138.446 129.268 142.351 132.286C142.318 131.71 142.387 131.133 142.555 130.581C142.76 129.95 142.998 129.353 143.186 128.739C143.374 128.126 143.595 127.529 143.8 126.932C143.8 126.761 143.936 126.608 144.022 126.437C141.379 123.317 133.671 112.148 142.845 96.836C151.081 83.0583 171.372 77.6871 171.372 77.6871C170.397 82.9301 169.787 88.2344 169.548 93.562C169.377 100.655 168.695 120.844 146.102 126.983C146.11 127.148 146.11 127.313 146.102 127.478C146.102 128.074 145.983 128.654 145.965 129.183C145.933 129.751 145.933 130.32 145.965 130.888C146.016 131.46 145.97 132.036 145.829 132.593C145.69 133.172 145.514 133.742 145.301 134.298V134.435C146.324 135.27 147.347 136.14 148.336 136.992C149.325 137.845 150.604 138.97 151.746 140.045C152.292 140.59 152.854 141.102 153.451 141.75L155.02 143.455C155.548 144.001 156.026 144.631 156.503 145.16C156.992 145.766 157.448 146.397 157.868 147.053C158.294 147.718 158.737 148.366 159.129 149.048C159.521 149.73 159.726 150.207 159.999 150.753C171.993 141.369 180.888 128.594 185.527 114.088C190.165 99.5826 190.334 84.0171 186.011 69.4144C181.688 54.8117 173.072 41.8468 161.284 32.2046C149.496 22.5624 135.081 16.6886 119.911 15.3464L119.689 15.5169ZM141.447 94.3975C141.098 94.8461 140.71 95.2627 140.287 95.6422C139.972 95.923 139.622 96.1636 139.247 96.3585C138.902 96.5419 138.511 96.619 138.122 96.5801C137.713 96.5458 137.303 96.5458 136.894 96.5801L135.666 96.7165C135.24 96.7165 134.831 96.7166 134.405 96.8701C133.535 96.8701 132.699 97.1087 131.779 97.211L131.591 96.8701C132.217 96.2033 132.896 95.5873 133.62 95.0284L134.729 94.227C135.121 93.9883 135.513 93.7325 135.922 93.5278C136.331 93.3232 136.741 93.0164 137.167 92.7777C137.584 92.5329 138.067 92.4254 138.548 92.4706C139.068 92.4983 139.577 92.6257 140.049 92.8457C140.605 93.1155 141.086 93.52 141.447 94.0224V94.3975Z" fill="black"/>
<path d="M112.663 82.0184C112.818 80.9012 113.11 79.8073 113.533 78.7615C113.955 77.7015 114.468 76.6804 115.067 75.7094C116.304 73.7685 117.848 72.041 119.637 70.5939C121.463 69.1333 123.49 67.9443 125.656 67.0641C126.202 66.8595 126.748 66.6379 127.362 66.4674L128.197 66.1945L129.033 65.9728C130.157 65.6876 131.295 65.4601 132.443 65.2909C136.972 64.6057 141.586 64.6978 146.084 65.5636C148.305 65.9847 150.485 66.601 152.598 67.4053C153.647 67.8061 154.672 68.2671 155.667 68.7864C156.671 69.2788 157.634 69.8489 158.549 70.4915C156.44 69.8944 154.3 69.4163 152.137 69.0592C150.015 68.6898 147.875 68.428 145.726 68.2749C141.487 67.9665 137.228 68.121 133.023 68.7354C130.959 69.0073 128.927 69.4754 126.952 70.1335C124.997 70.8002 123.125 71.6928 121.376 72.7934C119.607 73.9154 117.985 75.2561 116.551 76.7837C115.023 78.3441 113.715 80.1051 112.663 82.0184Z" fill="black"/>
<path d="M98.5107 97.7729C95.0733 95.2155 91.031 93.5939 86.7792 93.0666C84.7291 92.8194 82.6567 92.8194 80.6065 93.0666C78.5416 93.3265 76.5043 93.7717 74.5191 94.3967C70.4557 95.64 66.5393 97.321 62.8388 99.41C60.9801 100.467 59.1557 101.61 57.3823 102.82C55.61 104.074 53.9026 105.417 52.2668 106.844C52.8127 105.871 53.4341 104.941 54.1254 104.065C54.7669 103.16 55.4556 102.289 56.1887 101.456C57.7639 99.8295 59.4753 98.3406 61.3041 97.0056C64.9848 94.3182 69.0962 92.2769 73.4619 90.9693C74.5821 90.627 75.7207 90.348 76.8722 90.1338L77.7248 89.9804L78.5945 89.8609C79.1742 89.8609 79.754 89.7416 80.2996 89.7075C82.6363 89.5611 84.9817 89.768 87.2566 90.3213C89.5114 90.8701 91.6564 91.7984 93.5998 93.0666C94.5658 93.6738 95.4683 94.3766 96.294 95.1641C97.1361 95.9405 97.8805 96.8164 98.5107 97.7729Z" fill="black"/>
<path d="M116.978 51.7342C117.365 50.8048 117.839 49.9142 118.393 49.0743C118.942 48.2131 119.552 47.3924 120.218 46.6188C121.562 45.0568 123.097 43.6706 124.788 42.4924C128.233 40.1227 132.177 38.5767 136.315 37.9737C138.364 37.6827 140.435 37.5684 142.504 37.6325C144.566 37.7172 146.615 37.9914 148.626 38.4512C150.628 38.9176 152.572 39.6037 154.423 40.4973C156.309 41.3371 158.038 42.4902 159.539 43.9076C155.86 42.6457 152.05 41.8048 148.182 41.4011C146.29 41.2135 144.397 41.0941 142.504 41.0941C140.619 41.0788 138.734 41.1756 136.86 41.384C129.201 42.2578 122.139 45.9465 117.046 51.7342H116.978Z" fill="black"/>
<path d="M114.061 42.9018C115.048 41.0005 115.815 38.9924 116.346 36.9167C116.886 34.8973 117.229 32.83 117.369 30.744C117.615 26.6301 117.089 22.5064 115.817 18.5863C115.518 17.6236 115.165 16.6785 114.76 15.7556C114.555 15.3123 114.351 14.8518 114.112 14.4085C113.873 13.9652 113.634 13.522 113.379 13.0786C112.342 11.3189 111.131 9.66797 109.764 8.1507C106.899 5.00887 103.624 2.26728 100.027 0C101.107 0.223224 102.167 0.53117 103.199 0.920852C106.327 2.09494 109.216 3.82831 111.725 6.03632C112.572 6.80196 113.375 7.616 114.129 8.47458C114.873 9.34576 115.562 10.2626 116.192 11.2199C117.463 13.1608 118.434 15.282 119.074 17.512C120.416 21.8845 120.697 26.5141 119.892 31.0167C119.483 33.2347 118.771 35.3861 117.778 37.4111C117.291 38.4173 116.72 39.3814 116.073 40.2929C115.498 41.2328 114.824 42.1076 114.061 42.9018Z" fill="black"/>
<path d="M100.524 67.7287C97.0947 69.249 93.3089 69.7806 89.5937 69.2634C85.7497 68.731 82.1363 67.1166 79.1752 64.6083C78.4352 63.9876 77.7347 63.3212 77.0778 62.6132L76.14 61.556C75.8501 61.215 75.5603 60.8911 75.2874 60.55C74.1279 59.22 73.0025 57.873 71.8771 56.56C69.5411 53.9 67.222 51.274 64.6131 48.6651C66.4198 49.199 68.142 49.9855 69.7286 51.0012C71.2924 52.0141 72.7695 53.1548 74.145 54.4115C75.5293 55.6281 76.8283 56.9383 78.0327 58.3332L79.7379 60.3625C80.2778 60.9587 80.8468 61.5278 81.443 62.0676C83.9175 64.3477 86.898 66.0074 90.1394 66.9102C91.8087 67.3875 93.523 67.6904 95.2548 67.814C97.0096 67.9598 98.7746 67.9312 100.524 67.7287Z" fill="black"/>
<path d="M115.614 129.54C115.534 130.741 115.351 131.934 115.068 133.104C114.802 134.264 114.454 135.403 114.028 136.514C113.179 138.819 112.033 141.003 110.618 143.011C107.704 147.123 103.692 150.332 99.0398 152.27C97.8817 152.751 96.6976 153.166 95.4931 153.515L93.7027 153.975L91.9975 154.384L88.5872 155.237C88.0415 155.407 87.4618 155.544 86.882 155.68L85.1769 156.141C82.9261 156.771 80.6752 157.419 78.4415 158.136C76.2077 158.852 73.9569 159.568 71.7232 160.472C73.4966 158.81 75.4801 157.389 77.623 156.243C79.7351 155.057 81.9356 154.037 84.2049 153.191C86.4626 152.33 88.7685 151.601 91.1108 151.008L92.816 150.582L94.5212 150.172C95.5954 149.883 96.6697 149.542 97.7098 149.149C101.929 147.527 105.696 144.913 108.691 141.527C110.214 139.799 111.557 137.919 112.698 135.917C113.879 133.893 114.856 131.757 115.614 129.54Z" fill="black"/>
<path d="M146.238 124.084C148.087 123.181 149.841 122.096 151.473 120.844C153.07 119.633 154.538 118.262 155.855 116.752C158.421 113.813 160.251 110.306 161.193 106.521C161.425 105.576 161.608 104.62 161.738 103.656L162.113 100.621C162.37 98.5175 162.763 96.4327 163.29 94.3801C163.809 92.3261 164.481 90.3139 165.302 88.3608C166.105 86.3864 167.178 84.5329 168.491 82.8532C167.996 84.9164 167.638 86.9286 167.28 88.9578C166.922 90.9869 166.632 92.9818 166.342 94.9939C166.052 97.006 165.814 99.0181 165.558 101.047C165.558 101.542 165.456 102.053 165.387 102.565L165.166 104.168C164.996 105.256 164.757 106.333 164.449 107.39C163.257 111.588 160.924 115.372 157.708 118.323C154.493 121.273 150.523 123.273 146.238 124.101V124.084Z" fill="black"/>
<path d="M95.6301 178.58C95.1074 178.58 94.5964 178.425 94.1618 178.135C93.7271 177.845 93.3884 177.432 93.1883 176.949C92.9883 176.466 92.9359 175.934 93.0379 175.422C93.1399 174.909 93.3916 174.438 93.7613 174.069C94.1309 173.699 94.6018 173.447 95.1145 173.345C95.6272 173.243 96.1586 173.296 96.6415 173.496C97.1245 173.696 97.5373 174.034 97.8277 174.469C98.1181 174.904 98.2731 175.415 98.2731 175.938C98.2731 176.639 97.9947 177.311 97.499 177.806C97.0034 178.302 96.3311 178.58 95.6301 178.58Z" fill="black"/>
<path d="M69.728 205.42L60.8271 182.367L58.8491 181.599V180.32H64.6296L71.8595 199.196L79.6691 180.32H81.9711L71.689 205.42H69.728Z" fill="black"/>
<path d="M93.4806 205.42V182.367L91.4856 181.599V180.32H97.7435V205.42H93.4806Z" fill="black"/>
<path d="M128.284 205.472V187.585C128.347 186.582 128.202 185.578 127.857 184.635C127.601 183.932 127.188 183.297 126.65 182.778C126.113 182.258 125.464 181.867 124.754 181.634C124.118 181.409 123.45 181.288 122.776 181.276C121.994 181.3 121.22 181.432 120.474 181.668C119.656 181.908 118.884 182.282 118.189 182.776C117.551 183.237 117.007 183.816 116.586 184.481C116.196 185.079 115.994 185.78 116.006 186.493V205.472H111.726V182.418L109.783 181.651V180.372H116.006V182.077C116.68 181.459 117.453 180.958 118.291 180.594C119.776 179.945 121.378 179.609 122.998 179.604H123.492C124.648 179.597 125.799 179.769 126.902 180.116C127.96 180.438 128.948 180.952 129.818 181.634C130.666 182.316 131.368 183.163 131.881 184.123C132.406 185.183 132.674 186.351 132.666 187.533V205.472H128.284Z" fill="black"/>
<path d="M156.998 206H156.486C154.966 205.998 153.458 205.72 152.036 205.181C150.568 204.637 149.231 203.789 148.114 202.692C146.906 201.505 145.955 200.083 145.317 198.514C143.961 195.045 143.846 191.213 144.994 187.67C145.471 186.145 146.248 184.73 147.278 183.509C148.335 182.255 149.657 181.253 151.15 180.574C152.642 179.896 154.267 179.558 155.907 179.587H156.401C157.753 179.587 159.096 179.812 160.374 180.252C161.621 180.667 162.779 181.315 163.784 182.162C164.814 183.015 165.641 184.087 166.206 185.299C166.824 186.64 167.133 188.103 167.109 189.579V190.074H148.967C148.808 190.917 148.745 191.774 148.779 192.631C148.745 194.327 149.022 196.015 149.597 197.611C150.081 198.91 150.804 200.107 151.729 201.14C152.564 202.055 153.588 202.776 154.73 203.255C155.738 203.693 156.82 203.936 157.919 203.971C159.098 203.924 160.257 203.646 161.329 203.152C162.588 202.547 163.7 201.674 164.586 200.595L164.893 200.219L165.183 200.458L165.387 200.219L166.7 201.294L166.376 201.669C165.238 203.1 163.761 204.225 162.079 204.943C160.472 205.627 158.745 205.987 156.998 206ZM163.068 188.351C163.46 188.351 164.398 188.351 164.466 187.891C164.514 187.247 164.378 186.602 164.074 186.032C163.413 184.594 162.315 183.401 160.937 182.622C159.793 181.995 158.522 181.634 157.22 181.565C156.292 181.582 155.377 181.779 154.525 182.145C153.633 182.564 152.824 183.142 152.138 183.85C151.414 184.55 150.799 185.355 150.314 186.237C149.927 186.949 149.613 187.697 149.376 188.471L163.068 188.351Z" fill="black"/>
</svg>
